<svg xmlns="http://www.w3.org/2000/svg" xmlns:xlink="http://www.w3.org/1999/xlink" width="500" zoomAndPan="magnify" viewBox="0 0 375 262.499992" height="350" preserveAspectRatio="xMidYMid meet" version="1.0"><defs><g/><clipPath id="c5182e65d2"><path d="M 198 99 L 249.917969 99 L 249.917969 124 L 198 124 Z M 198 99 " clip-rule="nonzero"/></clipPath><clipPath id="ed38d2c4e5"><path d="M 198 84 L 249.917969 84 L 249.917969 109 L 198 109 Z M 198 84 " clip-rule="nonzero"/></clipPath><clipPath id="b8cb5127c3"><path d="M 198 69 L 249.917969 69 L 249.917969 94 L 198 94 Z M 198 69 " clip-rule="nonzero"/></clipPath><clipPath id="f0a0412383"><path d="M 198 53 L 249.917969 53 L 249.917969 78 L 198 78 Z M 198 53 " clip-rule="nonzero"/></clipPath><clipPath id="fbdc6ed006"><path d="M 198 45 L 249.917969 45 L 249.917969 63 L 198 63 Z M 198 45 " clip-rule="nonzero"/></clipPath><clipPath id="388dd5e50f"><path d="M 124.90625 99 L 177 99 L 177 124 L 124.90625 124 Z M 124.90625 99 " clip-rule="nonzero"/></clipPath><clipPath id="b4dea14e14"><path d="M 124.90625 84 L 177 84 L 177 109 L 124.90625 109 Z M 124.90625 84 " clip-rule="nonzero"/></clipPath><clipPath id="48b3f09c65"><path d="M 124.90625 69 L 177 69 L 177 94 L 124.90625 94 Z M 124.90625 69 " clip-rule="nonzero"/></clipPath><clipPath id="f5ffc05bc3"><path d="M 124.90625 53 L 177 53 L 177 78 L 124.90625 78 Z M 124.90625 53 " clip-rule="nonzero"/></clipPath><clipPath id="a3a4a16506"><path d="M 124.90625 45 L 177 45 L 177 63 L 124.90625 63 Z M 124.90625 45 " clip-rule="nonzero"/></clipPath><clipPath id="6950e6819b"><path d="M 124.90625 62 L 149 62 L 149 72 L 124.90625 72 Z M 124.90625 62 " clip-rule="nonzero"/></clipPath><clipPath id="d7e0d63171"><path d="M 124.90625 77 L 149 77 L 149 87 L 124.90625 87 Z M 124.90625 77 " clip-rule="nonzero"/></clipPath><clipPath id="054afe3690"><path d="M 124.90625 92 L 149 92 L 149 103 L 124.90625 103 Z M 124.90625 92 " clip-rule="nonzero"/></clipPath><clipPath id="2d7abc5659"><path d="M 124.90625 107 L 149 107 L 149 118 L 124.90625 118 Z M 124.90625 107 " clip-rule="nonzero"/></clipPath><clipPath id="81a1c348a3"><path d="M 161 110 L 214 110 L 214 134.195312 L 161 134.195312 Z M 161 110 " clip-rule="nonzero"/></clipPath><clipPath id="a4fd1ff15b"><path d="M 161 110 L 185 110 L 185 134.195312 L 161 134.195312 Z M 161 110 " clip-rule="nonzero"/></clipPath></defs><g clip-path="url(#c5182e65d2)"><path fill="#619fff" d="M 249.917969 99.726562 L 249.917969 115.011719 C 249.917969 119.863281 238.308594 123.8125 223.984375 123.8125 C 209.660156 123.8125 198.050781 119.863281 198.050781 115.011719 L 198.050781 99.726562 Z M 249.917969 99.726562 " fill-opacity="1" fill-rule="nonzero"/></g><g clip-path="url(#ed38d2c4e5)"><path fill="#dbecff" d="M 249.917969 84.441406 L 249.917969 99.726562 C 249.917969 104.589844 238.308594 108.527344 223.984375 108.527344 C 209.660156 108.527344 198.050781 104.589844 198.050781 99.726562 L 198.050781 84.441406 Z M 249.917969 84.441406 " fill-opacity="1" fill-rule="nonzero"/></g><g clip-path="url(#b8cb5127c3)"><path fill="#619fff" d="M 249.917969 69.15625 L 249.917969 84.441406 C 249.917969 89.304688 238.308594 93.242188 223.984375 93.242188 C 209.660156 93.242188 198.050781 89.304688 198.050781 84.441406 L 198.050781 69.15625 Z M 249.917969 69.15625 " fill-opacity="1" fill-rule="nonzero"/></g><g clip-path="url(#f0a0412383)"><path fill="#dbecff" d="M 249.917969 53.871094 L 249.917969 69.15625 C 249.917969 74.019531 238.308594 77.96875 223.984375 77.96875 C 209.660156 77.96875 198.050781 74.019531 198.050781 69.15625 L 198.050781 53.871094 Z M 249.917969 53.871094 " fill-opacity="1" fill-rule="nonzero"/></g><path fill="#6177eb" d="M 221.324219 99.726562 L 198.050781 99.726562 L 198.050781 115.011719 C 198.050781 119.570312 208.277344 123.320312 221.363281 123.769531 Z M 221.324219 99.726562 " fill-opacity="1" fill-rule="nonzero"/><path fill="#b3bfff" d="M 221.324219 84.441406 L 198.050781 84.441406 L 198.050781 99.726562 C 198.050781 104.285156 208.277344 108.035156 221.363281 108.484375 Z M 221.324219 84.441406 " fill-opacity="1" fill-rule="nonzero"/><path fill="#6177eb" d="M 221.324219 69.15625 L 198.050781 69.15625 L 198.050781 84.441406 C 198.050781 89 208.277344 92.761719 221.363281 93.199219 Z M 221.324219 69.15625 " fill-opacity="1" fill-rule="nonzero"/><path fill="#b3bfff" d="M 221.324219 53.871094 L 198.050781 53.871094 L 198.050781 69.15625 C 198.050781 73.730469 208.277344 77.476562 221.363281 77.914062 Z M 221.324219 53.871094 " fill-opacity="1" fill-rule="nonzero"/><g clip-path="url(#fbdc6ed006)"><path fill="#f9f6ff" d="M 249.863281 53.871094 C 249.863281 54.160156 249.824219 54.445312 249.738281 54.734375 C 249.65625 55.019531 249.53125 55.304688 249.367188 55.589844 C 249.199219 55.871094 248.996094 56.148438 248.75 56.425781 C 248.5 56.703125 248.214844 56.972656 247.890625 57.238281 C 247.566406 57.503906 247.203125 57.765625 246.804688 58.019531 C 246.402344 58.273438 245.964844 58.519531 245.496094 58.761719 C 245.023438 59 244.515625 59.230469 243.976562 59.453125 C 243.441406 59.675781 242.871094 59.890625 242.269531 60.09375 C 241.667969 60.296875 241.039062 60.492188 240.382812 60.671875 C 239.726562 60.855469 239.046875 61.027344 238.339844 61.1875 C 237.632812 61.347656 236.90625 61.496094 236.15625 61.632812 C 235.40625 61.765625 234.640625 61.890625 233.855469 62 C 233.070312 62.109375 232.273438 62.207031 231.460938 62.292969 C 230.648438 62.375 229.824219 62.445312 228.992188 62.5 C 228.15625 62.558594 227.320312 62.601562 226.472656 62.628906 C 225.628906 62.65625 224.78125 62.671875 223.929688 62.671875 C 223.082031 62.671875 222.234375 62.65625 221.390625 62.628906 C 220.542969 62.601562 219.707031 62.558594 218.871094 62.5 C 218.039062 62.445312 217.214844 62.375 216.402344 62.292969 C 215.589844 62.207031 214.792969 62.109375 214.007812 62 C 213.222656 61.890625 212.457031 61.765625 211.707031 61.632812 C 210.957031 61.496094 210.230469 61.347656 209.523438 61.1875 C 208.816406 61.027344 208.136719 60.855469 207.480469 60.671875 C 206.824219 60.492188 206.195312 60.296875 205.59375 60.09375 C 204.992188 59.890625 204.421875 59.675781 203.886719 59.453125 C 203.347656 59.230469 202.839844 59 202.367188 58.761719 C 201.898438 58.519531 201.460938 58.273438 201.058594 58.019531 C 200.660156 57.765625 200.296875 57.503906 199.972656 57.238281 C 199.648438 56.972656 199.363281 56.703125 199.113281 56.425781 C 198.867188 56.148438 198.664062 55.871094 198.496094 55.589844 C 198.332031 55.304688 198.207031 55.019531 198.125 54.734375 C 198.039062 54.445312 198 54.160156 198 53.871094 C 198 53.582031 198.039062 53.296875 198.125 53.007812 C 198.207031 52.722656 198.332031 52.4375 198.496094 52.15625 C 198.664062 51.871094 198.867188 51.59375 199.113281 51.316406 C 199.363281 51.042969 199.648438 50.769531 199.972656 50.503906 C 200.296875 50.238281 200.660156 49.976562 201.058594 49.722656 C 201.460938 49.46875 201.898438 49.222656 202.367188 48.984375 C 202.839844 48.742188 203.347656 48.511719 203.886719 48.289062 C 204.421875 48.066406 204.992188 47.851562 205.59375 47.648438 C 206.195312 47.445312 206.824219 47.253906 207.480469 47.070312 C 208.136719 46.886719 208.816406 46.714844 209.523438 46.554688 C 210.230469 46.394531 210.957031 46.246094 211.707031 46.113281 C 212.457031 45.976562 213.222656 45.851562 214.007812 45.742188 C 214.792969 45.632812 215.589844 45.535156 216.402344 45.453125 C 217.214844 45.367188 218.039062 45.296875 218.871094 45.242188 C 219.707031 45.183594 220.542969 45.144531 221.390625 45.113281 C 222.234375 45.085938 223.082031 45.074219 223.929688 45.074219 C 224.78125 45.074219 225.628906 45.085938 226.472656 45.113281 C 227.320312 45.144531 228.15625 45.183594 228.992188 45.242188 C 229.824219 45.296875 230.648438 45.367188 231.460938 45.453125 C 232.273438 45.535156 233.070312 45.632812 233.855469 45.742188 C 234.640625 45.851562 235.40625 45.976562 236.15625 46.113281 C 236.90625 46.246094 237.632812 46.394531 238.339844 46.554688 C 239.046875 46.714844 239.726562 46.886719 240.382812 47.070312 C 241.039062 47.253906 241.667969 47.445312 242.269531 47.648438 C 242.871094 47.851562 243.441406 48.066406 243.976562 48.289062 C 244.515625 48.511719 245.023438 48.742188 245.496094 48.984375 C 245.964844 49.222656 246.402344 49.46875 246.804688 49.722656 C 247.203125 49.976562 247.566406 50.238281 247.890625 50.503906 C 248.214844 50.769531 248.5 51.042969 248.75 51.316406 C 248.996094 51.59375 249.199219 51.871094 249.367188 52.15625 C 249.53125 52.4375 249.65625 52.722656 249.738281 53.007812 C 249.824219 53.296875 249.863281 53.582031 249.863281 53.871094 Z M 249.863281 53.871094 " fill-opacity="1" fill-rule="nonzero"/></g><path fill="#ffffff" d="M 209.023438 55.597656 C 208.640625 55.488281 208.332031 55.269531 208.09375 54.953125 C 207.855469 54.632812 207.734375 54.277344 207.734375 53.878906 C 207.734375 53.480469 207.855469 53.121094 208.09375 52.804688 C 208.332031 52.484375 208.640625 52.269531 209.023438 52.15625 C 213.921875 50.972656 218.890625 50.382812 223.929688 50.382812 C 228.972656 50.382812 233.941406 50.972656 238.839844 52.15625 C 239.230469 52.261719 239.546875 52.472656 239.792969 52.792969 C 240.039062 53.113281 240.164062 53.472656 240.164062 53.878906 C 240.164062 54.28125 240.039062 54.644531 239.792969 54.964844 C 239.546875 55.285156 239.230469 55.496094 238.839844 55.597656 C 233.941406 56.777344 228.972656 57.363281 223.929688 57.363281 C 218.890625 57.363281 213.921875 56.777344 209.023438 55.597656 Z M 209.023438 55.597656 " fill-opacity="1" fill-rule="nonzero"/><path fill="#5955a1" d="M 243.894531 65.699219 C 244.519531 65.429688 245.125 65.125 245.714844 64.785156 C 245.867188 64.671875 246.035156 64.597656 246.21875 64.558594 C 246.402344 64.519531 246.589844 64.519531 246.773438 64.558594 C 246.957031 64.597656 247.125 64.671875 247.277344 64.78125 C 247.429688 64.890625 247.554688 65.027344 247.648438 65.191406 C 247.742188 65.351562 247.800781 65.527344 247.820312 65.714844 C 247.839844 65.902344 247.820312 66.085938 247.765625 66.265625 C 247.707031 66.441406 247.617188 66.601562 247.492188 66.742188 C 247.367188 66.882812 247.21875 66.992188 247.046875 67.070312 C 246.367188 67.46875 245.667969 67.820312 244.945312 68.132812 C 244.785156 68.1875 244.625 68.210938 244.457031 68.203125 C 244.289062 68.195312 244.128906 68.15625 243.976562 68.085938 C 243.824219 68.019531 243.691406 67.925781 243.574219 67.808594 C 243.457031 67.691406 243.363281 67.554688 243.296875 67.402344 C 243.230469 67.246094 243.195312 67.085938 243.191406 66.921875 C 243.183594 66.753906 243.207031 66.59375 243.265625 66.433594 C 243.320312 66.277344 243.402344 66.136719 243.507812 66.007812 C 243.617188 65.882812 243.746094 65.777344 243.894531 65.699219 Z M 243.894531 65.699219 " fill-opacity="1" fill-rule="nonzero"/><path fill="#5955a1" d="M 238.496094 70.140625 C 238.316406 70.160156 238.144531 70.144531 237.972656 70.097656 C 237.804688 70.046875 237.648438 69.96875 237.507812 69.859375 C 237.371094 69.75 237.257812 69.617188 237.171875 69.460938 C 237.085938 69.304688 237.03125 69.140625 237.011719 68.964844 C 236.992188 68.789062 237.003906 68.613281 237.054688 68.445312 C 237.101562 68.273438 237.183594 68.117188 237.292969 67.980469 C 237.402344 67.839844 237.535156 67.726562 237.691406 67.640625 C 237.847656 67.554688 238.011719 67.503906 238.1875 67.480469 C 238.972656 67.308594 239.730469 67.109375 240.449219 66.898438 C 240.617188 66.847656 240.789062 66.832031 240.964844 66.851562 C 241.140625 66.871094 241.304688 66.925781 241.460938 67.007812 C 241.613281 67.09375 241.746094 67.203125 241.855469 67.34375 C 241.96875 67.480469 242.046875 67.632812 242.097656 67.800781 C 242.144531 67.96875 242.160156 68.140625 242.140625 68.316406 C 242.121094 68.492188 242.070312 68.65625 241.984375 68.8125 C 241.902344 68.964844 241.789062 69.097656 241.652344 69.210938 C 241.515625 69.320312 241.363281 69.398438 241.195312 69.449219 C 240.308594 69.734375 239.40625 69.964844 238.496094 70.140625 Z M 238.496094 70.140625 " fill-opacity="1" fill-rule="nonzero"/><path fill="#5955a1" d="M 231.5 71.269531 C 231.324219 71.277344 231.152344 71.253906 230.984375 71.195312 C 230.820312 71.136719 230.667969 71.046875 230.539062 70.925781 C 230.40625 70.808594 230.304688 70.671875 230.230469 70.511719 C 230.152344 70.351562 230.109375 70.183594 230.101562 70.007812 C 230.09375 69.832031 230.117188 69.660156 230.179688 69.492188 C 230.238281 69.328125 230.328125 69.179688 230.445312 69.046875 C 230.5625 68.917969 230.703125 68.8125 230.863281 68.738281 C 231.023438 68.664062 231.191406 68.621094 231.367188 68.613281 C 232.257812 68.519531 233.121094 68.414062 234.027344 68.28125 C 234.203125 68.253906 234.375 68.261719 234.546875 68.304688 C 234.71875 68.347656 234.878906 68.421875 235.019531 68.527344 C 235.160156 68.632812 235.277344 68.761719 235.367188 68.917969 C 235.460938 69.070312 235.515625 69.234375 235.542969 69.410156 C 235.566406 69.582031 235.558594 69.757812 235.511719 69.925781 C 235.46875 70.097656 235.394531 70.253906 235.289062 70.394531 C 235.183594 70.535156 235.054688 70.648438 234.902344 70.738281 C 234.75 70.828125 234.585938 70.886719 234.410156 70.910156 C 233.960938 70.992188 231.816406 71.269531 231.5 71.269531 Z M 231.5 71.269531 " fill-opacity="1" fill-rule="nonzero"/><path fill="#5955a1" d="M 243.894531 80.972656 C 244.519531 80.703125 245.125 80.394531 245.714844 80.054688 C 245.867188 79.976562 246.027344 79.929688 246.199219 79.910156 C 246.371094 79.894531 246.539062 79.910156 246.703125 79.957031 C 246.867188 80.003906 247.015625 80.082031 247.152344 80.1875 C 247.289062 80.292969 247.398438 80.417969 247.484375 80.566406 C 247.570312 80.714844 247.625 80.875 247.648438 81.046875 C 247.671875 81.214844 247.664062 81.382812 247.625 81.550781 C 247.582031 81.714844 247.511719 81.867188 247.414062 82.007812 C 247.3125 82.148438 247.191406 82.261719 247.046875 82.355469 C 246.367188 82.746094 245.664062 83.097656 244.945312 83.40625 C 244.785156 83.457031 244.625 83.480469 244.457031 83.472656 C 244.289062 83.464844 244.128906 83.425781 243.976562 83.359375 C 243.824219 83.292969 243.691406 83.199219 243.574219 83.078125 C 243.457031 82.960938 243.363281 82.824219 243.296875 82.671875 C 243.230469 82.519531 243.195312 82.359375 243.191406 82.191406 C 243.183594 82.027344 243.207031 81.863281 243.265625 81.707031 C 243.320312 81.550781 243.402344 81.40625 243.507812 81.28125 C 243.617188 81.152344 243.746094 81.050781 243.894531 80.972656 Z M 243.894531 80.972656 " fill-opacity="1" fill-rule="nonzero"/><path fill="#5955a1" d="M 238.496094 85.410156 C 238.316406 85.433594 238.144531 85.417969 237.972656 85.371094 C 237.804688 85.320312 237.648438 85.242188 237.507812 85.128906 C 237.371094 85.019531 237.257812 84.886719 237.171875 84.734375 C 237.085938 84.578125 237.03125 84.410156 237.011719 84.234375 C 236.992188 84.058594 237.003906 83.886719 237.054688 83.714844 C 237.101562 83.542969 237.183594 83.390625 237.292969 83.25 C 237.402344 83.113281 237.535156 83 237.691406 82.914062 C 237.847656 82.828125 238.011719 82.773438 238.1875 82.753906 C 238.972656 82.566406 239.730469 82.367188 240.449219 82.167969 C 240.617188 82.121094 240.789062 82.105469 240.964844 82.125 C 241.140625 82.144531 241.304688 82.195312 241.460938 82.28125 C 241.613281 82.367188 241.746094 82.476562 241.855469 82.613281 C 241.96875 82.75 242.046875 82.902344 242.097656 83.074219 C 242.144531 83.242188 242.160156 83.414062 242.140625 83.589844 C 242.121094 83.765625 242.070312 83.929688 241.984375 84.082031 C 241.902344 84.238281 241.789062 84.371094 241.652344 84.480469 C 241.515625 84.589844 241.363281 84.671875 241.195312 84.722656 C 240.308594 85 239.40625 85.230469 238.496094 85.410156 Z M 238.496094 85.410156 " fill-opacity="1" fill-rule="nonzero"/><path fill="#5955a1" d="M 231.5 86.554688 C 231.324219 86.5625 231.152344 86.539062 230.984375 86.480469 C 230.820312 86.421875 230.667969 86.332031 230.539062 86.210938 C 230.40625 86.09375 230.304688 85.957031 230.230469 85.796875 C 230.152344 85.636719 230.109375 85.46875 230.101562 85.292969 C 230.09375 85.117188 230.117188 84.945312 230.179688 84.777344 C 230.238281 84.613281 230.328125 84.464844 230.445312 84.332031 C 230.5625 84.203125 230.703125 84.097656 230.863281 84.023438 C 231.023438 83.949219 231.191406 83.90625 231.367188 83.898438 C 232.253906 83.800781 233.140625 83.691406 234.027344 83.578125 C 234.203125 83.550781 234.375 83.5625 234.550781 83.605469 C 234.722656 83.648438 234.878906 83.722656 235.023438 83.832031 C 235.164062 83.9375 235.28125 84.066406 235.375 84.21875 C 235.464844 84.375 235.523438 84.539062 235.546875 84.714844 C 235.574219 84.890625 235.566406 85.066406 235.519531 85.238281 C 235.476562 85.410156 235.402344 85.566406 235.296875 85.710938 C 235.1875 85.851562 235.058594 85.96875 234.90625 86.0625 C 234.753906 86.152344 234.585938 86.210938 234.410156 86.234375 C 233.960938 86.277344 231.816406 86.554688 231.5 86.554688 Z M 231.5 86.554688 " fill-opacity="1" fill-rule="nonzero"/><path fill="#5955a1" d="M 243.894531 96.257812 C 244.519531 95.988281 245.125 95.679688 245.714844 95.339844 C 245.867188 95.230469 246.035156 95.15625 246.21875 95.117188 C 246.402344 95.078125 246.589844 95.078125 246.773438 95.113281 C 246.957031 95.152344 247.125 95.226562 247.277344 95.339844 C 247.429688 95.449219 247.554688 95.585938 247.648438 95.746094 C 247.742188 95.910156 247.800781 96.085938 247.820312 96.273438 C 247.839844 96.457031 247.820312 96.640625 247.765625 96.820312 C 247.707031 97 247.617188 97.160156 247.492188 97.300781 C 247.367188 97.441406 247.21875 97.550781 247.046875 97.625 C 246.367188 98.027344 245.667969 98.382812 244.945312 98.691406 C 244.785156 98.742188 244.625 98.765625 244.457031 98.757812 C 244.289062 98.75 244.128906 98.710938 243.976562 98.644531 C 243.824219 98.578125 243.691406 98.484375 243.574219 98.363281 C 243.457031 98.246094 243.363281 98.109375 243.296875 97.957031 C 243.230469 97.804688 243.195312 97.644531 243.191406 97.476562 C 243.183594 97.3125 243.207031 97.148438 243.265625 96.992188 C 243.320312 96.835938 243.402344 96.691406 243.507812 96.566406 C 243.617188 96.4375 243.746094 96.335938 243.894531 96.257812 Z M 243.894531 96.257812 " fill-opacity="1" fill-rule="nonzero"/><path fill="#5955a1" d="M 238.496094 100.695312 C 238.316406 100.71875 238.144531 100.703125 237.972656 100.65625 C 237.804688 100.605469 237.648438 100.527344 237.507812 100.414062 C 237.371094 100.304688 237.257812 100.171875 237.171875 100.019531 C 237.085938 99.863281 237.03125 99.695312 237.011719 99.519531 C 236.992188 99.34375 237.003906 99.171875 237.054688 99 C 237.101562 98.828125 237.183594 98.675781 237.292969 98.535156 C 237.402344 98.398438 237.535156 98.285156 237.691406 98.199219 C 237.847656 98.113281 238.011719 98.058594 238.1875 98.039062 C 238.972656 97.867188 239.730469 97.667969 240.449219 97.453125 C 240.617188 97.40625 240.789062 97.390625 240.964844 97.410156 C 241.140625 97.429688 241.304688 97.480469 241.460938 97.566406 C 241.613281 97.652344 241.746094 97.761719 241.855469 97.898438 C 241.96875 98.035156 242.046875 98.1875 242.097656 98.359375 C 242.144531 98.527344 242.160156 98.699219 242.140625 98.875 C 242.121094 99.050781 242.070312 99.214844 241.984375 99.367188 C 241.902344 99.523438 241.789062 99.65625 241.652344 99.765625 C 241.515625 99.875 241.363281 99.957031 241.195312 100.007812 C 240.308594 100.285156 239.40625 100.515625 238.496094 100.695312 Z M 238.496094 100.695312 " fill-opacity="1" fill-rule="nonzero"/><path fill="#5955a1" d="M 231.5 101.828125 C 231.324219 101.835938 231.152344 101.808594 230.984375 101.75 C 230.820312 101.691406 230.667969 101.601562 230.539062 101.484375 C 230.40625 101.367188 230.304688 101.226562 230.230469 101.066406 C 230.152344 100.910156 230.109375 100.742188 230.101562 100.5625 C 230.09375 100.386719 230.117188 100.214844 230.179688 100.050781 C 230.238281 99.882812 230.328125 99.734375 230.445312 99.605469 C 230.5625 99.472656 230.703125 99.371094 230.863281 99.296875 C 231.023438 99.21875 231.191406 99.175781 231.367188 99.167969 C 232.257812 99.074219 233.121094 98.96875 234.027344 98.835938 C 234.203125 98.808594 234.375 98.816406 234.546875 98.859375 C 234.71875 98.902344 234.878906 98.980469 235.019531 99.085938 C 235.160156 99.191406 235.277344 99.320312 235.367188 99.472656 C 235.460938 99.625 235.515625 99.789062 235.542969 99.964844 C 235.566406 100.140625 235.558594 100.3125 235.511719 100.484375 C 235.46875 100.65625 235.394531 100.808594 235.289062 100.949219 C 235.183594 101.09375 235.054688 101.207031 234.902344 101.296875 C 234.75 101.386719 234.585938 101.441406 234.410156 101.46875 C 233.960938 101.546875 231.816406 101.828125 231.5 101.828125 Z M 231.5 101.828125 " fill-opacity="1" fill-rule="nonzero"/><path fill="#5955a1" d="M 244.425781 114.082031 C 244.109375 114.085938 243.828125 113.984375 243.578125 113.789062 C 243.332031 113.589844 243.175781 113.332031 243.113281 113.023438 C 243.046875 112.714844 243.089844 112.417969 243.234375 112.136719 C 243.382812 111.855469 243.601562 111.652344 243.894531 111.53125 C 244.519531 111.265625 245.128906 110.957031 245.714844 110.613281 C 245.867188 110.53125 246.027344 110.484375 246.199219 110.46875 C 246.371094 110.449219 246.539062 110.464844 246.703125 110.515625 C 246.867188 110.5625 247.015625 110.636719 247.152344 110.742188 C 247.289062 110.851562 247.398438 110.976562 247.484375 111.125 C 247.570312 111.273438 247.625 111.433594 247.648438 111.601562 C 247.671875 111.773438 247.664062 111.941406 247.625 112.105469 C 247.582031 112.273438 247.511719 112.425781 247.414062 112.566406 C 247.3125 112.703125 247.191406 112.820312 247.046875 112.910156 C 246.421875 113.269531 245.714844 113.628906 244.945312 113.976562 C 244.777344 114.042969 244.605469 114.078125 244.425781 114.082031 Z M 244.425781 114.082031 " fill-opacity="1" fill-rule="nonzero"/><path fill="#5955a1" d="M 238.496094 115.96875 C 238.316406 115.988281 238.144531 115.972656 237.972656 115.925781 C 237.804688 115.875 237.648438 115.796875 237.511719 115.6875 C 237.371094 115.578125 237.257812 115.445312 237.171875 115.289062 C 237.085938 115.132812 237.035156 114.96875 237.015625 114.792969 C 236.992188 114.617188 237.007812 114.441406 237.054688 114.273438 C 237.105469 114.101562 237.183594 113.949219 237.292969 113.808594 C 237.40625 113.667969 237.535156 113.558594 237.691406 113.472656 C 237.847656 113.382812 238.011719 113.332031 238.1875 113.3125 C 238.972656 113.125 239.730469 112.9375 240.449219 112.726562 C 240.617188 112.675781 240.789062 112.660156 240.964844 112.679688 C 241.140625 112.699219 241.304688 112.753906 241.460938 112.835938 C 241.613281 112.921875 241.746094 113.035156 241.855469 113.171875 C 241.96875 113.308594 242.046875 113.460938 242.097656 113.628906 C 242.144531 113.800781 242.160156 113.972656 242.140625 114.144531 C 242.121094 114.320312 242.070312 114.484375 241.984375 114.640625 C 241.902344 114.796875 241.789062 114.925781 241.652344 115.039062 C 241.515625 115.148438 241.363281 115.226562 241.195312 115.277344 C 240.308594 115.558594 239.40625 115.789062 238.496094 115.96875 Z M 238.496094 115.96875 " fill-opacity="1" fill-rule="nonzero"/><path fill="#5955a1" d="M 231.5 117.113281 C 231.324219 117.121094 231.152344 117.09375 230.984375 117.035156 C 230.820312 116.976562 230.667969 116.886719 230.539062 116.769531 C 230.40625 116.652344 230.304688 116.511719 230.230469 116.351562 C 230.152344 116.195312 230.109375 116.027344 230.101562 115.847656 C 230.09375 115.671875 230.117188 115.5 230.179688 115.335938 C 230.238281 115.167969 230.328125 115.019531 230.445312 114.890625 C 230.5625 114.757812 230.703125 114.65625 230.863281 114.582031 C 231.023438 114.503906 231.191406 114.460938 231.367188 114.453125 C 232.253906 114.363281 233.140625 114.257812 234.027344 114.136719 C 234.203125 114.109375 234.375 114.117188 234.550781 114.164062 C 234.722656 114.207031 234.878906 114.28125 235.023438 114.386719 C 235.164062 114.496094 235.28125 114.625 235.375 114.777344 C 235.464844 114.929688 235.523438 115.09375 235.546875 115.269531 C 235.574219 115.449219 235.566406 115.621094 235.519531 115.792969 C 235.476562 115.96875 235.402344 116.125 235.296875 116.265625 C 235.1875 116.410156 235.058594 116.527344 234.90625 116.617188 C 234.753906 116.710938 234.585938 116.765625 234.410156 116.792969 C 233.867188 116.832031 231.804688 117.113281 231.5 117.113281 Z M 231.5 117.113281 " fill-opacity="1" fill-rule="nonzero"/><g clip-path="url(#388dd5e50f)"><path fill="#619fff" d="M 176.773438 99.726562 L 176.773438 115.011719 C 176.773438 119.863281 165.164062 123.8125 150.851562 123.8125 C 136.542969 123.8125 124.90625 119.863281 124.90625 115.011719 L 124.90625 99.726562 Z M 176.773438 99.726562 " fill-opacity="1" fill-rule="nonzero"/></g><g clip-path="url(#b4dea14e14)"><path fill="#dbecff" d="M 176.773438 84.441406 L 176.773438 99.726562 C 176.773438 104.589844 165.164062 108.527344 150.851562 108.527344 C 136.542969 108.527344 124.90625 104.589844 124.90625 99.726562 L 124.90625 84.441406 Z M 176.773438 84.441406 " fill-opacity="1" fill-rule="nonzero"/></g><g clip-path="url(#48b3f09c65)"><path fill="#619fff" d="M 176.773438 69.15625 L 176.773438 84.441406 C 176.773438 89.304688 165.164062 93.242188 150.851562 93.242188 C 136.542969 93.242188 124.90625 89.304688 124.90625 84.441406 L 124.90625 69.15625 Z M 176.773438 69.15625 " fill-opacity="1" fill-rule="nonzero"/></g><g clip-path="url(#f5ffc05bc3)"><path fill="#dbecff" d="M 176.773438 53.871094 L 176.773438 69.15625 C 176.773438 74.019531 165.164062 77.96875 150.851562 77.96875 C 136.542969 77.96875 124.90625 74.019531 124.90625 69.15625 L 124.90625 53.871094 Z M 176.773438 53.871094 " fill-opacity="1" fill-rule="nonzero"/></g><path fill="#6177eb" d="M 153.9375 99.726562 L 153.9375 123.746094 C 166.8125 123.226562 176.773438 119.519531 176.773438 115.011719 L 176.773438 99.726562 Z M 153.9375 99.726562 " fill-opacity="1" fill-rule="nonzero"/><path fill="#b3bfff" d="M 153.9375 84.441406 L 153.9375 108.460938 C 166.8125 107.941406 176.773438 104.246094 176.773438 99.726562 L 176.773438 84.441406 Z M 153.9375 84.441406 " fill-opacity="1" fill-rule="nonzero"/><path fill="#6177eb" d="M 153.9375 69.15625 L 153.9375 93.175781 C 166.8125 92.65625 176.773438 88.960938 176.773438 84.441406 L 176.773438 69.15625 Z M 153.9375 69.15625 " fill-opacity="1" fill-rule="nonzero"/><path fill="#b3bfff" d="M 153.9375 53.871094 L 153.9375 77.902344 C 166.8125 77.382812 176.773438 73.675781 176.773438 69.15625 L 176.773438 53.871094 Z M 153.9375 53.871094 " fill-opacity="1" fill-rule="nonzero"/><g clip-path="url(#a3a4a16506)"><path fill="#f9f6ff" d="M 176.824219 53.871094 C 176.824219 54.160156 176.785156 54.445312 176.703125 54.734375 C 176.617188 55.019531 176.492188 55.304688 176.328125 55.589844 C 176.160156 55.871094 175.957031 56.148438 175.710938 56.425781 C 175.460938 56.703125 175.175781 56.972656 174.851562 57.238281 C 174.527344 57.503906 174.164062 57.765625 173.765625 58.019531 C 173.363281 58.273438 172.925781 58.519531 172.457031 58.761719 C 171.984375 59 171.476562 59.230469 170.941406 59.453125 C 170.402344 59.675781 169.832031 59.890625 169.230469 60.09375 C 168.628906 60.296875 168 60.492188 167.34375 60.671875 C 166.6875 60.855469 166.007812 61.027344 165.300781 61.1875 C 164.59375 61.347656 163.867188 61.496094 163.117188 61.632812 C 162.367188 61.765625 161.601562 61.890625 160.816406 62 C 160.03125 62.109375 159.234375 62.207031 158.421875 62.292969 C 157.609375 62.375 156.785156 62.445312 155.953125 62.5 C 155.117188 62.558594 154.28125 62.601562 153.433594 62.628906 C 152.589844 62.65625 151.742188 62.671875 150.894531 62.671875 C 150.042969 62.671875 149.195312 62.65625 148.351562 62.628906 C 147.503906 62.601562 146.667969 62.558594 145.832031 62.5 C 145 62.445312 144.175781 62.375 143.363281 62.292969 C 142.550781 62.207031 141.753906 62.109375 140.96875 62 C 140.183594 61.890625 139.417969 61.765625 138.667969 61.632812 C 137.917969 61.496094 137.191406 61.347656 136.484375 61.1875 C 135.777344 61.027344 135.097656 60.855469 134.441406 60.671875 C 133.785156 60.492188 133.15625 60.296875 132.554688 60.09375 C 131.953125 59.890625 131.386719 59.675781 130.847656 59.453125 C 130.308594 59.230469 129.800781 59 129.328125 58.761719 C 128.859375 58.519531 128.421875 58.273438 128.023438 58.019531 C 127.621094 57.765625 127.257812 57.503906 126.933594 57.238281 C 126.609375 56.972656 126.324219 56.703125 126.074219 56.425781 C 125.828125 56.148438 125.625 55.871094 125.457031 55.589844 C 125.292969 55.304688 125.167969 55.019531 125.085938 54.734375 C 125 54.445312 124.960938 54.160156 124.960938 53.871094 C 124.960938 53.582031 125 53.296875 125.085938 53.007812 C 125.167969 52.722656 125.292969 52.4375 125.457031 52.15625 C 125.625 51.871094 125.828125 51.59375 126.074219 51.316406 C 126.324219 51.042969 126.609375 50.769531 126.933594 50.503906 C 127.257812 50.238281 127.621094 49.976562 128.023438 49.722656 C 128.421875 49.46875 128.859375 49.222656 129.328125 48.984375 C 129.800781 48.742188 130.308594 48.511719 130.847656 48.289062 C 131.386719 48.066406 131.953125 47.851562 132.554688 47.648438 C 133.15625 47.445312 133.785156 47.253906 134.441406 47.070312 C 135.097656 46.886719 135.777344 46.714844 136.484375 46.554688 C 137.191406 46.394531 137.917969 46.246094 138.667969 46.113281 C 139.417969 45.976562 140.183594 45.851562 140.96875 45.742188 C 141.753906 45.632812 142.550781 45.535156 143.363281 45.453125 C 144.175781 45.367188 145 45.296875 145.832031 45.242188 C 146.667969 45.183594 147.503906 45.144531 148.351562 45.113281 C 149.195312 45.085938 150.042969 45.074219 150.894531 45.074219 C 151.742188 45.074219 152.589844 45.085938 153.433594 45.113281 C 154.28125 45.144531 155.117188 45.183594 155.953125 45.242188 C 156.785156 45.296875 157.609375 45.367188 158.421875 45.453125 C 159.234375 45.535156 160.03125 45.632812 160.816406 45.742188 C 161.601562 45.851562 162.367188 45.976562 163.117188 46.113281 C 163.867188 46.246094 164.59375 46.394531 165.300781 46.554688 C 166.007812 46.714844 166.6875 46.886719 167.34375 47.070312 C 168 47.253906 168.628906 47.445312 169.230469 47.648438 C 169.832031 47.851562 170.402344 48.066406 170.941406 48.289062 C 171.476562 48.511719 171.984375 48.742188 172.457031 48.984375 C 172.925781 49.222656 173.363281 49.46875 173.765625 49.722656 C 174.164062 49.976562 174.527344 50.238281 174.851562 50.503906 C 175.175781 50.769531 175.460938 51.042969 175.710938 51.316406 C 175.957031 51.59375 176.160156 51.871094 176.328125 52.15625 C 176.492188 52.4375 176.617188 52.722656 176.703125 53.007812 C 176.785156 53.296875 176.824219 53.582031 176.824219 53.871094 Z M 176.824219 53.871094 " fill-opacity="1" fill-rule="nonzero"/></g><path fill="#ffffff" d="M 168.671875 53.871094 C 168.671875 54.078125 168.558594 54.28125 168.332031 54.484375 C 168.105469 54.6875 167.765625 54.886719 167.320312 55.078125 C 166.875 55.269531 166.324219 55.449219 165.675781 55.621094 C 165.027344 55.792969 164.292969 55.953125 163.464844 56.097656 C 162.640625 56.246094 161.742188 56.375 160.769531 56.492188 C 159.800781 56.605469 158.777344 56.703125 157.695312 56.78125 C 156.617188 56.859375 155.507812 56.921875 154.363281 56.960938 C 153.214844 57 152.058594 57.023438 150.894531 57.023438 C 149.726562 57.023438 148.570312 57 147.425781 56.960938 C 146.277344 56.921875 145.167969 56.859375 144.089844 56.78125 C 143.007812 56.703125 141.984375 56.605469 141.015625 56.492188 C 140.042969 56.375 139.144531 56.246094 138.320312 56.097656 C 137.496094 55.953125 136.757812 55.792969 136.109375 55.621094 C 135.460938 55.449219 134.910156 55.269531 134.464844 55.078125 C 134.019531 54.886719 133.679688 54.6875 133.453125 54.484375 C 133.226562 54.28125 133.113281 54.078125 133.113281 53.871094 C 133.113281 53.664062 133.226562 53.460938 133.453125 53.257812 C 133.679688 53.054688 134.019531 52.855469 134.464844 52.664062 C 134.910156 52.476562 135.460938 52.292969 136.109375 52.121094 C 136.757812 51.949219 137.496094 51.789062 138.320312 51.644531 C 139.144531 51.496094 140.042969 51.367188 141.015625 51.253906 C 141.984375 51.136719 143.007812 51.039062 144.089844 50.960938 C 145.167969 50.882812 146.277344 50.820312 147.425781 50.78125 C 148.570312 50.742188 149.726562 50.722656 150.894531 50.722656 C 152.058594 50.722656 153.214844 50.742188 154.363281 50.78125 C 155.507812 50.820312 156.617188 50.882812 157.695312 50.960938 C 158.777344 51.039062 159.800781 51.136719 160.769531 51.253906 C 161.742188 51.367188 162.640625 51.496094 163.464844 51.644531 C 164.292969 51.789062 165.027344 51.949219 165.675781 52.121094 C 166.324219 52.292969 166.875 52.476562 167.320312 52.664062 C 167.765625 52.855469 168.105469 53.054688 168.332031 53.257812 C 168.558594 53.460938 168.671875 53.664062 168.671875 53.871094 Z M 168.671875 53.871094 " fill-opacity="1" fill-rule="nonzero"/><g clip-path="url(#6950e6819b)"><path fill="#5955a1" d="M 147.277344 71.683594 C 140.746094 71.402344 130.121094 69.953125 124.90625 66.113281 L 124.90625 62.019531 C 125.664062 65.035156 134.496094 68.492188 147.394531 69.023438 C 147.570312 69.03125 147.738281 69.074219 147.898438 69.148438 C 148.058594 69.222656 148.199219 69.324219 148.316406 69.457031 C 148.4375 69.585938 148.527344 69.734375 148.585938 69.898438 C 148.648438 70.066406 148.671875 70.238281 148.664062 70.414062 C 148.65625 70.589844 148.617188 70.757812 148.542969 70.917969 C 148.464844 71.078125 148.363281 71.214844 148.234375 71.335938 C 148.101562 71.453125 147.953125 71.542969 147.789062 71.605469 C 147.621094 71.664062 147.453125 71.691406 147.277344 71.683594 Z M 147.277344 71.683594 " fill-opacity="1" fill-rule="nonzero"/></g><g clip-path="url(#d7e0d63171)"><path fill="#5955a1" d="M 147.277344 86.847656 C 140.757812 86.566406 130.132812 85.160156 124.90625 81.292969 L 124.90625 77.183594 C 125.609375 80.203125 134.441406 83.632812 147.34375 84.1875 C 147.519531 84.195312 147.6875 84.230469 147.847656 84.304688 C 148.007812 84.375 148.148438 84.476562 148.273438 84.601562 C 148.394531 84.730469 148.484375 84.875 148.550781 85.039062 C 148.613281 85.207031 148.640625 85.375 148.636719 85.550781 C 148.632812 85.726562 148.59375 85.894531 148.523438 86.058594 C 148.453125 86.21875 148.351562 86.359375 148.226562 86.480469 C 148.097656 86.601562 147.949219 86.695312 147.785156 86.757812 C 147.621094 86.820312 147.453125 86.851562 147.277344 86.847656 Z M 147.277344 86.847656 " fill-opacity="1" fill-rule="nonzero"/></g><g clip-path="url(#054afe3690)"><path fill="#5955a1" d="M 147.277344 102.027344 C 140.757812 101.71875 130.09375 100.3125 124.90625 96.402344 L 124.90625 92.417969 C 125.609375 95.421875 134.441406 98.863281 147.34375 99.421875 C 147.652344 99.492188 147.902344 99.652344 148.097656 99.902344 C 148.289062 100.152344 148.382812 100.433594 148.375 100.75 C 148.367188 101.066406 148.261719 101.34375 148.054688 101.585938 C 147.847656 101.824219 147.585938 101.972656 147.277344 102.027344 Z M 147.277344 102.027344 " fill-opacity="1" fill-rule="nonzero"/></g><g clip-path="url(#2d7abc5659)"><path fill="#5955a1" d="M 147.277344 117.191406 C 138.566406 116.804688 129.386719 115.011719 124.90625 111.636719 L 124.90625 107.527344 C 125.609375 110.546875 134.441406 113.976562 147.34375 114.535156 C 147.519531 114.539062 147.6875 114.574219 147.847656 114.648438 C 148.007812 114.71875 148.148438 114.820312 148.273438 114.945312 C 148.394531 115.074219 148.484375 115.21875 148.550781 115.386719 C 148.613281 115.550781 148.640625 115.71875 148.636719 115.894531 C 148.632812 116.070312 148.59375 116.242188 148.523438 116.402344 C 148.453125 116.5625 148.351562 116.703125 148.226562 116.824219 C 148.097656 116.945312 147.949219 117.039062 147.785156 117.101562 C 147.621094 117.167969 147.453125 117.195312 147.277344 117.191406 Z M 147.277344 117.191406 " fill-opacity="1" fill-rule="nonzero"/></g><g clip-path="url(#81a1c348a3)"><path fill="#5955a1" d="M 213.34375 110.027344 L 213.34375 125.3125 C 213.34375 130.164062 201.734375 134.113281 187.414062 134.113281 C 173.089844 134.113281 161.480469 130.125 161.480469 125.3125 L 161.480469 110.027344 Z M 213.34375 110.027344 " fill-opacity="1" fill-rule="nonzero"/></g><path fill="#90a5d8" d="M 213.34375 110.027344 L 213.34375 113.683594 C 213.34375 118.546875 201.734375 122.480469 187.414062 122.480469 C 173.089844 122.480469 161.480469 118.496094 161.480469 113.683594 L 161.480469 110.027344 C 161.480469 114.890625 173.089844 118.828125 187.414062 118.828125 C 201.734375 118.828125 213.34375 114.890625 213.34375 110.027344 Z M 213.34375 110.027344 " fill-opacity="1" fill-rule="nonzero"/><g clip-path="url(#a4fd1ff15b)"><path fill="#45467e" d="M 184.246094 118.761719 L 184.246094 134.046875 C 171.453125 133.515625 161.480469 129.804688 161.480469 125.3125 L 161.480469 110.027344 C 161.480469 114.535156 171.414062 118.230469 184.246094 118.761719 Z M 184.246094 118.761719 " fill-opacity="1" fill-rule="nonzero"/></g><path fill="#7282bf" d="M 213.34375 94.742188 L 213.34375 110.027344 C 213.34375 114.890625 201.734375 118.828125 187.414062 118.828125 C 173.089844 118.828125 161.480469 114.839844 161.480469 110.027344 L 161.480469 94.742188 Z M 213.34375 94.742188 " fill-opacity="1" fill-rule="nonzero"/><path fill="#90a5d8" d="M 213.34375 94.742188 L 213.34375 98.398438 C 213.34375 103.261719 201.734375 107.195312 187.414062 107.195312 C 173.089844 107.195312 161.480469 103.210938 161.480469 98.398438 L 161.480469 94.742188 C 161.480469 99.605469 173.089844 103.542969 187.414062 103.542969 C 201.734375 103.542969 213.34375 99.605469 213.34375 94.742188 Z M 213.34375 94.742188 " fill-opacity="1" fill-rule="nonzero"/><path fill="#5955a1" d="M 213.34375 79.457031 L 213.34375 94.742188 C 213.34375 99.605469 201.734375 103.542969 187.414062 103.542969 C 173.089844 103.542969 161.480469 99.554688 161.480469 94.742188 L 161.480469 79.457031 Z M 213.34375 79.457031 " fill-opacity="1" fill-rule="nonzero"/><path fill="#90a5d8" d="M 213.34375 79.457031 L 213.34375 83.113281 C 213.34375 87.976562 201.734375 91.910156 187.414062 91.910156 C 173.089844 91.910156 161.480469 87.925781 161.480469 83.113281 L 161.480469 79.457031 C 161.480469 84.320312 173.089844 88.257812 187.414062 88.257812 C 201.734375 88.257812 213.34375 84.320312 213.34375 79.457031 Z M 213.34375 79.457031 " fill-opacity="1" fill-rule="nonzero"/><path fill="#45467e" d="M 184.246094 88.191406 L 184.246094 103.476562 C 171.453125 102.945312 161.480469 99.234375 161.480469 94.742188 L 161.480469 79.457031 C 161.480469 83.964844 171.414062 87.660156 184.246094 88.191406 Z M 184.246094 88.191406 " fill-opacity="1" fill-rule="nonzero"/><path fill="#7282bf" d="M 213.34375 64.171875 L 213.34375 79.457031 C 213.34375 84.320312 201.734375 88.257812 187.414062 88.257812 C 173.089844 88.257812 161.480469 84.269531 161.480469 79.457031 L 161.480469 64.171875 Z M 213.34375 64.171875 " fill-opacity="1" fill-rule="nonzero"/><path fill="#90a5d8" d="M 213.34375 64.171875 L 213.34375 67.828125 C 213.34375 72.691406 201.734375 76.625 187.414062 76.625 C 173.089844 76.625 161.480469 72.640625 161.480469 67.828125 L 161.480469 64.171875 C 161.480469 69.035156 173.089844 72.972656 187.414062 72.972656 C 201.734375 72.972656 213.34375 69.035156 213.34375 64.171875 Z M 213.34375 64.171875 " fill-opacity="1" fill-rule="nonzero"/><path fill="#5955a1" d="M 213.34375 48.886719 L 213.34375 64.171875 C 213.34375 69.035156 201.734375 72.984375 187.414062 72.984375 C 173.089844 72.984375 161.480469 68.996094 161.480469 64.171875 L 161.480469 48.886719 Z M 213.34375 48.886719 " fill-opacity="1" fill-rule="nonzero"/><path fill="#90a5d8" d="M 213.34375 48.886719 L 213.34375 52.542969 C 213.34375 57.40625 201.734375 61.339844 187.414062 61.339844 C 173.089844 61.339844 161.480469 57.355469 161.480469 52.542969 L 161.480469 48.886719 C 161.480469 53.75 173.089844 57.6875 187.414062 57.6875 C 201.734375 57.6875 213.34375 53.75 213.34375 48.886719 Z M 213.34375 48.886719 " fill-opacity="1" fill-rule="nonzero"/><path fill="#45467e" d="M 184.246094 57.621094 L 184.246094 72.90625 C 171.453125 72.375 161.480469 68.664062 161.480469 64.171875 L 161.480469 48.886719 C 161.480469 53.394531 171.414062 57.089844 184.246094 57.621094 Z M 184.246094 57.621094 " fill-opacity="1" fill-rule="nonzero"/><path fill="#5e69a6" d="M 184.246094 72.90625 L 184.246094 88.191406 C 171.453125 87.660156 161.480469 83.949219 161.480469 79.457031 L 161.480469 64.171875 C 161.480469 68.679688 171.414062 72.375 184.246094 72.90625 Z M 184.246094 72.90625 " fill-opacity="1" fill-rule="nonzero"/><path fill="#5e69a6" d="M 184.246094 103.476562 L 184.246094 118.761719 C 171.453125 118.230469 161.480469 114.519531 161.480469 110.027344 L 161.480469 94.742188 C 161.480469 99.25 171.414062 102.945312 184.246094 103.476562 Z M 184.246094 103.476562 " fill-opacity="1" fill-rule="nonzero"/><path fill="#7282bf" d="M 213.34375 48.886719 C 213.34375 49.175781 213.304688 49.460938 213.21875 49.75 C 213.136719 50.035156 213.011719 50.320312 212.847656 50.605469 C 212.679688 50.886719 212.476562 51.164062 212.230469 51.441406 C 211.980469 51.71875 211.695312 51.988281 211.371094 52.253906 C 211.046875 52.519531 210.683594 52.78125 210.285156 53.035156 C 209.882812 53.289062 209.445312 53.535156 208.976562 53.777344 C 208.503906 54.015625 207.996094 54.246094 207.457031 54.46875 C 206.921875 54.691406 206.351562 54.90625 205.75 55.109375 C 205.148438 55.3125 204.519531 55.507812 203.863281 55.6875 C 203.207031 55.871094 202.527344 56.042969 201.820312 56.203125 C 201.113281 56.363281 200.386719 56.511719 199.636719 56.648438 C 198.886719 56.78125 198.121094 56.90625 197.335938 57.015625 C 196.550781 57.125 195.753906 57.222656 194.941406 57.308594 C 194.128906 57.390625 193.304688 57.460938 192.472656 57.515625 C 191.636719 57.574219 190.800781 57.617188 189.953125 57.644531 C 189.109375 57.671875 188.261719 57.6875 187.414062 57.6875 C 186.5625 57.6875 185.714844 57.671875 184.871094 57.644531 C 184.023438 57.617188 183.1875 57.574219 182.351562 57.515625 C 181.519531 57.460938 180.695312 57.390625 179.882812 57.308594 C 179.070312 57.222656 178.273438 57.125 177.488281 57.015625 C 176.703125 56.90625 175.9375 56.78125 175.1875 56.648438 C 174.4375 56.511719 173.710938 56.363281 173.003906 56.203125 C 172.296875 56.042969 171.617188 55.871094 170.960938 55.6875 C 170.304688 55.507812 169.675781 55.3125 169.074219 55.109375 C 168.472656 54.90625 167.902344 54.691406 167.367188 54.46875 C 166.828125 54.246094 166.320312 54.015625 165.847656 53.777344 C 165.378906 53.535156 164.941406 53.289062 164.542969 53.035156 C 164.140625 52.78125 163.777344 52.519531 163.453125 52.253906 C 163.128906 51.988281 162.84375 51.71875 162.59375 51.441406 C 162.347656 51.164062 162.144531 50.886719 161.976562 50.605469 C 161.8125 50.320312 161.6875 50.035156 161.605469 49.75 C 161.519531 49.460938 161.480469 49.175781 161.480469 48.886719 C 161.480469 48.597656 161.519531 48.3125 161.605469 48.023438 C 161.6875 47.738281 161.8125 47.453125 161.976562 47.171875 C 162.144531 46.886719 162.347656 46.609375 162.59375 46.332031 C 162.84375 46.058594 163.128906 45.785156 163.453125 45.519531 C 163.777344 45.253906 164.140625 44.992188 164.542969 44.738281 C 164.941406 44.484375 165.378906 44.238281 165.847656 44 C 166.320312 43.757812 166.828125 43.527344 167.367188 43.304688 C 167.902344 43.082031 168.472656 42.871094 169.074219 42.664062 C 169.675781 42.460938 170.304688 42.269531 170.960938 42.085938 C 171.617188 41.902344 172.296875 41.730469 173.003906 41.570312 C 173.710938 41.410156 174.4375 41.261719 175.1875 41.128906 C 175.9375 40.992188 176.703125 40.867188 177.488281 40.757812 C 178.273438 40.648438 179.070312 40.550781 179.882812 40.46875 C 180.695312 40.382812 181.519531 40.3125 182.351562 40.257812 C 183.1875 40.199219 184.023438 40.160156 184.871094 40.128906 C 185.714844 40.101562 186.5625 40.089844 187.414062 40.089844 C 188.261719 40.089844 189.109375 40.101562 189.953125 40.128906 C 190.800781 40.160156 191.636719 40.199219 192.472656 40.257812 C 193.304688 40.3125 194.128906 40.382812 194.941406 40.46875 C 195.753906 40.550781 196.550781 40.648438 197.335938 40.757812 C 198.121094 40.867188 198.886719 40.992188 199.636719 41.128906 C 200.386719 41.261719 201.113281 41.410156 201.820312 41.570312 C 202.527344 41.730469 203.207031 41.902344 203.863281 42.085938 C 204.519531 42.269531 205.148438 42.460938 205.75 42.664062 C 206.351562 42.871094 206.921875 43.082031 207.457031 43.304688 C 207.996094 43.527344 208.503906 43.757812 208.976562 44 C 209.445312 44.238281 209.882812 44.484375 210.285156 44.738281 C 210.683594 44.992188 211.046875 45.253906 211.371094 45.519531 C 211.695312 45.785156 211.980469 46.058594 212.230469 46.332031 C 212.476562 46.609375 212.679688 46.886719 212.847656 47.171875 C 213.011719 47.453125 213.136719 47.738281 213.21875 48.023438 C 213.304688 48.3125 213.34375 48.597656 213.34375 48.886719 Z M 213.34375 48.886719 " fill-opacity="1" fill-rule="nonzero"/><path fill="#9aa5e2" d="M 170.402344 49.964844 C 170.171875 49.886719 169.988281 49.75 169.847656 49.550781 C 169.707031 49.355469 169.636719 49.136719 169.636719 48.894531 C 169.636719 48.652344 169.707031 48.433594 169.847656 48.234375 C 169.988281 48.039062 170.171875 47.902344 170.402344 47.824219 C 179.578125 44.605469 195.21875 44.59375 204.421875 47.824219 C 204.652344 47.902344 204.835938 48.039062 204.976562 48.234375 C 205.117188 48.433594 205.1875 48.652344 205.1875 48.894531 C 205.1875 49.136719 205.117188 49.355469 204.976562 49.550781 C 204.835938 49.75 204.652344 49.886719 204.421875 49.964844 C 195.246094 53.179688 179.605469 53.195312 170.402344 49.964844 Z M 170.402344 49.964844 " fill-opacity="1" fill-rule="nonzero"/><path fill="#ffffff" d="M 213.34375 57.113281 L 213.34375 61.101562 C 207.480469 65.488281 194.886719 66.710938 187.414062 66.710938 C 187.234375 66.710938 187.066406 66.675781 186.902344 66.609375 C 186.742188 66.542969 186.597656 66.445312 186.472656 66.320312 C 186.347656 66.195312 186.25 66.054688 186.183594 65.890625 C 186.117188 65.726562 186.082031 65.558594 186.082031 65.382812 C 186.082031 65.207031 186.117188 65.035156 186.183594 64.875 C 186.25 64.710938 186.347656 64.566406 186.472656 64.441406 C 186.597656 64.316406 186.742188 64.222656 186.902344 64.152344 C 187.066406 64.085938 187.234375 64.050781 187.414062 64.050781 C 202.746094 64.117188 212.441406 60.183594 213.34375 57.113281 Z M 213.34375 57.113281 " fill-opacity="1" fill-rule="nonzero"/><path fill="#ffffff" d="M 213.34375 72.28125 L 213.34375 76.265625 C 207.558594 80.613281 195.007812 81.890625 187.414062 81.890625 C 187.234375 81.890625 187.066406 81.855469 186.902344 81.789062 C 186.742188 81.722656 186.597656 81.625 186.472656 81.5 C 186.347656 81.375 186.25 81.230469 186.183594 81.070312 C 186.117188 80.90625 186.082031 80.738281 186.082031 80.5625 C 186.082031 80.382812 186.117188 80.214844 186.183594 80.050781 C 186.25 79.890625 186.347656 79.746094 186.472656 79.621094 C 186.597656 79.496094 186.742188 79.398438 186.902344 79.332031 C 187.066406 79.265625 187.234375 79.230469 187.414062 79.230469 C 202.746094 79.296875 212.441406 75.351562 213.34375 72.28125 Z M 213.34375 72.28125 " fill-opacity="1" fill-rule="nonzero"/><path fill="#ffffff" d="M 213.34375 87.457031 L 213.34375 91.445312 C 207.546875 95.871094 194.886719 97.121094 187.414062 97.121094 C 187.234375 97.121094 187.066406 97.089844 186.902344 97.019531 C 186.742188 96.953125 186.597656 96.855469 186.472656 96.734375 C 186.347656 96.609375 186.25 96.464844 186.183594 96.300781 C 186.117188 96.136719 186.082031 95.96875 186.082031 95.792969 C 186.082031 95.617188 186.117188 95.445312 186.183594 95.285156 C 186.25 95.121094 186.347656 94.976562 186.472656 94.851562 C 186.597656 94.726562 186.742188 94.632812 186.902344 94.566406 C 187.066406 94.496094 187.234375 94.464844 187.414062 94.464844 C 202.746094 94.464844 212.441406 90.527344 213.34375 87.457031 Z M 213.34375 87.457031 " fill-opacity="1" fill-rule="nonzero"/><path fill="#ffffff" d="M 213.34375 102.625 L 213.34375 106.679688 C 207.507812 111.023438 194.871094 112.355469 187.414062 112.355469 C 187.234375 112.355469 187.066406 112.320312 186.902344 112.253906 C 186.742188 112.183594 186.597656 112.089844 186.472656 111.964844 C 186.347656 111.839844 186.25 111.695312 186.183594 111.535156 C 186.117188 111.371094 186.082031 111.199219 186.082031 111.023438 C 186.082031 110.847656 186.117188 110.679688 186.183594 110.515625 C 186.25 110.351562 186.347656 110.210938 186.472656 110.085938 C 186.597656 109.960938 186.742188 109.863281 186.902344 109.796875 C 187.066406 109.730469 187.234375 109.695312 187.414062 109.695312 C 202.746094 109.695312 212.441406 105.707031 213.34375 102.625 Z M 213.34375 102.625 " fill-opacity="1" fill-rule="nonzero"/><path fill="#ffffff" d="M 213.34375 117.339844 L 213.34375 121.804688 C 208.476562 125.511719 197.707031 127.464844 187.414062 127.464844 C 187.234375 127.464844 187.066406 127.433594 186.902344 127.363281 C 186.742188 127.296875 186.597656 127.203125 186.472656 127.078125 C 186.347656 126.953125 186.25 126.808594 186.183594 126.644531 C 186.117188 126.484375 186.082031 126.3125 186.082031 126.136719 C 186.082031 125.960938 186.117188 125.792969 186.183594 125.628906 C 186.25 125.464844 186.347656 125.320312 186.472656 125.195312 C 186.597656 125.074219 186.742188 124.976562 186.902344 124.910156 C 187.066406 124.839844 187.234375 124.808594 187.414062 124.808594 C 203.476562 124.808594 213.34375 120.449219 213.34375 117.339844 Z M 213.34375 117.339844 " fill-opacity="1" fill-rule="nonzero"/><path fill="#aed8ff" d="M 166.917969 78.539062 C 166.734375 78.539062 166.558594 78.5 166.386719 78.433594 C 165.664062 78.121094 164.964844 77.769531 164.285156 77.371094 C 164.140625 77.277344 164.019531 77.164062 163.917969 77.023438 C 163.816406 76.882812 163.746094 76.730469 163.707031 76.566406 C 163.664062 76.398438 163.65625 76.230469 163.683594 76.0625 C 163.707031 75.890625 163.761719 75.730469 163.847656 75.582031 C 163.933594 75.433594 164.042969 75.308594 164.179688 75.203125 C 164.3125 75.097656 164.464844 75.019531 164.628906 74.972656 C 164.792969 74.925781 164.960938 74.910156 165.132812 74.925781 C 165.300781 74.945312 165.464844 74.992188 165.613281 75.070312 C 166.203125 75.417969 166.8125 75.726562 167.4375 76 C 167.71875 76.128906 167.929688 76.332031 168.070312 76.609375 C 168.210938 76.882812 168.25 77.175781 168.1875 77.476562 C 168.128906 77.78125 167.976562 78.03125 167.738281 78.230469 C 167.5 78.429688 167.226562 78.53125 166.917969 78.539062 Z M 166.917969 78.539062 " fill-opacity="1" fill-rule="nonzero"/><path fill="#aed8ff" d="M 172.863281 80.453125 C 171.964844 80.28125 171.078125 80.058594 170.203125 79.789062 C 170.035156 79.738281 169.878906 79.660156 169.742188 79.550781 C 169.605469 79.441406 169.496094 79.308594 169.410156 79.152344 C 169.324219 79 169.273438 78.832031 169.253906 78.660156 C 169.234375 78.484375 169.25 78.3125 169.300781 78.140625 C 169.351562 77.972656 169.429688 77.820312 169.539062 77.683594 C 169.648438 77.546875 169.78125 77.433594 169.9375 77.347656 C 170.089844 77.265625 170.257812 77.210938 170.429688 77.191406 C 170.605469 77.171875 170.777344 77.1875 170.949219 77.238281 C 171.667969 77.449219 172.410156 77.648438 173.195312 77.824219 C 173.359375 77.855469 173.515625 77.914062 173.65625 78.007812 C 173.800781 78.097656 173.921875 78.210938 174.019531 78.347656 C 174.117188 78.484375 174.1875 78.632812 174.230469 78.796875 C 174.273438 78.960938 174.285156 79.125 174.261719 79.292969 C 174.242188 79.460938 174.191406 79.617188 174.109375 79.765625 C 174.027344 79.914062 173.921875 80.042969 173.792969 80.152344 C 173.660156 80.257812 173.515625 80.339844 173.355469 80.390625 C 173.195312 80.441406 173.03125 80.464844 172.863281 80.453125 Z M 172.863281 80.453125 " fill-opacity="1" fill-rule="nonzero"/><path fill="#aed8ff" d="M 179.84375 81.570312 C 179.527344 81.570312 177.519531 81.304688 177 81.226562 C 176.824219 81.199219 176.65625 81.140625 176.503906 81.050781 C 176.351562 80.960938 176.222656 80.84375 176.113281 80.699219 C 176.007812 80.558594 175.933594 80.398438 175.890625 80.226562 C 175.84375 80.054688 175.835938 79.878906 175.863281 79.703125 C 175.886719 79.527344 175.945312 79.363281 176.035156 79.210938 C 176.128906 79.054688 176.246094 78.925781 176.386719 78.820312 C 176.53125 78.714844 176.6875 78.636719 176.859375 78.59375 C 177.035156 78.550781 177.207031 78.542969 177.382812 78.566406 C 178.234375 78.6875 179.101562 78.804688 180.042969 78.886719 C 180.222656 78.894531 180.386719 78.9375 180.546875 79.015625 C 180.707031 79.089844 180.84375 79.195312 180.964844 79.328125 C 181.082031 79.457031 181.167969 79.605469 181.226562 79.773438 C 181.285156 79.941406 181.3125 80.113281 181.300781 80.289062 C 181.292969 80.464844 181.25 80.632812 181.171875 80.792969 C 181.09375 80.949219 180.992188 81.089844 180.859375 81.207031 C 180.726562 81.324219 180.578125 81.414062 180.414062 81.472656 C 180.246094 81.53125 180.074219 81.554688 179.898438 81.542969 Z M 179.84375 81.570312 " fill-opacity="1" fill-rule="nonzero"/><path fill="#aed8ff" d="M 166.917969 93.824219 C 166.734375 93.824219 166.554688 93.78125 166.386719 93.707031 C 165.664062 93.394531 164.964844 93.039062 164.285156 92.640625 C 164.132812 92.554688 164.003906 92.441406 163.898438 92.300781 C 163.792969 92.160156 163.71875 92.007812 163.671875 91.835938 C 163.628906 91.667969 163.617188 91.496094 163.640625 91.324219 C 163.664062 91.148438 163.71875 90.988281 163.804688 90.835938 C 163.894531 90.683594 164.011719 90.550781 164.152344 90.445312 C 164.292969 90.339844 164.445312 90.261719 164.617188 90.21875 C 164.789062 90.171875 164.960938 90.164062 165.136719 90.1875 C 165.3125 90.210938 165.476562 90.265625 165.628906 90.355469 C 166.21875 90.695312 166.824219 91.003906 167.449219 91.273438 C 167.742188 91.398438 167.960938 91.601562 168.109375 91.882812 C 168.253906 92.160156 168.296875 92.457031 168.230469 92.765625 C 168.167969 93.078125 168.011719 93.332031 167.765625 93.53125 C 167.515625 93.730469 167.234375 93.828125 166.917969 93.824219 Z M 166.917969 93.824219 " fill-opacity="1" fill-rule="nonzero"/><path fill="#aed8ff" d="M 172.863281 95.710938 C 171.9375 95.550781 171.023438 95.339844 170.125 95.074219 C 169.953125 95.027344 169.800781 94.945312 169.664062 94.835938 C 169.523438 94.726562 169.414062 94.59375 169.328125 94.4375 C 169.242188 94.285156 169.191406 94.117188 169.171875 93.941406 C 169.152344 93.769531 169.167969 93.59375 169.21875 93.425781 C 169.265625 93.257812 169.347656 93.105469 169.457031 92.964844 C 169.566406 92.828125 169.699219 92.71875 169.855469 92.632812 C 170.011719 92.546875 170.175781 92.496094 170.351562 92.476562 C 170.527344 92.457031 170.699219 92.472656 170.867188 92.523438 C 171.585938 92.722656 172.332031 92.921875 173.117188 93.109375 C 173.425781 93.195312 173.671875 93.371094 173.855469 93.636719 C 174.035156 93.902344 174.113281 94.195312 174.082031 94.515625 C 174.050781 94.835938 173.917969 95.109375 173.691406 95.335938 C 173.460938 95.5625 173.183594 95.6875 172.863281 95.710938 Z M 172.863281 95.710938 " fill-opacity="1" fill-rule="nonzero"/><path fill="#aed8ff" d="M 179.84375 96.84375 C 179.527344 96.84375 177.519531 96.578125 177 96.511719 C 176.824219 96.484375 176.65625 96.425781 176.503906 96.335938 C 176.351562 96.246094 176.222656 96.128906 176.113281 95.984375 C 176.007812 95.84375 175.933594 95.683594 175.890625 95.511719 C 175.84375 95.339844 175.835938 95.164062 175.863281 94.988281 C 175.886719 94.8125 175.945312 94.648438 176.035156 94.496094 C 176.128906 94.339844 176.246094 94.210938 176.386719 94.105469 C 176.53125 94 176.6875 93.921875 176.859375 93.878906 C 177.035156 93.835938 177.207031 93.828125 177.382812 93.851562 C 178.234375 93.972656 179.101562 94.078125 180.042969 94.171875 C 180.222656 94.179688 180.386719 94.222656 180.546875 94.300781 C 180.707031 94.375 180.84375 94.480469 180.964844 94.613281 C 181.082031 94.742188 181.167969 94.890625 181.226562 95.058594 C 181.285156 95.226562 181.3125 95.398438 181.300781 95.574219 C 181.292969 95.75 181.25 95.917969 181.171875 96.078125 C 181.09375 96.234375 180.992188 96.375 180.859375 96.492188 C 180.726562 96.609375 180.578125 96.699219 180.414062 96.757812 C 180.246094 96.816406 180.074219 96.839844 179.898438 96.828125 Z M 179.84375 96.84375 " fill-opacity="1" fill-rule="nonzero"/><path fill="#aed8ff" d="M 166.917969 63.734375 C 166.734375 63.734375 166.554688 63.699219 166.386719 63.628906 C 165.664062 63.316406 164.964844 62.960938 164.285156 62.5625 C 164.113281 62.488281 163.964844 62.378906 163.839844 62.238281 C 163.714844 62.097656 163.625 61.9375 163.566406 61.757812 C 163.507812 61.578125 163.488281 61.394531 163.511719 61.210938 C 163.53125 61.023438 163.589844 60.847656 163.683594 60.683594 C 163.777344 60.523438 163.902344 60.386719 164.054688 60.277344 C 164.207031 60.164062 164.375 60.089844 164.558594 60.050781 C 164.742188 60.011719 164.925781 60.015625 165.109375 60.054688 C 165.292969 60.09375 165.460938 60.167969 165.613281 60.277344 C 166.160156 60.582031 166.773438 60.902344 167.4375 61.195312 C 167.71875 61.324219 167.929688 61.527344 168.070312 61.800781 C 168.210938 62.078125 168.25 62.367188 168.1875 62.671875 C 168.128906 62.972656 167.976562 63.226562 167.738281 63.425781 C 167.5 63.625 167.226562 63.726562 166.917969 63.734375 Z M 166.917969 63.734375 " fill-opacity="1" fill-rule="nonzero"/><path fill="#aed8ff" d="M 172.863281 65.632812 C 171.964844 65.460938 171.078125 65.238281 170.203125 64.96875 C 170.035156 64.921875 169.878906 64.839844 169.742188 64.730469 C 169.605469 64.621094 169.496094 64.488281 169.410156 64.332031 C 169.324219 64.179688 169.273438 64.011719 169.253906 63.839844 C 169.234375 63.664062 169.25 63.492188 169.296875 63.320312 C 169.347656 63.152344 169.429688 63 169.539062 62.863281 C 169.648438 62.722656 169.78125 62.613281 169.9375 62.527344 C 170.089844 62.445312 170.253906 62.390625 170.429688 62.371094 C 170.605469 62.351562 170.777344 62.367188 170.949219 62.417969 C 171.667969 62.628906 172.410156 62.828125 173.195312 63.003906 C 173.359375 63.035156 173.515625 63.097656 173.65625 63.1875 C 173.800781 63.277344 173.921875 63.390625 174.019531 63.527344 C 174.117188 63.664062 174.1875 63.8125 174.230469 63.976562 C 174.273438 64.140625 174.285156 64.308594 174.261719 64.472656 C 174.242188 64.640625 174.191406 64.800781 174.109375 64.945312 C 174.027344 65.09375 173.921875 65.222656 173.792969 65.332031 C 173.660156 65.4375 173.515625 65.519531 173.355469 65.570312 C 173.195312 65.625 173.03125 65.644531 172.863281 65.632812 Z M 172.863281 65.632812 " fill-opacity="1" fill-rule="nonzero"/><path fill="#aed8ff" d="M 179.84375 66.765625 C 179.527344 66.765625 177.519531 66.5 177 66.417969 C 176.824219 66.394531 176.65625 66.335938 176.503906 66.242188 C 176.351562 66.152344 176.222656 66.035156 176.113281 65.894531 C 176.007812 65.75 175.933594 65.59375 175.890625 65.421875 C 175.84375 65.246094 175.835938 65.074219 175.863281 64.898438 C 175.886719 64.71875 175.945312 64.554688 176.035156 64.402344 C 176.128906 64.25 176.246094 64.121094 176.386719 64.011719 C 176.53125 63.90625 176.6875 63.832031 176.859375 63.789062 C 177.035156 63.742188 177.207031 63.734375 177.382812 63.761719 C 178.234375 63.894531 179.101562 64 180.042969 64.09375 C 180.222656 64.101562 180.386719 64.144531 180.546875 64.222656 C 180.707031 64.296875 180.84375 64.402344 180.964844 64.535156 C 181.082031 64.664062 181.167969 64.8125 181.226562 64.980469 C 181.285156 65.148438 181.3125 65.320312 181.300781 65.496094 C 181.292969 65.671875 181.25 65.839844 181.171875 65.996094 C 181.09375 66.15625 180.992188 66.296875 180.859375 66.414062 C 180.726562 66.53125 180.578125 66.617188 180.414062 66.675781 C 180.246094 66.734375 180.074219 66.761719 179.898438 66.75 Z M 179.84375 66.765625 " fill-opacity="1" fill-rule="nonzero"/><path fill="#aed8ff" d="M 166.917969 109.097656 C 166.734375 109.097656 166.554688 109.0625 166.386719 108.992188 C 165.664062 108.675781 164.964844 108.320312 164.285156 107.925781 C 164.132812 107.839844 164.003906 107.722656 163.894531 107.582031 C 163.789062 107.441406 163.710938 107.289062 163.667969 107.117188 C 163.621094 106.945312 163.613281 106.773438 163.636719 106.597656 C 163.660156 106.421875 163.71875 106.257812 163.804688 106.105469 C 163.894531 105.953125 164.011719 105.824219 164.152344 105.71875 C 164.292969 105.609375 164.445312 105.535156 164.617188 105.488281 C 164.789062 105.445312 164.960938 105.433594 165.136719 105.457031 C 165.3125 105.480469 165.476562 105.539062 165.628906 105.628906 C 166.21875 105.972656 166.824219 106.285156 167.449219 106.558594 C 167.734375 106.6875 167.945312 106.890625 168.085938 107.167969 C 168.226562 107.445312 168.265625 107.738281 168.199219 108.039062 C 168.136719 108.34375 167.984375 108.597656 167.746094 108.792969 C 167.503906 108.992188 167.230469 109.09375 166.917969 109.097656 Z M 166.917969 109.097656 " fill-opacity="1" fill-rule="nonzero"/><path fill="#aed8ff" d="M 172.863281 111.023438 C 171.964844 110.851562 171.078125 110.628906 170.203125 110.359375 C 170.035156 110.3125 169.878906 110.230469 169.742188 110.121094 C 169.605469 110.011719 169.492188 109.878906 169.410156 109.722656 C 169.324219 109.570312 169.269531 109.402344 169.253906 109.226562 C 169.234375 109.054688 169.246094 108.878906 169.296875 108.710938 C 169.347656 108.542969 169.425781 108.386719 169.539062 108.25 C 169.648438 108.113281 169.78125 108.003906 169.933594 107.917969 C 170.089844 107.832031 170.253906 107.78125 170.429688 107.761719 C 170.605469 107.742188 170.777344 107.757812 170.949219 107.808594 C 171.667969 108.019531 172.410156 108.21875 173.195312 108.394531 C 173.359375 108.425781 173.515625 108.484375 173.65625 108.578125 C 173.800781 108.667969 173.921875 108.78125 174.019531 108.917969 C 174.117188 109.054688 174.1875 109.203125 174.230469 109.367188 C 174.273438 109.53125 174.285156 109.695312 174.261719 109.863281 C 174.242188 110.03125 174.191406 110.1875 174.109375 110.335938 C 174.027344 110.484375 173.921875 110.613281 173.792969 110.722656 C 173.660156 110.828125 173.515625 110.910156 173.355469 110.960938 C 173.195312 111.011719 173.03125 111.035156 172.863281 111.023438 Z M 172.863281 111.023438 " fill-opacity="1" fill-rule="nonzero"/><path fill="#aed8ff" d="M 179.84375 112.128906 C 179.527344 112.128906 177.519531 111.863281 177 111.78125 C 176.824219 111.757812 176.65625 111.699219 176.503906 111.605469 C 176.351562 111.515625 176.222656 111.398438 176.113281 111.257812 C 176.007812 111.113281 175.933594 110.957031 175.890625 110.785156 C 175.84375 110.609375 175.835938 110.4375 175.863281 110.261719 C 175.886719 110.085938 175.945312 109.917969 176.035156 109.765625 C 176.128906 109.613281 176.246094 109.484375 176.386719 109.375 C 176.53125 109.269531 176.6875 109.195312 176.859375 109.152344 C 177.035156 109.109375 177.207031 109.097656 177.382812 109.125 C 178.234375 109.257812 179.101562 109.363281 180.042969 109.457031 C 180.222656 109.464844 180.386719 109.507812 180.546875 109.585938 C 180.707031 109.660156 180.84375 109.765625 180.964844 109.898438 C 181.082031 110.027344 181.167969 110.175781 181.226562 110.34375 C 181.285156 110.511719 181.3125 110.683594 181.300781 110.859375 C 181.292969 111.035156 181.25 111.203125 181.171875 111.363281 C 181.09375 111.519531 180.992188 111.660156 180.859375 111.777344 C 180.726562 111.894531 180.578125 111.984375 180.414062 112.042969 C 180.246094 112.101562 180.074219 112.125 179.898438 112.113281 Z M 179.84375 112.128906 " fill-opacity="1" fill-rule="nonzero"/><path fill="#aed8ff" d="M 166.917969 124.382812 C 166.734375 124.378906 166.554688 124.339844 166.386719 124.261719 C 165.628906 123.929688 164.921875 123.570312 164.285156 123.210938 C 164.125 123.128906 163.988281 123.015625 163.871094 122.875 C 163.757812 122.738281 163.675781 122.578125 163.625 122.40625 C 163.574219 122.230469 163.558594 122.054688 163.582031 121.875 C 163.601562 121.695312 163.660156 121.527344 163.75 121.371094 C 163.839844 121.214844 163.957031 121.082031 164.105469 120.972656 C 164.25 120.863281 164.410156 120.789062 164.585938 120.746094 C 164.761719 120.699219 164.9375 120.695312 165.117188 120.722656 C 165.296875 120.753906 165.460938 120.816406 165.613281 120.914062 C 166.203125 121.253906 166.8125 121.558594 167.4375 121.832031 C 167.726562 121.953125 167.945312 122.15625 168.09375 122.433594 C 168.238281 122.714844 168.28125 123.007812 168.21875 123.316406 C 168.15625 123.628906 168.003906 123.882812 167.757812 124.082031 C 167.515625 124.28125 167.234375 124.382812 166.917969 124.382812 Z M 166.917969 124.382812 " fill-opacity="1" fill-rule="nonzero"/><path fill="#aed8ff" d="M 172.863281 126.269531 C 171.9375 126.113281 171.023438 125.90625 170.125 125.644531 C 169.953125 125.597656 169.800781 125.515625 169.664062 125.40625 C 169.523438 125.296875 169.414062 125.164062 169.328125 125.007812 C 169.242188 124.855469 169.191406 124.6875 169.171875 124.511719 C 169.152344 124.339844 169.167969 124.164062 169.21875 123.996094 C 169.265625 123.828125 169.347656 123.671875 169.457031 123.535156 C 169.566406 123.398438 169.699219 123.289062 169.855469 123.203125 C 170.011719 123.117188 170.175781 123.066406 170.351562 123.046875 C 170.527344 123.027344 170.699219 123.042969 170.867188 123.09375 C 171.585938 123.292969 172.332031 123.492188 173.117188 123.679688 C 173.417969 123.769531 173.65625 123.949219 173.832031 124.210938 C 174.003906 124.472656 174.078125 124.761719 174.046875 125.078125 C 174.015625 125.390625 173.890625 125.660156 173.667969 125.882812 C 173.445312 126.109375 173.175781 126.238281 172.863281 126.269531 Z M 172.863281 126.269531 " fill-opacity="1" fill-rule="nonzero"/><path fill="#aed8ff" d="M 179.84375 127.414062 C 179.527344 127.414062 177.519531 127.148438 177 127.066406 C 176.824219 127.042969 176.65625 126.984375 176.503906 126.890625 C 176.351562 126.800781 176.222656 126.683594 176.113281 126.542969 C 176.007812 126.398438 175.933594 126.242188 175.890625 126.070312 C 175.84375 125.894531 175.835938 125.722656 175.863281 125.546875 C 175.886719 125.371094 175.945312 125.203125 176.035156 125.050781 C 176.128906 124.898438 176.246094 124.769531 176.386719 124.660156 C 176.53125 124.554688 176.6875 124.480469 176.859375 124.4375 C 177.035156 124.394531 177.207031 124.382812 177.382812 124.410156 C 178.234375 124.527344 179.101562 124.636719 180.042969 124.726562 C 180.21875 124.738281 180.386719 124.78125 180.546875 124.859375 C 180.707031 124.933594 180.84375 125.039062 180.960938 125.167969 C 181.078125 125.300781 181.167969 125.449219 181.226562 125.617188 C 181.285156 125.78125 181.308594 125.953125 181.300781 126.128906 C 181.289062 126.304688 181.246094 126.472656 181.167969 126.632812 C 181.09375 126.792969 180.988281 126.929688 180.859375 127.046875 C 180.726562 127.164062 180.578125 127.253906 180.410156 127.3125 C 180.246094 127.371094 180.074219 127.394531 179.898438 127.386719 Z M 179.84375 127.414062 " fill-opacity="1" fill-rule="nonzero"/><g fill="#000000" fill-opacity="1"><g transform="translate(22.240493, 189.925894)"><g><path d="M 22.761719 0.808594 C 31.828125 0.808594 38.242188 -5.777344 38.242188 -15.191406 C 38.242188 -24.492188 31.828125 -31.136719 22.761719 -31.136719 C 19.003906 -31.136719 15.710938 -29.980469 13.171875 -27.960938 L 13.171875 -42.746094 L 4.390625 -42.746094 L 4.390625 0 L 10.917969 0 L 11.898438 -3.464844 C 14.613281 -0.75 18.371094 0.808594 22.761719 0.808594 Z M 12.824219 -15.191406 C 12.824219 -20.101562 16.289062 -23.625 21.199219 -23.625 C 26.167969 -23.625 29.578125 -20.101562 29.578125 -15.191406 C 29.578125 -10.226562 26.167969 -6.757812 21.199219 -6.757812 C 16.289062 -6.757812 12.824219 -10.226562 12.824219 -15.191406 Z M 12.824219 -15.191406 "/></g></g></g><g fill="#000000" fill-opacity="1"><g transform="translate(62.151172, 189.925894)"><g><path d="M 4.390625 0 L 13.171875 0 L 13.171875 -42.746094 L 4.390625 -42.746094 Z M 4.390625 0 "/></g></g></g><g fill="#000000" fill-opacity="1"><g transform="translate(79.131907, 189.925894)"><g><path d="M 19.292969 0.808594 C 29.347656 0.808594 36.277344 -5.71875 36.277344 -15.191406 C 36.277344 -24.609375 29.347656 -31.136719 19.292969 -31.136719 C 9.183594 -31.136719 2.253906 -24.609375 2.253906 -15.191406 C 2.253906 -5.71875 9.183594 0.808594 19.292969 0.808594 Z M 10.917969 -15.191406 C 10.917969 -20.160156 14.382812 -23.625 19.292969 -23.625 C 24.203125 -23.625 27.613281 -20.160156 27.613281 -15.191406 C 27.613281 -10.226562 24.203125 -6.757812 19.292969 -6.757812 C 14.382812 -6.757812 10.917969 -10.226562 10.917969 -15.191406 Z M 10.917969 -15.191406 "/></g></g></g><g fill="#000000" fill-opacity="1"><g transform="translate(117.078804, 189.925894)"><g><path d="M 19.179688 12.824219 C 28.882812 12.824219 35.066406 7.394531 35.066406 -1.675781 L 35.066406 -30.328125 L 28.535156 -30.328125 L 27.613281 -26.976562 C 24.957031 -29.632812 21.257812 -31.136719 16.925781 -31.136719 C 8.375 -31.136719 2.253906 -24.839844 2.253906 -16 C 2.253906 -7.105469 8.375 -0.808594 16.925781 -0.808594 C 20.566406 -0.808594 23.800781 -1.90625 26.285156 -3.8125 L 26.285156 -1.675781 C 26.285156 3.234375 23.800781 5.71875 19.003906 5.71875 C 15.367188 5.71875 12.941406 4.21875 12.304688 1.558594 L 3.753906 1.558594 C 4.503906 8.550781 10.398438 12.824219 19.179688 12.824219 Z M 10.917969 -16 C 10.917969 -20.621094 14.152344 -23.859375 18.773438 -23.859375 C 23.394531 -23.859375 26.6875 -20.621094 26.6875 -16 C 26.6875 -11.324219 23.394531 -8.085938 18.773438 -8.085938 C 14.152344 -8.085938 10.917969 -11.324219 10.917969 -16 Z M 10.917969 -16 "/></g></g></g><g fill="#000000" fill-opacity="1"><g transform="translate(157.507333, 190.003393)"><g><path d="M 1.964844 0 L 7.855469 0 L 12.996094 -6.816406 L 16.691406 -11.839844 L 20.332031 -6.816406 L 25.414062 0 L 31.304688 0 L 19.8125 -15.25 L 30.726562 -29.976562 L 24.953125 -29.976562 L 20.273438 -23.625 L 16.632812 -18.65625 L 13.054688 -23.625 L 8.375 -29.976562 L 2.542969 -29.976562 L 13.457031 -15.25 Z M 1.964844 0 "/></g></g></g><g fill="#000000" fill-opacity="1"><g transform="translate(190.249147, 190.003393)"><g><path d="M 21.71875 0.75 C 30.554688 0.75 36.964844 -5.890625 36.964844 -15.015625 C 36.964844 -24.085938 30.554688 -30.726562 21.71875 -30.726562 C 16.808594 -30.726562 12.648438 -28.707031 9.933594 -25.355469 L 9.355469 -29.976562 L 5.371094 -29.976562 L 5.371094 11.550781 L 10.222656 11.550781 L 10.222656 -4.273438 C 12.9375 -1.15625 16.980469 0.75 21.71875 0.75 Z M 10.050781 -15.015625 C 10.050781 -21.484375 14.613281 -26.105469 21.082031 -26.105469 C 27.609375 -26.105469 32.113281 -21.484375 32.113281 -15.015625 C 32.113281 -8.492188 27.609375 -3.925781 21.082031 -3.925781 C 14.613281 -3.925781 10.050781 -8.492188 10.050781 -15.015625 Z M 10.050781 -15.015625 "/></g></g></g><g fill="#000000" fill-opacity="1"><g transform="translate(229.631758, 190.003393)"><g><path d="M 5.371094 0 L 10.222656 0 L 10.222656 -13.917969 C 10.222656 -22.46875 14.496094 -25.472656 19.925781 -25.472656 L 22.871094 -25.472656 L 22.871094 -29.976562 L 20.15625 -29.976562 C 15.074219 -29.976562 12.070312 -28.359375 9.933594 -24.777344 L 9.355469 -29.976562 L 5.371094 -29.976562 Z M 5.371094 0 "/></g></g></g><g fill="#000000" fill-opacity="1"><g transform="translate(254.231357, 190.003393)"><g><path d="M 18.367188 0.75 C 25.125 0.75 30.671875 -2.886719 33.097656 -8.722656 L 27.609375 -8.722656 C 25.761719 -5.542969 22.351562 -3.8125 18.425781 -3.8125 C 12.707031 -3.8125 8.664062 -7.394531 7.914062 -13.054688 L 33.847656 -13.054688 C 34.191406 -23.507812 28.011719 -30.726562 18.425781 -30.726562 C 9.355469 -30.726562 3.003906 -24.257812 3.003906 -15.015625 C 3.003906 -5.71875 9.300781 0.75 18.367188 0.75 Z M 7.972656 -17.328125 C 8.835938 -22.640625 12.878906 -26.164062 18.425781 -26.164062 C 23.914062 -26.164062 27.957031 -22.816406 28.996094 -17.328125 Z M 7.972656 -17.328125 "/></g></g></g><g fill="#000000" fill-opacity="1"><g transform="translate(290.380187, 190.003393)"><g><path d="M 16.230469 0.75 C 23.625 0.75 28.417969 -2.65625 28.417969 -7.855469 C 28.417969 -12.535156 24.488281 -15.710938 16.921875 -17.210938 C 10.683594 -18.425781 8.546875 -19.636719 8.546875 -22.179688 C 8.546875 -24.835938 11.089844 -26.453125 15.421875 -26.453125 C 19.984375 -26.453125 22.699219 -24.664062 23.046875 -21.371094 L 27.839844 -21.371094 C 27.433594 -27.261719 22.757812 -30.726562 15.363281 -30.726562 C 8.144531 -30.726562 3.753906 -27.550781 3.753906 -22.179688 C 3.753906 -17.441406 7.394531 -14.554688 15.132812 -13.285156 C 20.964844 -12.300781 23.625 -10.683594 23.625 -7.972656 C 23.625 -5.257812 20.851562 -3.582031 16.289062 -3.582031 C 11.148438 -3.582031 8.085938 -5.777344 7.914062 -9.414062 L 3.117188 -9.414062 C 3.234375 -3.292969 8.375 0.75 16.230469 0.75 Z M 16.230469 0.75 "/></g></g></g><g fill="#000000" fill-opacity="1"><g transform="translate(321.331866, 190.003393)"><g><path d="M 16.230469 0.75 C 23.625 0.75 28.417969 -2.65625 28.417969 -7.855469 C 28.417969 -12.535156 24.488281 -15.710938 16.921875 -17.210938 C 10.683594 -18.425781 8.546875 -19.636719 8.546875 -22.179688 C 8.546875 -24.835938 11.089844 -26.453125 15.421875 -26.453125 C 19.984375 -26.453125 22.699219 -24.664062 23.046875 -21.371094 L 27.839844 -21.371094 C 27.433594 -27.261719 22.757812 -30.726562 15.363281 -30.726562 C 8.144531 -30.726562 3.753906 -27.550781 3.753906 -22.179688 C 3.753906 -17.441406 7.394531 -14.554688 15.132812 -13.285156 C 20.964844 -12.300781 23.625 -10.683594 23.625 -7.972656 C 23.625 -5.257812 20.851562 -3.582031 16.289062 -3.582031 C 11.148438 -3.582031 8.085938 -5.777344 7.914062 -9.414062 L 3.117188 -9.414062 C 3.234375 -3.292969 8.375 0.75 16.230469 0.75 Z M 16.230469 0.75 "/></g></g></g><g fill="#000000" fill-opacity="1"><g transform="translate(80.224032, 219.346234)"><g><path d="M 0.203125 0 L 1.324219 0 L 2.085938 -1.894531 L 6.152344 -1.894531 L 6.9375 0 L 8.046875 0 L 4.613281 -8.34375 L 3.636719 -8.34375 Z M 2.492188 -2.871094 L 4.125 -6.878906 L 5.757812 -2.871094 Z M 2.492188 -2.871094 "/></g></g></g><g fill="#000000" fill-opacity="1"><g transform="translate(98.008703, 219.346234)"><g><path d="M 4.910156 0.15625 C 6.9375 0.15625 8.582031 -1.074219 9.082031 -2.933594 L 7.972656 -2.933594 C 7.546875 -1.679688 6.367188 -0.894531 4.945312 -0.894531 C 3.085938 -0.894531 1.765625 -2.242188 1.765625 -4.171875 C 1.765625 -6.101562 3.085938 -7.449219 4.945312 -7.449219 C 6.328125 -7.449219 7.460938 -6.710938 7.890625 -5.507812 L 9.011719 -5.507812 C 8.464844 -7.34375 6.878906 -8.5 4.910156 -8.5 C 2.457031 -8.5 0.691406 -6.6875 0.691406 -4.171875 C 0.691406 -1.65625 2.457031 0.15625 4.910156 0.15625 Z M 4.910156 0.15625 "/></g></g></g><g fill="#000000" fill-opacity="1"><g transform="translate(117.271459, 219.346234)"><g><path d="M 3.230469 0 L 4.277344 0 L 4.277344 -7.34375 L 7.09375 -7.34375 L 7.09375 -8.34375 L 0.40625 -8.34375 L 0.40625 -7.34375 L 3.230469 -7.34375 Z M 3.230469 0 "/></g></g></g><g fill="#000000" fill-opacity="1"><g transform="translate(134.31709, 219.346234)"><g><path d="M 4.339844 0.144531 C 6.351562 0.144531 7.570312 -1.179688 7.570312 -3.398438 L 7.570312 -8.34375 L 6.519531 -8.34375 L 6.519531 -3.46875 C 6.519531 -1.765625 5.769531 -0.882812 4.339844 -0.882812 C 2.921875 -0.882812 2.15625 -1.765625 2.15625 -3.46875 L 2.15625 -8.34375 L 1.121094 -8.34375 L 1.121094 -3.398438 C 1.121094 -1.179688 2.324219 0.144531 4.339844 0.144531 Z M 4.339844 0.144531 "/></g></g></g><g fill="#000000" fill-opacity="1"><g transform="translate(152.5428, 219.346234)"><g><path d="M 3.992188 0.15625 C 5.816406 0.15625 6.996094 -0.738281 6.996094 -2.191406 C 6.996094 -3.421875 6.175781 -4.160156 4.039062 -4.683594 C 2.417969 -5.078125 1.882812 -5.507812 1.882812 -6.199219 C 1.882812 -6.996094 2.597656 -7.496094 3.789062 -7.496094 C 5.019531 -7.496094 5.78125 -6.878906 5.804688 -5.875 L 6.84375 -5.875 C 6.832031 -7.496094 5.660156 -8.5 3.789062 -8.5 C 1.964844 -8.5 0.8125 -7.605469 0.8125 -6.199219 C 0.8125 -4.910156 1.726562 -4.195312 3.777344 -3.707031 C 5.28125 -3.347656 5.914062 -2.933594 5.914062 -2.15625 C 5.914062 -1.335938 5.171875 -0.847656 3.992188 -0.847656 C 2.695312 -0.847656 1.789062 -1.488281 1.765625 -2.5625 L 0.714844 -2.5625 C 0.726562 -0.929688 2.003906 0.15625 3.992188 0.15625 Z M 3.992188 0.15625 "/></g></g></g><g fill="#000000" fill-opacity="1"><g transform="translate(169.791062, 219.346234)"><g/></g></g><g fill="#000000" fill-opacity="1"><g transform="translate(182.283227, 219.346234)"><g><path d="M 1.214844 0 L 4.101562 0 C 6.664062 0 8.378906 -1.703125 8.378906 -4.171875 C 8.378906 -6.640625 6.664062 -8.34375 4.101562 -8.34375 L 1.214844 -8.34375 Z M 2.265625 -1 L 2.265625 -7.34375 L 4.054688 -7.34375 C 5.996094 -7.34375 7.308594 -6.066406 7.308594 -4.171875 C 7.308594 -2.277344 6.007812 -1 4.101562 -1 Z M 2.265625 -1 "/></g></g></g><g fill="#000000" fill-opacity="1"><g transform="translate(200.890378, 219.346234)"><g><path d="M 1.214844 0 L 6.414062 0 L 6.414062 -0.976562 L 2.265625 -0.976562 L 2.265625 -3.765625 L 5.984375 -3.765625 L 5.984375 -4.730469 L 2.265625 -4.730469 L 2.265625 -7.367188 L 6.28125 -7.367188 L 6.28125 -8.34375 L 1.214844 -8.34375 Z M 1.214844 0 "/></g></g></g><g fill="#000000" fill-opacity="1"><g transform="translate(217.614169, 219.346234)"><g><path d="M 3.527344 0 L 4.503906 0 L 7.820312 -8.34375 L 6.710938 -8.34375 L 5.316406 -4.828125 L 4.015625 -1.515625 L 2.707031 -4.828125 L 1.324219 -8.34375 L 0.203125 -8.34375 Z M 3.527344 0 "/></g></g></g><g fill="#000000" fill-opacity="1"><g transform="translate(235.172355, 219.346234)"><g/></g></g><g fill="#000000" fill-opacity="1"><g transform="translate(247.664528, 219.346234)"><g><path d="M 2.933594 0 L 3.910156 0 L 6.414062 -6.757812 L 7.796875 -3.039062 L 8.929688 0 L 9.90625 0 L 12.625 -8.34375 L 11.527344 -8.34375 L 9.382812 -1.667969 L 6.914062 -8.34375 L 5.925781 -8.34375 L 3.457031 -1.679688 L 2.480469 -4.746094 L 1.324219 -8.34375 L 0.226562 -8.34375 Z M 2.933594 0 "/></g></g></g><g fill="#000000" fill-opacity="1"><g transform="translate(270.050351, 219.346234)"><g><path d="M 1.214844 0 L 6.414062 0 L 6.414062 -0.976562 L 2.265625 -0.976562 L 2.265625 -3.765625 L 5.984375 -3.765625 L 5.984375 -4.730469 L 2.265625 -4.730469 L 2.265625 -7.367188 L 6.28125 -7.367188 L 6.28125 -8.34375 L 1.214844 -8.34375 Z M 1.214844 0 "/></g></g></g><g fill="#000000" fill-opacity="1"><g transform="translate(286.774142, 219.346234)"><g><path d="M 1.214844 0 L 4.601562 0 C 6.28125 0 7.332031 -0.894531 7.332031 -2.335938 C 7.332031 -3.277344 6.867188 -3.980469 6.007812 -4.328125 C 6.6875 -4.671875 7.09375 -5.316406 7.09375 -6.125 C 7.09375 -7.472656 6.042969 -8.34375 4.445312 -8.34375 L 1.214844 -8.34375 Z M 2.265625 -0.976562 L 2.265625 -3.777344 L 4.566406 -3.777344 C 5.648438 -3.777344 6.257812 -3.265625 6.257812 -2.382812 C 6.257812 -1.488281 5.648438 -0.976562 4.578125 -0.976562 Z M 2.265625 -4.730469 L 2.265625 -7.367188 L 4.421875 -7.367188 C 5.433594 -7.367188 6.019531 -6.890625 6.019531 -6.042969 C 6.019531 -5.210938 5.449219 -4.730469 4.421875 -4.730469 Z M 2.265625 -4.730469 "/></g></g></g></svg>