<svg xmlns="http://www.w3.org/2000/svg" xmlns:xlink="http://www.w3.org/1999/xlink" width="500" zoomAndPan="magnify" viewBox="0 0 375 374.999991" height="500" preserveAspectRatio="xMidYMid meet" version="1.0"><defs><clipPath id="94f77bd05d"><path d="M 8.410156 8.410156 L 366.589844 8.410156 L 366.589844 366.589844 L 8.410156 366.589844 Z M 8.410156 8.410156 " clip-rule="nonzero"/></clipPath><clipPath id="3a2436d6da"><path d="M 187.5 8.410156 C 88.59375 8.410156 8.410156 88.59375 8.410156 187.5 C 8.410156 286.40625 88.59375 366.589844 187.5 366.589844 C 286.40625 366.589844 366.589844 286.40625 366.589844 187.5 C 366.589844 88.59375 286.40625 8.410156 187.5 8.410156 " clip-rule="nonzero"/></clipPath><clipPath id="d976448323"><path d="M 216 221 L 355.261719 221 L 355.261719 286 L 216 286 Z M 216 221 " clip-rule="nonzero"/></clipPath><clipPath id="e60c0a32db"><path d="M 216 180 L 355.261719 180 L 355.261719 246 L 216 246 Z M 216 180 " clip-rule="nonzero"/></clipPath><clipPath id="cb535a18b3"><path d="M 216 139 L 355.261719 139 L 355.261719 205 L 216 205 Z M 216 139 " clip-rule="nonzero"/></clipPath><clipPath id="79ee0a24d3"><path d="M 216 98 L 355.261719 98 L 355.261719 164 L 216 164 Z M 216 98 " clip-rule="nonzero"/></clipPath><clipPath id="ebccdaad6e"><path d="M 216 74 L 355.261719 74 L 355.261719 123 L 216 123 Z M 216 74 " clip-rule="nonzero"/></clipPath><clipPath id="52d67a52f2"><path d="M 20.011719 221 L 160 221 L 160 286 L 20.011719 286 Z M 20.011719 221 " clip-rule="nonzero"/></clipPath><clipPath id="23d8f85092"><path d="M 20.011719 180 L 160 180 L 160 246 L 20.011719 246 Z M 20.011719 180 " clip-rule="nonzero"/></clipPath><clipPath id="45a839d584"><path d="M 20.011719 139 L 160 139 L 160 205 L 20.011719 205 Z M 20.011719 139 " clip-rule="nonzero"/></clipPath><clipPath id="e1310d88da"><path d="M 20.011719 98 L 160 98 L 160 164 L 20.011719 164 Z M 20.011719 98 " clip-rule="nonzero"/></clipPath><clipPath id="470b3f66eb"><path d="M 20.011719 74 L 160 74 L 160 123 L 20.011719 123 Z M 20.011719 74 " clip-rule="nonzero"/></clipPath><clipPath id="cda98cbdff"><path d="M 20.011719 120 L 84 120 L 84 147 L 20.011719 147 Z M 20.011719 120 " clip-rule="nonzero"/></clipPath><clipPath id="2c795b6ca1"><path d="M 20.011719 161 L 84 161 L 84 187 L 20.011719 187 Z M 20.011719 161 " clip-rule="nonzero"/></clipPath><clipPath id="ae8d58934d"><path d="M 20.011719 201 L 83 201 L 83 228 L 20.011719 228 Z M 20.011719 201 " clip-rule="nonzero"/></clipPath><clipPath id="800ffef0c7"><path d="M 20.011719 242 L 84 242 L 84 269 L 20.011719 269 Z M 20.011719 242 " clip-rule="nonzero"/></clipPath><clipPath id="133babc40b"><path d="M 118 249 L 258 249 L 258 313.796875 L 118 313.796875 Z M 118 249 " clip-rule="nonzero"/></clipPath><clipPath id="e3ed6f4e71"><path d="M 118 249 L 180 249 L 180 313.796875 L 118 313.796875 Z M 118 249 " clip-rule="nonzero"/></clipPath><clipPath id="cb2dd11836"><path d="M 118 61.046875 L 258 61.046875 L 258 109 L 118 109 Z M 118 61.046875 " clip-rule="nonzero"/></clipPath></defs><g clip-path="url(#94f77bd05d)"><g clip-path="url(#3a2436d6da)"><path fill="#216be9" d="M 8.410156 8.410156 L 366.589844 8.410156 L 366.589844 366.589844 L 8.410156 366.589844 Z M 8.410156 8.410156 " fill-opacity="1" fill-rule="nonzero"/></g></g><g clip-path="url(#d976448323)"><path fill="#619fff" d="M 355.261719 221.433594 L 355.261719 262.386719 C 355.261719 275.386719 324.125 285.964844 285.714844 285.964844 C 247.304688 285.964844 216.167969 275.386719 216.167969 262.386719 L 216.167969 221.433594 Z M 355.261719 221.433594 " fill-opacity="1" fill-rule="nonzero"/></g><g clip-path="url(#e60c0a32db)"><path fill="#dbecff" d="M 355.261719 180.476562 L 355.261719 221.433594 C 355.261719 234.46875 324.125 245.007812 285.714844 245.007812 C 247.304688 245.007812 216.167969 234.46875 216.167969 221.433594 L 216.167969 180.476562 Z M 355.261719 180.476562 " fill-opacity="1" fill-rule="nonzero"/></g><g clip-path="url(#cb535a18b3)"><path fill="#619fff" d="M 355.261719 139.519531 L 355.261719 180.476562 C 355.261719 193.511719 324.125 204.054688 285.714844 204.054688 C 247.304688 204.054688 216.167969 193.511719 216.167969 180.476562 L 216.167969 139.519531 Z M 355.261719 139.519531 " fill-opacity="1" fill-rule="nonzero"/></g><g clip-path="url(#79ee0a24d3)"><path fill="#dbecff" d="M 355.261719 98.566406 L 355.261719 139.519531 C 355.261719 152.554688 324.125 163.132812 285.714844 163.132812 C 247.304688 163.132812 216.167969 152.554688 216.167969 139.519531 L 216.167969 98.566406 Z M 355.261719 98.566406 " fill-opacity="1" fill-rule="nonzero"/></g><path fill="#6177eb" d="M 278.582031 221.433594 L 216.167969 221.433594 L 216.167969 262.386719 C 216.167969 274.601562 243.59375 284.644531 278.691406 285.855469 Z M 278.582031 221.433594 " fill-opacity="1" fill-rule="nonzero"/><path fill="#b3bfff" d="M 278.582031 180.476562 L 216.167969 180.476562 L 216.167969 221.433594 C 216.167969 233.648438 243.59375 243.691406 278.691406 244.902344 Z M 278.582031 180.476562 " fill-opacity="1" fill-rule="nonzero"/><path fill="#6177eb" d="M 278.582031 139.519531 L 216.167969 139.519531 L 216.167969 180.476562 C 216.167969 192.691406 243.59375 202.769531 278.691406 203.945312 Z M 278.582031 139.519531 " fill-opacity="1" fill-rule="nonzero"/><path fill="#b3bfff" d="M 278.582031 98.566406 L 216.167969 98.566406 L 216.167969 139.519531 C 216.167969 151.773438 243.59375 161.816406 278.691406 162.992188 Z M 278.582031 98.566406 " fill-opacity="1" fill-rule="nonzero"/><g clip-path="url(#ebccdaad6e)"><path fill="#f9f6ff" d="M 355.121094 98.566406 C 355.121094 99.339844 355.007812 100.109375 354.785156 100.875 C 354.5625 101.644531 354.226562 102.40625 353.78125 103.164062 C 353.339844 103.921875 352.785156 104.671875 352.125 105.410156 C 351.464844 106.148438 350.695312 106.875 349.824219 107.589844 C 348.953125 108.300781 347.980469 109 346.90625 109.679688 C 345.832031 110.359375 344.664062 111.023438 343.398438 111.664062 C 342.132812 112.304688 340.777344 112.925781 339.332031 113.523438 C 337.886719 114.121094 336.359375 114.691406 334.75 115.238281 C 333.140625 115.78125 331.453125 116.300781 329.691406 116.789062 C 327.933594 117.28125 326.105469 117.738281 324.210938 118.167969 C 322.316406 118.597656 320.367188 118.996094 318.355469 119.359375 C 316.347656 119.722656 314.292969 120.050781 312.1875 120.347656 C 310.082031 120.644531 307.941406 120.902344 305.761719 121.125 C 303.582031 121.351562 301.375 121.539062 299.140625 121.6875 C 296.90625 121.839844 294.65625 121.953125 292.390625 122.027344 C 290.121094 122.105469 287.851562 122.140625 285.574219 122.140625 C 283.296875 122.140625 281.023438 122.105469 278.757812 122.027344 C 276.488281 121.953125 274.238281 121.839844 272.003906 121.6875 C 269.769531 121.539062 267.5625 121.351562 265.382812 121.125 C 263.203125 120.902344 261.0625 120.644531 258.957031 120.347656 C 256.855469 120.050781 254.796875 119.722656 252.789062 119.359375 C 250.78125 118.996094 248.828125 118.597656 246.933594 118.167969 C 245.039062 117.738281 243.214844 117.28125 241.453125 116.789062 C 239.691406 116.300781 238.007812 115.78125 236.394531 115.238281 C 234.785156 114.691406 233.257812 114.121094 231.8125 113.523438 C 230.367188 112.925781 229.011719 112.304688 227.746094 111.664062 C 226.480469 111.023438 225.3125 110.359375 224.238281 109.679688 C 223.164062 109 222.191406 108.300781 221.320312 107.589844 C 220.449219 106.875 219.683594 106.148438 219.019531 105.410156 C 218.359375 104.671875 217.808594 103.921875 217.363281 103.164062 C 216.917969 102.40625 216.585938 101.644531 216.359375 100.875 C 216.136719 100.109375 216.027344 99.339844 216.027344 98.566406 C 216.027344 97.792969 216.136719 97.023438 216.359375 96.253906 C 216.585938 95.488281 216.917969 94.722656 217.363281 93.964844 C 217.808594 93.210938 218.359375 92.460938 219.019531 91.722656 C 219.683594 90.984375 220.449219 90.257812 221.320312 89.542969 C 222.191406 88.832031 223.164062 88.132812 224.238281 87.453125 C 225.3125 86.769531 226.480469 86.109375 227.746094 85.46875 C 229.011719 84.824219 230.367188 84.207031 231.8125 83.609375 C 233.257812 83.011719 234.785156 82.441406 236.394531 81.894531 C 238.007812 81.347656 239.691406 80.832031 241.453125 80.339844 C 243.214844 79.851562 245.039062 79.390625 246.933594 78.964844 C 248.828125 78.535156 250.78125 78.136719 252.789062 77.773438 C 254.796875 77.410156 256.855469 77.078125 258.957031 76.785156 C 261.0625 76.488281 263.203125 76.230469 265.382812 76.003906 C 267.5625 75.78125 269.769531 75.59375 272.003906 75.441406 C 274.238281 75.292969 276.488281 75.179688 278.757812 75.101562 C 281.023438 75.027344 283.296875 74.988281 285.574219 74.988281 C 287.851562 74.988281 290.121094 75.027344 292.390625 75.101562 C 294.65625 75.179688 296.90625 75.292969 299.140625 75.441406 C 301.375 75.59375 303.582031 75.78125 305.761719 76.003906 C 307.941406 76.230469 310.082031 76.488281 312.1875 76.785156 C 314.292969 77.078125 316.347656 77.410156 318.355469 77.773438 C 320.367188 78.136719 322.316406 78.535156 324.210938 78.964844 C 326.105469 79.390625 327.933594 79.851562 329.691406 80.339844 C 331.453125 80.832031 333.140625 81.347656 334.75 81.894531 C 336.359375 82.441406 337.886719 83.011719 339.332031 83.609375 C 340.777344 84.207031 342.132812 84.824219 343.398438 85.46875 C 344.664062 86.109375 345.832031 86.769531 346.90625 87.453125 C 347.980469 88.132812 348.953125 88.832031 349.824219 89.542969 C 350.695312 90.257812 351.464844 90.984375 352.125 91.722656 C 352.785156 92.460938 353.339844 93.210938 353.78125 93.964844 C 354.226562 94.722656 354.5625 95.488281 354.785156 96.253906 C 355.007812 97.023438 355.121094 97.792969 355.121094 98.566406 Z M 355.121094 98.566406 " fill-opacity="1" fill-rule="nonzero"/></g><path fill="#ffffff" d="M 245.59375 103.195312 C 245.09375 103.050781 244.632812 102.828125 244.203125 102.53125 C 243.777344 102.234375 243.410156 101.878906 243.097656 101.464844 C 242.785156 101.046875 242.546875 100.59375 242.382812 100.101562 C 242.21875 99.609375 242.136719 99.101562 242.136719 98.582031 C 242.136719 98.066406 242.21875 97.558594 242.382812 97.066406 C 242.546875 96.574219 242.785156 96.121094 243.097656 95.703125 C 243.410156 95.289062 243.777344 94.933594 244.203125 94.636719 C 244.632812 94.339844 245.09375 94.117188 245.59375 93.972656 C 252.136719 92.390625 258.753906 91.207031 265.441406 90.410156 C 272.128906 89.613281 278.839844 89.21875 285.574219 89.21875 C 292.308594 89.21875 299.015625 89.613281 305.703125 90.410156 C 312.390625 91.207031 319.007812 92.390625 325.554688 93.972656 C 326.0625 94.105469 326.535156 94.320312 326.972656 94.613281 C 327.414062 94.902344 327.792969 95.257812 328.113281 95.675781 C 328.433594 96.09375 328.679688 96.550781 328.851562 97.046875 C 329.019531 97.546875 329.105469 98.058594 329.105469 98.582031 C 329.105469 99.109375 329.019531 99.621094 328.851562 100.121094 C 328.679688 100.617188 328.433594 101.074219 328.113281 101.492188 C 327.792969 101.910156 327.414062 102.265625 326.972656 102.554688 C 326.535156 102.847656 326.0625 103.058594 325.554688 103.195312 C 319.007812 104.765625 312.390625 105.945312 305.703125 106.738281 C 299.015625 107.527344 292.304688 107.921875 285.574219 107.921875 C 278.839844 107.921875 272.128906 107.527344 265.441406 106.738281 C 258.757812 105.945312 252.140625 104.765625 245.59375 103.195312 Z M 245.59375 103.195312 " fill-opacity="1" fill-rule="nonzero"/><path fill="#5955a1" d="M 339.105469 130.261719 C 340.78125 129.535156 342.410156 128.714844 343.992188 127.804688 C 344.195312 127.65625 344.410156 127.535156 344.636719 127.433594 C 344.863281 127.332031 345.101562 127.253906 345.34375 127.203125 C 345.589844 127.148438 345.835938 127.125 346.085938 127.125 C 346.332031 127.125 346.582031 127.148438 346.824219 127.199219 C 347.070312 127.25 347.304688 127.328125 347.535156 127.429688 C 347.761719 127.527344 347.976562 127.652344 348.179688 127.796875 C 348.382812 127.945312 348.566406 128.109375 348.734375 128.292969 C 348.902344 128.480469 349.046875 128.679688 349.171875 128.894531 C 349.296875 129.109375 349.398438 129.335938 349.476562 129.574219 C 349.554688 129.808594 349.609375 130.050781 349.636719 130.300781 C 349.660156 130.546875 349.664062 130.796875 349.636719 131.042969 C 349.613281 131.289062 349.5625 131.535156 349.484375 131.769531 C 349.410156 132.007812 349.308594 132.234375 349.1875 132.449219 C 349.0625 132.667969 348.917969 132.867188 348.75 133.054688 C 348.585938 133.242188 348.402344 133.40625 348.199219 133.554688 C 348 133.703125 347.785156 133.828125 347.558594 133.929688 C 345.738281 134.996094 343.859375 135.945312 341.921875 136.777344 C 341.5 136.921875 341.0625 136.984375 340.617188 136.960938 C 340.167969 136.941406 339.742188 136.839844 339.332031 136.65625 C 338.921875 136.476562 338.5625 136.226562 338.246094 135.910156 C 337.933594 135.589844 337.6875 135.226562 337.507812 134.816406 C 337.332031 134.40625 337.234375 133.976562 337.21875 133.53125 C 337.203125 133.082031 337.269531 132.648438 337.417969 132.226562 C 337.566406 131.804688 337.785156 131.425781 338.078125 131.085938 C 338.367188 130.746094 338.710938 130.472656 339.105469 130.261719 Z M 339.105469 130.261719 " fill-opacity="1" fill-rule="nonzero"/><path fill="#5955a1" d="M 324.625 142.15625 C 324.152344 142.210938 323.6875 142.171875 323.230469 142.042969 C 322.773438 141.910156 322.355469 141.699219 321.984375 141.402344 C 321.609375 141.109375 321.308594 140.753906 321.078125 140.335938 C 320.847656 139.921875 320.703125 139.476562 320.648438 139.003906 C 320.59375 138.53125 320.632812 138.066406 320.765625 137.609375 C 320.894531 137.152344 321.109375 136.738281 321.402344 136.367188 C 321.699219 135.996094 322.054688 135.691406 322.472656 135.460938 C 322.886719 135.230469 323.332031 135.089844 323.804688 135.035156 C 325.910156 134.570312 327.941406 134.035156 329.867188 133.46875 C 330.324219 133.335938 330.785156 133.296875 331.253906 133.347656 C 331.722656 133.398438 332.164062 133.539062 332.578125 133.765625 C 332.992188 133.992188 333.347656 134.292969 333.644531 134.660156 C 333.9375 135.027344 334.152344 135.4375 334.285156 135.890625 C 334.417969 136.34375 334.457031 136.804688 334.40625 137.273438 C 334.355469 137.742188 334.21875 138.183594 333.992188 138.597656 C 333.761719 139.011719 333.464844 139.367188 333.097656 139.660156 C 332.730469 139.957031 332.320312 140.171875 331.867188 140.304688 C 329.488281 141.070312 327.078125 141.6875 324.625 142.15625 Z M 324.625 142.15625 " fill-opacity="1" fill-rule="nonzero"/><path fill="#5955a1" d="M 305.867188 145.183594 C 305.394531 145.207031 304.933594 145.140625 304.488281 144.980469 C 304.042969 144.820312 303.644531 144.585938 303.292969 144.265625 C 302.941406 143.949219 302.664062 143.578125 302.460938 143.148438 C 302.257812 142.722656 302.144531 142.273438 302.121094 141.800781 C 302.097656 141.328125 302.164062 140.871094 302.324219 140.425781 C 302.484375 139.980469 302.722656 139.582031 303.039062 139.230469 C 303.359375 138.878906 303.730469 138.601562 304.160156 138.402344 C 304.585938 138.199219 305.035156 138.085938 305.507812 138.0625 C 307.898438 137.8125 310.21875 137.527344 312.640625 137.171875 C 313.113281 137.101562 313.578125 137.121094 314.042969 137.238281 C 314.503906 137.351562 314.925781 137.550781 315.308594 137.835938 C 315.691406 138.121094 316.003906 138.46875 316.246094 138.878906 C 316.488281 139.285156 316.640625 139.726562 316.707031 140.199219 C 316.773438 140.664062 316.75 141.128906 316.628906 141.585938 C 316.511719 142.042969 316.3125 142.460938 316.027344 142.835938 C 315.742188 143.214844 315.398438 143.523438 314.988281 143.761719 C 314.582031 144.003906 314.144531 144.15625 313.675781 144.222656 C 312.464844 144.4375 306.722656 145.183594 305.867188 145.183594 Z M 305.867188 145.183594 " fill-opacity="1" fill-rule="nonzero"/><path fill="#5955a1" d="M 339.105469 171.183594 C 340.78125 170.457031 342.410156 169.636719 343.992188 168.722656 C 344.398438 168.511719 344.832031 168.382812 345.289062 168.335938 C 345.746094 168.289062 346.195312 168.332031 346.640625 168.460938 C 347.082031 168.585938 347.480469 168.792969 347.84375 169.078125 C 348.207031 169.359375 348.503906 169.699219 348.734375 170.097656 C 348.964844 170.496094 349.109375 170.921875 349.175781 171.375 C 349.242188 171.832031 349.21875 172.28125 349.109375 172.726562 C 349 173.171875 348.8125 173.582031 348.542969 173.957031 C 348.273438 174.328125 347.945312 174.640625 347.558594 174.886719 C 345.738281 175.9375 343.859375 176.875 341.921875 177.699219 C 341.5 177.84375 341.0625 177.902344 340.617188 177.882812 C 340.167969 177.859375 339.742188 177.757812 339.332031 177.578125 C 338.921875 177.394531 338.5625 177.144531 338.246094 176.828125 C 337.933594 176.511719 337.6875 176.144531 337.507812 175.734375 C 337.332031 175.324219 337.234375 174.898438 337.21875 174.449219 C 337.203125 174.003906 337.269531 173.570312 337.417969 173.148438 C 337.566406 172.726562 337.785156 172.34375 338.078125 172.007812 C 338.367188 171.667969 338.710938 171.390625 339.105469 171.183594 Z M 339.105469 171.183594 " fill-opacity="1" fill-rule="nonzero"/><path fill="#5955a1" d="M 324.625 183.078125 C 324.152344 183.132812 323.6875 183.09375 323.230469 182.960938 C 322.773438 182.832031 322.355469 182.617188 321.984375 182.324219 C 321.609375 182.027344 321.308594 181.671875 321.078125 181.257812 C 320.847656 180.839844 320.703125 180.398438 320.648438 179.925781 C 320.59375 179.453125 320.632812 178.988281 320.765625 178.53125 C 320.894531 178.074219 321.109375 177.660156 321.402344 177.285156 C 321.699219 176.914062 322.054688 176.613281 322.472656 176.382812 C 322.886719 176.152344 323.332031 176.007812 323.804688 175.953125 C 325.910156 175.457031 327.941406 174.921875 329.867188 174.386719 C 330.324219 174.253906 330.785156 174.214844 331.253906 174.269531 C 331.722656 174.320312 332.164062 174.460938 332.578125 174.6875 C 332.992188 174.914062 333.347656 175.210938 333.644531 175.578125 C 333.9375 175.945312 334.152344 176.355469 334.285156 176.808594 C 334.417969 177.261719 334.457031 177.722656 334.40625 178.191406 C 334.355469 178.664062 334.21875 179.105469 333.992188 179.515625 C 333.761719 179.929688 333.464844 180.285156 333.097656 180.582031 C 332.730469 180.878906 332.320312 181.09375 331.867188 181.226562 C 329.488281 181.976562 327.074219 182.59375 324.625 183.078125 Z M 324.625 183.078125 " fill-opacity="1" fill-rule="nonzero"/><path fill="#5955a1" d="M 305.867188 186.140625 C 305.394531 186.164062 304.933594 186.09375 304.488281 185.9375 C 304.042969 185.777344 303.644531 185.539062 303.292969 185.222656 C 302.941406 184.90625 302.664062 184.53125 302.460938 184.105469 C 302.257812 183.679688 302.144531 183.226562 302.121094 182.757812 C 302.097656 182.285156 302.164062 181.824219 302.324219 181.378906 C 302.484375 180.933594 302.722656 180.535156 303.039062 180.1875 C 303.359375 179.835938 303.730469 179.558594 304.160156 179.355469 C 304.585938 179.152344 305.035156 179.039062 305.507812 179.015625 C 307.886719 178.753906 310.265625 178.46875 312.640625 178.160156 C 313.117188 178.09375 313.582031 178.117188 314.046875 178.234375 C 314.511719 178.351562 314.933594 178.554688 315.316406 178.839844 C 315.699219 179.125 316.011719 179.472656 316.257812 179.882812 C 316.5 180.292969 316.65625 180.734375 316.726562 181.207031 C 316.792969 181.679688 316.769531 182.148438 316.652344 182.609375 C 316.535156 183.070312 316.332031 183.496094 316.046875 183.875 C 315.761719 184.257812 315.414062 184.570312 315.003906 184.816406 C 314.589844 185.058594 314.148438 185.214844 313.675781 185.285156 C 312.464844 185.390625 306.722656 186.140625 305.867188 186.140625 Z M 305.867188 186.140625 " fill-opacity="1" fill-rule="nonzero"/><path fill="#5955a1" d="M 339.105469 212.136719 C 340.78125 211.410156 342.410156 210.59375 343.992188 209.679688 C 344.195312 209.535156 344.410156 209.410156 344.636719 209.308594 C 344.863281 209.207031 345.101562 209.128906 345.34375 209.078125 C 345.589844 209.027344 345.835938 209 346.085938 209 C 346.332031 209 346.582031 209.023438 346.824219 209.074219 C 347.070312 209.125 347.304688 209.203125 347.535156 209.304688 C 347.761719 209.40625 347.976562 209.527344 348.179688 209.675781 C 348.382812 209.820312 348.566406 209.984375 348.734375 210.171875 C 348.902344 210.355469 349.046875 210.554688 349.171875 210.769531 C 349.296875 210.984375 349.398438 211.210938 349.476562 211.449219 C 349.554688 211.683594 349.609375 211.925781 349.636719 212.175781 C 349.660156 212.421875 349.664062 212.671875 349.636719 212.917969 C 349.613281 213.167969 349.5625 213.410156 349.484375 213.644531 C 349.410156 213.882812 349.308594 214.109375 349.1875 214.328125 C 349.0625 214.542969 348.917969 214.742188 348.75 214.929688 C 348.585938 215.117188 348.402344 215.28125 348.199219 215.429688 C 348 215.578125 347.785156 215.703125 347.558594 215.804688 C 345.742188 216.878906 343.863281 217.828125 341.921875 218.65625 C 341.5 218.796875 341.0625 218.859375 340.617188 218.835938 C 340.167969 218.816406 339.742188 218.714844 339.332031 218.535156 C 338.921875 218.351562 338.5625 218.101562 338.246094 217.785156 C 337.933594 217.464844 337.6875 217.101562 337.507812 216.691406 C 337.332031 216.28125 337.234375 215.851562 337.21875 215.40625 C 337.203125 214.960938 337.269531 214.523438 337.417969 214.101562 C 337.566406 213.679688 337.785156 213.300781 338.078125 212.960938 C 338.367188 212.621094 338.710938 212.347656 339.105469 212.136719 Z M 339.105469 212.136719 " fill-opacity="1" fill-rule="nonzero"/><path fill="#5955a1" d="M 324.625 224.03125 C 324.152344 224.085938 323.6875 224.046875 323.230469 223.917969 C 322.773438 223.789062 322.355469 223.574219 321.984375 223.277344 C 321.609375 222.984375 321.308594 222.628906 321.078125 222.210938 C 320.847656 221.796875 320.703125 221.351562 320.648438 220.878906 C 320.59375 220.40625 320.632812 219.945312 320.765625 219.488281 C 320.894531 219.027344 321.109375 218.613281 321.402344 218.242188 C 321.699219 217.871094 322.054688 217.566406 322.472656 217.335938 C 322.886719 217.105469 323.332031 216.964844 323.804688 216.910156 C 325.910156 216.445312 327.941406 215.914062 329.867188 215.34375 C 330.324219 215.210938 330.785156 215.171875 331.253906 215.222656 C 331.722656 215.273438 332.164062 215.414062 332.578125 215.640625 C 332.992188 215.867188 333.347656 216.167969 333.644531 216.535156 C 333.9375 216.902344 334.152344 217.3125 334.285156 217.765625 C 334.417969 218.21875 334.457031 218.679688 334.40625 219.148438 C 334.355469 219.617188 334.21875 220.058594 333.992188 220.472656 C 333.761719 220.886719 333.464844 221.242188 333.097656 221.539062 C 332.730469 221.832031 332.320312 222.046875 331.867188 222.179688 C 329.488281 222.933594 327.074219 223.550781 324.625 224.03125 Z M 324.625 224.03125 " fill-opacity="1" fill-rule="nonzero"/><path fill="#5955a1" d="M 305.867188 227.058594 C 305.394531 227.082031 304.933594 227.015625 304.488281 226.855469 C 304.042969 226.699219 303.644531 226.460938 303.292969 226.140625 C 302.941406 225.824219 302.664062 225.453125 302.460938 225.027344 C 302.257812 224.597656 302.144531 224.148438 302.121094 223.675781 C 302.097656 223.203125 302.164062 222.746094 302.324219 222.300781 C 302.484375 221.855469 302.722656 221.457031 303.039062 221.105469 C 303.359375 220.753906 303.730469 220.476562 304.160156 220.277344 C 304.585938 220.074219 305.035156 219.960938 305.507812 219.9375 C 307.898438 219.6875 310.21875 219.402344 312.640625 219.046875 C 313.113281 218.976562 313.578125 218.996094 314.042969 219.113281 C 314.503906 219.226562 314.925781 219.429688 315.308594 219.710938 C 315.691406 219.996094 316.003906 220.34375 316.246094 220.753906 C 316.488281 221.164062 316.640625 221.601562 316.707031 222.074219 C 316.773438 222.542969 316.75 223.003906 316.628906 223.460938 C 316.511719 223.917969 316.3125 224.335938 316.027344 224.710938 C 315.742188 225.089844 315.398438 225.398438 314.988281 225.636719 C 314.582031 225.878906 314.144531 226.03125 313.675781 226.097656 C 312.464844 226.3125 306.722656 227.058594 305.867188 227.058594 Z M 305.867188 227.058594 " fill-opacity="1" fill-rule="nonzero"/><path fill="#5955a1" d="M 340.53125 259.894531 C 340.121094 259.898438 339.71875 259.832031 339.328125 259.695312 C 338.941406 259.5625 338.585938 259.363281 338.265625 259.105469 C 337.945312 258.847656 337.675781 258.542969 337.460938 258.191406 C 337.246094 257.839844 337.097656 257.464844 337.011719 257.058594 C 336.925781 256.65625 336.914062 256.25 336.972656 255.84375 C 337.027344 255.4375 337.152344 255.050781 337.34375 254.683594 C 337.53125 254.320312 337.78125 253.996094 338.082031 253.71875 C 338.386719 253.4375 338.726562 253.21875 339.105469 253.058594 C 340.789062 252.34375 342.417969 251.527344 343.992188 250.601562 C 344.398438 250.386719 344.832031 250.257812 345.289062 250.210938 C 345.746094 250.167969 346.195312 250.207031 346.640625 250.335938 C 347.082031 250.464844 347.480469 250.667969 347.84375 250.953125 C 348.207031 251.234375 348.503906 251.574219 348.734375 251.972656 C 348.964844 252.371094 349.109375 252.796875 349.175781 253.25 C 349.242188 253.707031 349.21875 254.15625 349.109375 254.601562 C 349 255.050781 348.8125 255.457031 348.542969 255.832031 C 348.273438 256.203125 347.945312 256.515625 347.558594 256.761719 C 345.882812 257.722656 343.992188 258.683594 341.921875 259.609375 C 341.476562 259.789062 341.011719 259.886719 340.53125 259.894531 Z M 340.53125 259.894531 " fill-opacity="1" fill-rule="nonzero"/><path fill="#5955a1" d="M 324.625 264.953125 C 324.152344 265.003906 323.6875 264.964844 323.230469 264.835938 C 322.773438 264.703125 322.359375 264.492188 321.988281 264.195312 C 321.617188 263.898438 321.3125 263.546875 321.082031 263.128906 C 320.851562 262.714844 320.710938 262.269531 320.65625 261.800781 C 320.601562 261.328125 320.640625 260.863281 320.769531 260.40625 C 320.902344 259.949219 321.113281 259.535156 321.410156 259.164062 C 321.703125 258.792969 322.058594 258.488281 322.472656 258.257812 C 322.890625 258.027344 323.332031 257.882812 323.804688 257.828125 C 325.910156 257.332031 327.941406 256.832031 329.867188 256.261719 C 330.324219 256.132812 330.785156 256.089844 331.253906 256.144531 C 331.722656 256.195312 332.164062 256.335938 332.578125 256.5625 C 332.992188 256.789062 333.347656 257.085938 333.644531 257.453125 C 333.9375 257.824219 334.152344 258.234375 334.285156 258.6875 C 334.417969 259.136719 334.457031 259.597656 334.40625 260.070312 C 334.355469 260.539062 334.21875 260.980469 333.992188 261.394531 C 333.761719 261.808594 333.464844 262.160156 333.097656 262.457031 C 332.730469 262.753906 332.320312 262.96875 331.867188 263.101562 C 329.488281 263.851562 327.074219 264.46875 324.625 264.953125 Z M 324.625 264.953125 " fill-opacity="1" fill-rule="nonzero"/><path fill="#5955a1" d="M 305.867188 268.015625 C 305.394531 268.039062 304.933594 267.972656 304.488281 267.8125 C 304.042969 267.652344 303.644531 267.414062 303.292969 267.097656 C 302.941406 266.78125 302.664062 266.40625 302.460938 265.980469 C 302.257812 265.554688 302.144531 265.105469 302.121094 264.632812 C 302.097656 264.160156 302.164062 263.699219 302.324219 263.253906 C 302.484375 262.808594 302.722656 262.410156 303.039062 262.0625 C 303.359375 261.710938 303.730469 261.433594 304.160156 261.230469 C 304.585938 261.027344 305.035156 260.914062 305.507812 260.890625 C 307.886719 260.65625 310.265625 260.371094 312.640625 260.039062 C 313.117188 259.96875 313.582031 259.992188 314.046875 260.109375 C 314.511719 260.226562 314.933594 260.429688 315.316406 260.714844 C 315.699219 261 316.011719 261.347656 316.257812 261.757812 C 316.5 262.167969 316.65625 262.609375 316.726562 263.082031 C 316.792969 263.554688 316.769531 264.023438 316.652344 264.484375 C 316.535156 264.945312 316.332031 265.371094 316.046875 265.75 C 315.761719 266.132812 315.414062 266.449219 315.003906 266.691406 C 314.589844 266.933594 314.148438 267.089844 313.675781 267.160156 C 312.214844 267.265625 306.6875 268.015625 305.867188 268.015625 Z M 305.867188 268.015625 " fill-opacity="1" fill-rule="nonzero"/><g clip-path="url(#52d67a52f2)"><path fill="#619fff" d="M 159.105469 221.433594 L 159.105469 262.386719 C 159.105469 275.386719 127.96875 285.964844 89.59375 285.964844 C 51.21875 285.964844 20.011719 275.386719 20.011719 262.386719 L 20.011719 221.433594 Z M 159.105469 221.433594 " fill-opacity="1" fill-rule="nonzero"/></g><g clip-path="url(#23d8f85092)"><path fill="#dbecff" d="M 159.105469 180.476562 L 159.105469 221.433594 C 159.105469 234.46875 127.96875 245.007812 89.59375 245.007812 C 51.21875 245.007812 20.011719 234.46875 20.011719 221.433594 L 20.011719 180.476562 Z M 159.105469 180.476562 " fill-opacity="1" fill-rule="nonzero"/></g><g clip-path="url(#45a839d584)"><path fill="#619fff" d="M 159.105469 139.519531 L 159.105469 180.476562 C 159.105469 193.511719 127.96875 204.054688 89.59375 204.054688 C 51.21875 204.054688 20.011719 193.511719 20.011719 180.476562 L 20.011719 139.519531 Z M 159.105469 139.519531 " fill-opacity="1" fill-rule="nonzero"/></g><g clip-path="url(#e1310d88da)"><path fill="#dbecff" d="M 159.105469 98.566406 L 159.105469 139.519531 C 159.105469 152.554688 127.96875 163.132812 89.59375 163.132812 C 51.21875 163.132812 20.011719 152.554688 20.011719 139.519531 L 20.011719 98.566406 Z M 159.105469 98.566406 " fill-opacity="1" fill-rule="nonzero"/></g><path fill="#6177eb" d="M 97.867188 221.433594 L 97.867188 285.785156 C 132.390625 284.398438 159.105469 274.460938 159.105469 262.386719 L 159.105469 221.433594 Z M 97.867188 221.433594 " fill-opacity="1" fill-rule="nonzero"/><path fill="#b3bfff" d="M 97.867188 180.476562 L 97.867188 244.832031 C 132.390625 243.441406 159.105469 233.542969 159.105469 221.433594 L 159.105469 180.476562 Z M 97.867188 180.476562 " fill-opacity="1" fill-rule="nonzero"/><path fill="#6177eb" d="M 97.867188 139.519531 L 97.867188 203.875 C 132.390625 202.484375 159.105469 192.585938 159.105469 180.476562 L 159.105469 139.519531 Z M 97.867188 139.519531 " fill-opacity="1" fill-rule="nonzero"/><path fill="#b3bfff" d="M 97.867188 98.566406 L 97.867188 162.957031 C 132.390625 161.566406 159.105469 151.628906 159.105469 139.519531 L 159.105469 98.566406 Z M 97.867188 98.566406 " fill-opacity="1" fill-rule="nonzero"/><g clip-path="url(#470b3f66eb)"><path fill="#f9f6ff" d="M 159.246094 98.566406 C 159.246094 99.339844 159.136719 100.109375 158.914062 100.875 C 158.691406 101.644531 158.355469 102.40625 157.910156 103.164062 C 157.46875 103.921875 156.914062 104.671875 156.253906 105.410156 C 155.59375 106.148438 154.824219 106.875 153.953125 107.589844 C 153.082031 108.300781 152.109375 109 151.035156 109.679688 C 149.960938 110.359375 148.792969 111.023438 147.527344 111.664062 C 146.261719 112.304688 144.90625 112.925781 143.460938 113.523438 C 142.015625 114.121094 140.488281 114.691406 138.878906 115.238281 C 137.265625 115.78125 135.582031 116.300781 133.820312 116.789062 C 132.058594 117.28125 130.234375 117.738281 128.339844 118.167969 C 126.445312 118.597656 124.492188 118.996094 122.484375 119.359375 C 120.476562 119.722656 118.417969 120.050781 116.316406 120.347656 C 114.210938 120.644531 112.070312 120.902344 109.890625 121.125 C 107.710938 121.351562 105.503906 121.539062 103.269531 121.6875 C 101.035156 121.839844 98.785156 121.953125 96.519531 122.027344 C 94.25 122.105469 91.980469 122.140625 89.703125 122.140625 C 87.421875 122.140625 85.152344 122.105469 82.882812 122.027344 C 80.617188 121.953125 78.367188 121.839844 76.132812 121.6875 C 73.898438 121.539062 71.691406 121.351562 69.511719 121.125 C 67.332031 120.902344 65.191406 120.644531 63.085938 120.347656 C 60.984375 120.050781 58.925781 119.722656 56.917969 119.359375 C 54.910156 118.996094 52.957031 118.597656 51.0625 118.167969 C 49.167969 117.738281 47.34375 117.28125 45.582031 116.789062 C 43.820312 116.300781 42.136719 115.78125 40.523438 115.238281 C 38.914062 114.691406 37.386719 114.121094 35.941406 113.523438 C 34.496094 112.925781 33.140625 112.304688 31.875 111.664062 C 30.609375 111.023438 29.441406 110.359375 28.367188 109.679688 C 27.292969 109 26.320312 108.300781 25.449219 107.589844 C 24.578125 106.875 23.808594 106.148438 23.148438 105.410156 C 22.488281 104.671875 21.933594 103.921875 21.492188 103.164062 C 21.046875 102.40625 20.710938 101.644531 20.488281 100.875 C 20.265625 100.109375 20.15625 99.339844 20.15625 98.566406 C 20.15625 97.792969 20.265625 97.023438 20.488281 96.253906 C 20.710938 95.488281 21.046875 94.722656 21.492188 93.964844 C 21.933594 93.210938 22.488281 92.460938 23.148438 91.722656 C 23.808594 90.984375 24.578125 90.257812 25.449219 89.542969 C 26.320312 88.832031 27.292969 88.132812 28.367188 87.453125 C 29.441406 86.769531 30.609375 86.109375 31.875 85.46875 C 33.140625 84.824219 34.496094 84.207031 35.941406 83.609375 C 37.386719 83.011719 38.914062 82.441406 40.523438 81.894531 C 42.136719 81.347656 43.820312 80.832031 45.582031 80.339844 C 47.34375 79.851562 49.167969 79.390625 51.0625 78.964844 C 52.957031 78.535156 54.910156 78.136719 56.917969 77.773438 C 58.925781 77.410156 60.984375 77.078125 63.085938 76.785156 C 65.191406 76.488281 67.332031 76.230469 69.511719 76.003906 C 71.691406 75.78125 73.898438 75.59375 76.132812 75.441406 C 78.367188 75.292969 80.617188 75.179688 82.882812 75.101562 C 85.152344 75.027344 87.421875 74.988281 89.703125 74.988281 C 91.980469 74.988281 94.25 75.027344 96.519531 75.101562 C 98.785156 75.179688 101.035156 75.292969 103.269531 75.441406 C 105.503906 75.59375 107.710938 75.78125 109.890625 76.003906 C 112.070312 76.230469 114.210938 76.488281 116.316406 76.785156 C 118.417969 77.078125 120.476562 77.410156 122.484375 77.773438 C 124.492188 78.136719 126.445312 78.535156 128.339844 78.964844 C 130.234375 79.390625 132.058594 79.851562 133.820312 80.339844 C 135.582031 80.832031 137.265625 81.347656 138.878906 81.894531 C 140.488281 82.441406 142.015625 83.011719 143.460938 83.609375 C 144.90625 84.207031 146.261719 84.824219 147.527344 85.46875 C 148.792969 86.109375 149.960938 86.769531 151.035156 87.453125 C 152.109375 88.132812 153.082031 88.832031 153.953125 89.542969 C 154.824219 90.257812 155.59375 90.984375 156.253906 91.722656 C 156.914062 92.460938 157.46875 93.210938 157.910156 93.964844 C 158.355469 94.722656 158.691406 95.488281 158.914062 96.253906 C 159.136719 97.023438 159.246094 97.792969 159.246094 98.566406 Z M 159.246094 98.566406 " fill-opacity="1" fill-rule="nonzero"/></g><path fill="#ffffff" d="M 137.386719 98.566406 C 137.386719 98.84375 137.308594 99.117188 137.15625 99.394531 C 137.003906 99.667969 136.773438 99.941406 136.46875 100.210938 C 136.164062 100.484375 135.785156 100.75 135.332031 101.015625 C 134.878906 101.28125 134.351562 101.539062 133.753906 101.796875 C 133.15625 102.050781 132.492188 102.300781 131.753906 102.542969 C 131.019531 102.789062 130.214844 103.023438 129.347656 103.253906 C 128.480469 103.484375 127.550781 103.707031 126.5625 103.921875 C 125.570312 104.132812 124.523438 104.339844 123.417969 104.535156 C 122.316406 104.730469 121.160156 104.914062 119.953125 105.089844 C 118.746094 105.265625 117.492188 105.429688 116.191406 105.582031 C 114.894531 105.738281 113.554688 105.878906 112.179688 106.007812 C 110.800781 106.140625 109.390625 106.257812 107.949219 106.363281 C 106.507812 106.46875 105.039062 106.5625 103.542969 106.644531 C 102.046875 106.722656 100.535156 106.789062 99.003906 106.84375 C 97.472656 106.898438 95.929688 106.9375 94.375 106.964844 C 92.820312 106.992188 91.261719 107.007812 89.703125 107.007812 C 88.140625 107.007812 86.582031 106.992188 85.027344 106.964844 C 83.472656 106.9375 81.929688 106.898438 80.398438 106.84375 C 78.867188 106.789062 77.355469 106.722656 75.859375 106.644531 C 74.363281 106.5625 72.894531 106.46875 71.453125 106.363281 C 70.011719 106.257812 68.601562 106.140625 67.222656 106.007812 C 65.847656 105.878906 64.507812 105.738281 63.210938 105.582031 C 61.910156 105.429688 60.65625 105.265625 59.449219 105.089844 C 58.242188 104.914062 57.085938 104.730469 55.984375 104.535156 C 54.878906 104.339844 53.832031 104.132812 52.839844 103.921875 C 51.851562 103.707031 50.921875 103.484375 50.054688 103.253906 C 49.1875 103.023438 48.382812 102.789062 47.648438 102.542969 C 46.910156 102.300781 46.246094 102.050781 45.648438 101.796875 C 45.050781 101.539062 44.523438 101.28125 44.070312 101.015625 C 43.617188 100.75 43.238281 100.484375 42.933594 100.210938 C 42.628906 99.941406 42.398438 99.667969 42.246094 99.394531 C 42.09375 99.117188 42.015625 98.84375 42.015625 98.566406 C 42.015625 98.289062 42.09375 98.011719 42.246094 97.738281 C 42.398438 97.464844 42.628906 97.191406 42.933594 96.917969 C 43.238281 96.648438 43.617188 96.378906 44.070312 96.117188 C 44.523438 95.851562 45.050781 95.589844 45.648438 95.335938 C 46.246094 95.082031 46.910156 94.832031 47.648438 94.585938 C 48.382812 94.34375 49.1875 94.105469 50.054688 93.875 C 50.921875 93.648438 51.851562 93.425781 52.839844 93.210938 C 53.832031 92.996094 54.878906 92.792969 55.984375 92.597656 C 57.085938 92.402344 58.242188 92.214844 59.449219 92.042969 C 60.65625 91.867188 61.910156 91.703125 63.210938 91.546875 C 64.507812 91.394531 65.847656 91.253906 67.222656 91.121094 C 68.601562 90.992188 70.011719 90.875 71.453125 90.769531 C 72.894531 90.664062 74.363281 90.570312 75.859375 90.488281 C 77.355469 90.410156 78.867188 90.339844 80.398438 90.289062 C 81.929688 90.234375 83.472656 90.191406 85.027344 90.167969 C 86.582031 90.140625 88.140625 90.125 89.703125 90.125 C 91.261719 90.125 92.820312 90.140625 94.375 90.167969 C 95.929688 90.191406 97.472656 90.234375 99.003906 90.289062 C 100.535156 90.339844 102.046875 90.410156 103.542969 90.488281 C 105.039062 90.570312 106.507812 90.664062 107.949219 90.769531 C 109.390625 90.875 110.800781 90.992188 112.179688 91.121094 C 113.554688 91.253906 114.894531 91.394531 116.191406 91.546875 C 117.492188 91.703125 118.746094 91.867188 119.953125 92.042969 C 121.160156 92.214844 122.316406 92.402344 123.417969 92.597656 C 124.523438 92.792969 125.570312 92.996094 126.5625 93.210938 C 127.550781 93.425781 128.480469 93.648438 129.347656 93.875 C 130.214844 94.105469 131.019531 94.34375 131.753906 94.585938 C 132.492188 94.832031 133.15625 95.082031 133.753906 95.335938 C 134.351562 95.589844 134.878906 95.851562 135.332031 96.117188 C 135.785156 96.378906 136.164062 96.648438 136.46875 96.917969 C 136.773438 97.191406 137.003906 97.464844 137.15625 97.738281 C 137.308594 98.011719 137.386719 98.289062 137.386719 98.566406 Z M 137.386719 98.566406 " fill-opacity="1" fill-rule="nonzero"/><g clip-path="url(#cda98cbdff)"><path fill="#5955a1" d="M 80 146.289062 C 62.488281 145.539062 33.992188 141.65625 20.011719 131.367188 L 20.011719 120.398438 C 22.042969 128.480469 45.726562 137.742188 80.320312 139.164062 C 80.792969 139.1875 81.246094 139.296875 81.675781 139.496094 C 82.101562 139.699219 82.476562 139.972656 82.796875 140.320312 C 83.117188 140.671875 83.355469 141.066406 83.515625 141.511719 C 83.679688 141.957031 83.75 142.414062 83.726562 142.886719 C 83.707031 143.359375 83.59375 143.808594 83.394531 144.238281 C 83.195312 144.664062 82.917969 145.039062 82.570312 145.359375 C 82.21875 145.675781 81.824219 145.917969 81.378906 146.078125 C 80.933594 146.238281 80.472656 146.308594 80 146.289062 Z M 80 146.289062 " fill-opacity="1" fill-rule="nonzero"/></g><g clip-path="url(#2c795b6ca1)"><path fill="#5955a1" d="M 80 186.921875 C 62.523438 186.175781 34.027344 182.398438 20.011719 172.035156 L 20.011719 161.03125 C 21.902344 169.117188 45.582031 178.304688 80.179688 179.800781 C 80.652344 179.8125 81.105469 179.914062 81.535156 180.105469 C 81.96875 180.296875 82.347656 180.566406 82.671875 180.90625 C 82.996094 181.25 83.246094 181.640625 83.414062 182.082031 C 83.585938 182.523438 83.664062 182.980469 83.652344 183.449219 C 83.640625 183.921875 83.539062 184.375 83.347656 184.804688 C 83.15625 185.238281 82.890625 185.617188 82.546875 185.941406 C 82.203125 186.265625 81.8125 186.515625 81.371094 186.683594 C 80.929688 186.855469 80.472656 186.933594 80 186.921875 Z M 80 186.921875 " fill-opacity="1" fill-rule="nonzero"/></g><g clip-path="url(#ae8d58934d)"><path fill="#5955a1" d="M 80 227.59375 C 62.523438 226.773438 33.921875 223 20.011719 212.527344 L 20.011719 201.84375 C 21.902344 209.894531 45.582031 219.117188 80.179688 220.613281 C 80.582031 220.703125 80.953125 220.859375 81.300781 221.082031 C 81.648438 221.304688 81.949219 221.574219 82.203125 221.902344 C 82.453125 222.226562 82.644531 222.582031 82.773438 222.972656 C 82.902344 223.363281 82.960938 223.765625 82.949219 224.175781 C 82.941406 224.585938 82.859375 224.984375 82.710938 225.367188 C 82.5625 225.753906 82.355469 226.101562 82.085938 226.410156 C 81.816406 226.722656 81.503906 226.980469 81.144531 227.183594 C 80.789062 227.386719 80.40625 227.523438 80 227.59375 Z M 80 227.59375 " fill-opacity="1" fill-rule="nonzero"/></g><g clip-path="url(#800ffef0c7)"><path fill="#5955a1" d="M 80 268.230469 C 56.640625 267.195312 32.03125 262.386719 20.011719 253.34375 L 20.011719 242.335938 C 21.902344 250.421875 45.582031 259.609375 80.179688 261.105469 C 80.652344 261.117188 81.105469 261.21875 81.535156 261.410156 C 81.96875 261.605469 82.347656 261.871094 82.671875 262.214844 C 82.996094 262.554688 83.246094 262.945312 83.414062 263.386719 C 83.585938 263.828125 83.664062 264.285156 83.652344 264.757812 C 83.640625 265.226562 83.539062 265.679688 83.347656 266.113281 C 83.15625 266.542969 82.890625 266.921875 82.546875 267.246094 C 82.203125 267.574219 81.8125 267.820312 81.371094 267.992188 C 80.929688 268.160156 80.472656 268.238281 80 268.230469 Z M 80 268.230469 " fill-opacity="1" fill-rule="nonzero"/></g><g clip-path="url(#133babc40b)"><path fill="#5955a1" d="M 257.183594 249.03125 L 257.183594 289.988281 C 257.183594 302.988281 226.046875 313.566406 187.636719 313.566406 C 149.226562 313.566406 118.089844 302.878906 118.089844 289.988281 L 118.089844 249.03125 Z M 257.183594 249.03125 " fill-opacity="1" fill-rule="nonzero"/></g><path fill="#90a5d8" d="M 257.183594 249.03125 L 257.183594 258.828125 C 257.183594 271.859375 226.046875 282.402344 187.636719 282.402344 C 149.226562 282.402344 118.089844 271.71875 118.089844 258.828125 L 118.089844 249.03125 C 118.089844 262.066406 149.226562 272.609375 187.636719 272.609375 C 226.046875 272.609375 257.183594 262.066406 257.183594 249.03125 Z M 257.183594 249.03125 " fill-opacity="1" fill-rule="nonzero"/><g clip-path="url(#e3ed6f4e71)"><path fill="#45467e" d="M 179.148438 272.429688 L 179.148438 313.386719 C 144.839844 311.960938 118.089844 302.027344 118.089844 289.988281 L 118.089844 249.03125 C 118.089844 261.105469 144.730469 271.007812 179.148438 272.429688 Z M 179.148438 272.429688 " fill-opacity="1" fill-rule="nonzero"/></g><path fill="#7282bf" d="M 257.183594 208.078125 L 257.183594 249.03125 C 257.183594 262.066406 226.046875 272.609375 187.636719 272.609375 C 149.226562 272.609375 118.089844 261.925781 118.089844 249.03125 L 118.089844 208.078125 Z M 257.183594 208.078125 " fill-opacity="1" fill-rule="nonzero"/><path fill="#90a5d8" d="M 257.183594 208.078125 L 257.183594 217.871094 C 257.183594 230.90625 226.046875 241.445312 187.636719 241.445312 C 149.226562 241.445312 118.089844 230.761719 118.089844 217.871094 L 118.089844 208.078125 C 118.089844 221.113281 149.226562 231.652344 187.636719 231.652344 C 226.046875 231.652344 257.183594 221.113281 257.183594 208.078125 Z M 257.183594 208.078125 " fill-opacity="1" fill-rule="nonzero"/><path fill="#5955a1" d="M 257.183594 167.121094 L 257.183594 208.078125 C 257.183594 221.113281 226.046875 231.652344 187.636719 231.652344 C 149.226562 231.652344 118.089844 220.96875 118.089844 208.078125 L 118.089844 167.121094 Z M 257.183594 167.121094 " fill-opacity="1" fill-rule="nonzero"/><path fill="#90a5d8" d="M 257.183594 167.121094 L 257.183594 176.914062 C 257.183594 189.949219 226.046875 200.492188 187.636719 200.492188 C 149.226562 200.492188 118.089844 189.808594 118.089844 176.914062 L 118.089844 167.121094 C 118.089844 180.15625 149.226562 190.699219 187.636719 190.699219 C 226.046875 190.699219 257.183594 180.15625 257.183594 167.121094 Z M 257.183594 167.121094 " fill-opacity="1" fill-rule="nonzero"/><path fill="#45467e" d="M 179.148438 190.519531 L 179.148438 231.476562 C 144.839844 230.050781 118.089844 220.113281 118.089844 208.078125 L 118.089844 167.121094 C 118.089844 179.195312 144.730469 189.09375 179.148438 190.519531 Z M 179.148438 190.519531 " fill-opacity="1" fill-rule="nonzero"/><path fill="#7282bf" d="M 257.183594 126.167969 L 257.183594 167.121094 C 257.183594 180.15625 226.046875 190.699219 187.636719 190.699219 C 149.226562 190.699219 118.089844 180.015625 118.089844 167.121094 L 118.089844 126.167969 Z M 257.183594 126.167969 " fill-opacity="1" fill-rule="nonzero"/><path fill="#90a5d8" d="M 257.183594 126.167969 L 257.183594 135.960938 C 257.183594 148.996094 226.046875 159.535156 187.636719 159.535156 C 149.226562 159.535156 118.089844 148.851562 118.089844 135.960938 L 118.089844 126.167969 C 118.089844 139.199219 149.226562 149.742188 187.636719 149.742188 C 226.046875 149.742188 257.183594 139.199219 257.183594 126.167969 Z M 257.183594 126.167969 " fill-opacity="1" fill-rule="nonzero"/><path fill="#5955a1" d="M 257.183594 85.210938 L 257.183594 126.167969 C 257.183594 139.199219 226.046875 149.777344 187.636719 149.777344 C 149.226562 149.777344 118.089844 139.09375 118.089844 126.167969 L 118.089844 85.210938 Z M 257.183594 85.210938 " fill-opacity="1" fill-rule="nonzero"/><path fill="#90a5d8" d="M 257.183594 85.210938 L 257.183594 95.003906 C 257.183594 108.039062 226.046875 118.582031 187.636719 118.582031 C 149.226562 118.582031 118.089844 107.898438 118.089844 95.003906 L 118.089844 85.210938 C 118.089844 98.246094 149.226562 108.785156 187.636719 108.785156 C 226.046875 108.785156 257.183594 98.246094 257.183594 85.210938 Z M 257.183594 85.210938 " fill-opacity="1" fill-rule="nonzero"/><path fill="#45467e" d="M 179.148438 108.609375 L 179.148438 149.5625 C 144.839844 148.140625 118.089844 138.203125 118.089844 126.167969 L 118.089844 85.210938 C 118.089844 97.285156 144.730469 107.183594 179.148438 108.609375 Z M 179.148438 108.609375 " fill-opacity="1" fill-rule="nonzero"/><path fill="#5e69a6" d="M 179.148438 149.5625 L 179.148438 190.519531 C 144.839844 189.09375 118.089844 179.160156 118.089844 167.121094 L 118.089844 126.167969 C 118.089844 138.238281 144.730469 148.140625 179.148438 149.5625 Z M 179.148438 149.5625 " fill-opacity="1" fill-rule="nonzero"/><path fill="#5e69a6" d="M 179.148438 231.476562 L 179.148438 272.429688 C 144.839844 271.007812 118.089844 261.070312 118.089844 249.03125 L 118.089844 208.078125 C 118.089844 220.148438 144.730469 230.050781 179.148438 231.476562 Z M 179.148438 231.476562 " fill-opacity="1" fill-rule="nonzero"/><g clip-path="url(#cb2dd11836)"><path fill="#7282bf" d="M 257.183594 85.210938 C 257.183594 85.984375 257.070312 86.753906 256.847656 87.523438 C 256.625 88.289062 256.292969 89.054688 255.847656 89.808594 C 255.402344 90.566406 254.851562 91.316406 254.1875 92.054688 C 253.527344 92.792969 252.761719 93.519531 251.890625 94.234375 C 251.019531 94.945312 250.046875 95.644531 248.972656 96.324219 C 247.898438 97.003906 246.726562 97.667969 245.460938 98.308594 C 244.199219 98.949219 242.84375 99.570312 241.398438 100.167969 C 239.953125 100.765625 238.425781 101.335938 236.8125 101.882812 C 235.203125 102.425781 233.519531 102.945312 231.757812 103.433594 C 229.996094 103.925781 228.167969 104.382812 226.273438 104.8125 C 224.382812 105.242188 222.429688 105.640625 220.421875 106.003906 C 218.414062 106.367188 216.355469 106.695312 214.25 106.992188 C 212.148438 107.289062 210.003906 107.546875 207.824219 107.773438 C 205.644531 107.996094 203.4375 108.183594 201.203125 108.332031 C 198.972656 108.484375 196.71875 108.597656 194.453125 108.671875 C 192.1875 108.75 189.914062 108.785156 187.636719 108.785156 C 185.359375 108.785156 183.085938 108.75 180.820312 108.671875 C 178.554688 108.597656 176.304688 108.484375 174.070312 108.332031 C 171.835938 108.183594 169.628906 107.996094 167.449219 107.773438 C 165.269531 107.546875 163.128906 107.289062 161.023438 106.992188 C 158.917969 106.695312 156.863281 106.367188 154.851562 106.003906 C 152.84375 105.640625 150.894531 105.242188 149 104.8125 C 147.105469 104.382812 145.277344 103.925781 143.515625 103.433594 C 141.757812 102.945312 140.070312 102.425781 138.460938 101.882812 C 136.847656 101.335938 135.320312 100.765625 133.875 100.167969 C 132.433594 99.570312 131.078125 98.949219 129.8125 98.308594 C 128.546875 97.667969 127.375 97.003906 126.300781 96.324219 C 125.230469 95.644531 124.257812 94.945312 123.382812 94.234375 C 122.511719 93.519531 121.746094 92.792969 121.085938 92.054688 C 120.425781 91.316406 119.871094 90.566406 119.425781 89.808594 C 118.980469 89.054688 118.648438 88.289062 118.425781 87.523438 C 118.203125 86.753906 118.089844 85.984375 118.089844 85.210938 C 118.089844 84.4375 118.203125 83.667969 118.425781 82.898438 C 118.648438 82.132812 118.980469 81.367188 119.425781 80.609375 C 119.871094 79.855469 120.425781 79.105469 121.085938 78.367188 C 121.746094 77.628906 122.511719 76.902344 123.382812 76.1875 C 124.257812 75.476562 125.230469 74.777344 126.300781 74.097656 C 127.375 73.417969 128.546875 72.753906 129.8125 72.113281 C 131.078125 71.46875 132.433594 70.851562 133.875 70.253906 C 135.320312 69.65625 136.847656 69.085938 138.460938 68.539062 C 140.070312 67.992188 141.757812 67.476562 143.515625 66.984375 C 145.277344 66.496094 147.105469 66.035156 149 65.609375 C 150.894531 65.179688 152.84375 64.78125 154.851562 64.417969 C 156.863281 64.054688 158.917969 63.726562 161.023438 63.429688 C 163.128906 63.132812 165.269531 62.875 167.449219 62.648438 C 169.628906 62.425781 171.835938 62.238281 174.070312 62.085938 C 176.304688 61.9375 178.554688 61.824219 180.820312 61.75 C 183.085938 61.671875 185.359375 61.632812 187.636719 61.632812 C 189.914062 61.632812 192.1875 61.671875 194.453125 61.75 C 196.71875 61.824219 198.972656 61.9375 201.203125 62.085938 C 203.4375 62.238281 205.644531 62.425781 207.824219 62.648438 C 210.003906 62.875 212.148438 63.132812 214.25 63.429688 C 216.355469 63.726562 218.414062 64.054688 220.421875 64.417969 C 222.429688 64.78125 224.382812 65.179688 226.273438 65.609375 C 228.167969 66.035156 229.996094 66.496094 231.757812 66.984375 C 233.519531 67.476562 235.203125 67.992188 236.8125 68.539062 C 238.425781 69.085938 239.953125 69.65625 241.398438 70.253906 C 242.84375 70.851562 244.199219 71.46875 245.460938 72.113281 C 246.726562 72.753906 247.898438 73.417969 248.972656 74.097656 C 250.046875 74.777344 251.019531 75.476562 251.890625 76.1875 C 252.761719 76.902344 253.527344 77.628906 254.1875 78.367188 C 254.851562 79.105469 255.402344 79.855469 255.847656 80.609375 C 256.292969 81.367188 256.625 82.132812 256.847656 82.898438 C 257.070312 83.667969 257.183594 84.4375 257.183594 85.210938 Z M 257.183594 85.210938 " fill-opacity="1" fill-rule="nonzero"/></g><path fill="#9aa5e2" d="M 142.023438 88.09375 C 141.722656 87.992188 141.445312 87.847656 141.191406 87.660156 C 140.933594 87.472656 140.714844 87.25 140.53125 86.992188 C 140.347656 86.734375 140.207031 86.457031 140.109375 86.15625 C 140.011719 85.855469 139.964844 85.546875 139.964844 85.230469 C 139.964844 84.914062 140.011719 84.601562 140.109375 84.300781 C 140.207031 84 140.347656 83.722656 140.53125 83.464844 C 140.714844 83.207031 140.933594 82.984375 141.191406 82.796875 C 141.445312 82.609375 141.722656 82.464844 142.023438 82.363281 C 166.628906 73.742188 208.574219 73.707031 233.253906 82.363281 C 233.550781 82.464844 233.828125 82.609375 234.085938 82.796875 C 234.339844 82.984375 234.558594 83.207031 234.742188 83.464844 C 234.925781 83.722656 235.066406 84 235.164062 84.300781 C 235.261719 84.601562 235.3125 84.914062 235.3125 85.230469 C 235.3125 85.546875 235.261719 85.855469 235.164062 86.15625 C 235.066406 86.457031 234.925781 86.734375 234.742188 86.992188 C 234.558594 87.25 234.339844 87.472656 234.085938 87.660156 C 233.828125 87.847656 233.550781 87.992188 233.253906 88.09375 C 208.644531 96.714844 166.703125 96.75 142.023438 88.09375 Z M 142.023438 88.09375 " fill-opacity="1" fill-rule="nonzero"/><path fill="#ffffff" d="M 257.183594 107.253906 L 257.183594 117.941406 C 241.457031 129.691406 207.679688 132.96875 187.636719 132.96875 C 187.164062 132.96875 186.710938 132.878906 186.273438 132.699219 C 185.835938 132.515625 185.449219 132.257812 185.113281 131.925781 C 184.78125 131.589844 184.523438 131.207031 184.34375 130.769531 C 184.160156 130.332031 184.070312 129.878906 184.070312 129.40625 C 184.070312 128.933594 184.160156 128.480469 184.34375 128.042969 C 184.523438 127.609375 184.78125 127.222656 185.113281 126.890625 C 185.449219 126.554688 185.835938 126.296875 186.273438 126.117188 C 186.710938 125.9375 187.164062 125.847656 187.636719 125.847656 C 228.757812 126.023438 254.757812 115.480469 257.183594 107.253906 Z M 257.183594 107.253906 " fill-opacity="1" fill-rule="nonzero"/><path fill="#ffffff" d="M 257.183594 147.890625 L 257.183594 158.574219 C 241.667969 170.21875 208 173.640625 187.636719 173.640625 C 187.164062 173.640625 186.710938 173.546875 186.273438 173.367188 C 185.835938 173.1875 185.449219 172.929688 185.113281 172.597656 C 184.78125 172.261719 184.523438 171.875 184.34375 171.441406 C 184.160156 171.003906 184.070312 170.550781 184.070312 170.078125 C 184.070312 169.605469 184.160156 169.152344 184.34375 168.714844 C 184.523438 168.277344 184.78125 167.894531 185.113281 167.558594 C 185.449219 167.226562 185.835938 166.96875 186.273438 166.789062 C 186.710938 166.605469 187.164062 166.515625 187.636719 166.515625 C 228.757812 166.695312 254.757812 156.117188 257.183594 147.890625 Z M 257.183594 147.890625 " fill-opacity="1" fill-rule="nonzero"/><path fill="#ffffff" d="M 257.183594 188.5625 L 257.183594 199.246094 C 241.632812 211.105469 207.679688 214.453125 187.636719 214.453125 C 187.164062 214.453125 186.710938 214.363281 186.273438 214.179688 C 185.835938 214 185.449219 213.742188 185.113281 213.410156 C 184.78125 213.074219 184.523438 212.691406 184.34375 212.253906 C 184.160156 211.816406 184.070312 211.363281 184.070312 210.890625 C 184.070312 210.417969 184.160156 209.964844 184.34375 209.527344 C 184.523438 209.089844 184.78125 208.707031 185.113281 208.371094 C 185.449219 208.039062 185.835938 207.78125 186.273438 207.601562 C 186.710938 207.417969 187.164062 207.328125 187.636719 207.328125 C 228.757812 207.328125 254.757812 196.789062 257.183594 188.5625 Z M 257.183594 188.5625 " fill-opacity="1" fill-rule="nonzero"/><path fill="#ffffff" d="M 257.183594 229.195312 L 257.183594 240.058594 C 241.527344 251.703125 207.644531 255.265625 187.636719 255.265625 C 187.164062 255.265625 186.710938 255.175781 186.273438 254.996094 C 185.835938 254.8125 185.449219 254.554688 185.113281 254.222656 C 184.78125 253.886719 184.523438 253.503906 184.34375 253.066406 C 184.160156 252.628906 184.070312 252.175781 184.070312 251.703125 C 184.070312 251.230469 184.160156 250.777344 184.34375 250.339844 C 184.523438 249.90625 184.78125 249.519531 185.113281 249.1875 C 185.449219 248.851562 185.835938 248.59375 186.273438 248.414062 C 186.710938 248.234375 187.164062 248.144531 187.636719 248.144531 C 228.757812 248.144531 254.757812 237.457031 257.183594 229.195312 Z M 257.183594 229.195312 " fill-opacity="1" fill-rule="nonzero"/><path fill="#ffffff" d="M 257.183594 268.621094 L 257.183594 280.585938 C 244.128906 290.523438 215.242188 295.757812 187.636719 295.757812 C 187.164062 295.757812 186.710938 295.667969 186.273438 295.488281 C 185.835938 295.304688 185.449219 295.046875 185.113281 294.714844 C 184.78125 294.378906 184.523438 293.996094 184.34375 293.558594 C 184.160156 293.121094 184.070312 292.667969 184.070312 292.195312 C 184.070312 291.722656 184.160156 291.269531 184.34375 290.832031 C 184.523438 290.398438 184.78125 290.011719 185.113281 289.679688 C 185.449219 289.34375 185.835938 289.085938 186.273438 288.90625 C 186.710938 288.726562 187.164062 288.636719 187.636719 288.636719 C 230.71875 288.636719 257.183594 276.953125 257.183594 268.621094 Z M 257.183594 268.621094 " fill-opacity="1" fill-rule="nonzero"/><path fill="#aed8ff" d="M 132.675781 164.664062 C 132.183594 164.65625 131.710938 164.5625 131.25 164.378906 C 129.3125 163.542969 127.4375 162.59375 125.617188 161.53125 C 125.226562 161.285156 124.898438 160.972656 124.632812 160.601562 C 124.363281 160.226562 124.175781 159.820312 124.066406 159.371094 C 123.957031 158.925781 123.933594 158.476562 124 158.019531 C 124.0625 157.566406 124.210938 157.140625 124.441406 156.742188 C 124.671875 156.34375 124.96875 156.003906 125.328125 155.722656 C 125.691406 155.4375 126.09375 155.234375 126.535156 155.105469 C 126.976562 154.976562 127.425781 154.9375 127.882812 154.980469 C 128.34375 155.027344 128.773438 155.15625 129.183594 155.371094 C 130.761719 156.292969 132.390625 157.125 134.066406 157.863281 C 134.4375 158.027344 134.765625 158.25 135.058594 158.53125 C 135.347656 158.808594 135.585938 159.128906 135.769531 159.488281 C 135.953125 159.847656 136.070312 160.226562 136.125 160.625 C 136.179688 161.023438 136.167969 161.421875 136.085938 161.816406 C 136.003906 162.210938 135.863281 162.582031 135.65625 162.929688 C 135.449219 163.273438 135.191406 163.578125 134.878906 163.835938 C 134.570312 164.09375 134.226562 164.292969 133.847656 164.4375 C 133.472656 164.578125 133.082031 164.65625 132.675781 164.664062 Z M 132.675781 164.664062 " fill-opacity="1" fill-rule="nonzero"/><path fill="#aed8ff" d="M 148.621094 169.792969 C 146.210938 169.328125 143.832031 168.734375 141.488281 168.011719 C 141.03125 167.878906 140.621094 167.664062 140.253906 167.371094 C 139.886719 167.074219 139.589844 166.71875 139.359375 166.304688 C 139.132812 165.890625 138.996094 165.449219 138.945312 164.980469 C 138.894531 164.511719 138.933594 164.050781 139.066406 163.597656 C 139.199219 163.144531 139.410156 162.734375 139.707031 162.367188 C 140.003906 161.996094 140.359375 161.699219 140.773438 161.472656 C 141.1875 161.246094 141.628906 161.105469 142.097656 161.054688 C 142.566406 161.003906 143.03125 161.042969 143.484375 161.175781 C 145.410156 161.746094 147.40625 162.277344 149.511719 162.742188 C 149.957031 162.828125 150.367188 162.992188 150.75 163.234375 C 151.132812 163.476562 151.457031 163.78125 151.722656 164.148438 C 151.988281 164.515625 152.175781 164.917969 152.289062 165.355469 C 152.402344 165.792969 152.429688 166.234375 152.371094 166.683594 C 152.316406 167.132812 152.179688 167.554688 151.960938 167.953125 C 151.742188 168.347656 151.460938 168.691406 151.109375 168.980469 C 150.761719 169.269531 150.375 169.480469 149.941406 169.621094 C 149.511719 169.761719 149.070312 169.820312 148.621094 169.792969 Z M 148.621094 169.792969 " fill-opacity="1" fill-rule="nonzero"/><path fill="#aed8ff" d="M 167.34375 172.785156 C 166.488281 172.785156 161.101562 172.070312 159.710938 171.859375 C 159.238281 171.789062 158.796875 171.632812 158.386719 171.390625 C 157.976562 171.144531 157.625 170.832031 157.339844 170.449219 C 157.054688 170.066406 156.851562 169.644531 156.734375 169.183594 C 156.617188 168.71875 156.59375 168.253906 156.660156 167.78125 C 156.730469 167.308594 156.886719 166.867188 157.132812 166.457031 C 157.375 166.046875 157.6875 165.699219 158.074219 165.414062 C 158.457031 165.128906 158.878906 164.925781 159.339844 164.808594 C 159.804688 164.691406 160.273438 164.667969 160.746094 164.734375 C 163.027344 165.054688 165.347656 165.375 167.878906 165.589844 C 168.351562 165.617188 168.800781 165.730469 169.230469 165.9375 C 169.65625 166.140625 170.027344 166.417969 170.34375 166.773438 C 170.660156 167.125 170.894531 167.523438 171.050781 167.96875 C 171.210938 168.417969 171.273438 168.875 171.25 169.347656 C 171.222656 169.820312 171.109375 170.269531 170.902344 170.695312 C 170.699219 171.121094 170.417969 171.492188 170.066406 171.808594 C 169.710938 172.125 169.3125 172.359375 168.867188 172.515625 C 168.417969 172.671875 167.960938 172.738281 167.488281 172.714844 Z M 167.34375 172.785156 " fill-opacity="1" fill-rule="nonzero"/><path fill="#aed8ff" d="M 132.675781 205.621094 C 132.179688 205.613281 131.703125 205.503906 131.25 205.300781 C 129.3125 204.464844 127.4375 203.515625 125.617188 202.449219 C 125.210938 202.210938 124.867188 201.90625 124.582031 201.53125 C 124.296875 201.160156 124.097656 200.746094 123.976562 200.292969 C 123.855469 199.839844 123.828125 199.378906 123.886719 198.914062 C 123.949219 198.449219 124.097656 198.015625 124.332031 197.605469 C 124.570312 197.199219 124.878906 196.851562 125.253906 196.5625 C 125.632812 196.277344 126.050781 196.074219 126.507812 195.953125 C 126.964844 195.832031 127.429688 195.804688 127.898438 195.871094 C 128.371094 195.933594 128.808594 196.085938 129.21875 196.324219 C 130.800781 197.238281 132.429688 198.054688 134.105469 198.78125 C 134.484375 198.945312 134.824219 199.164062 135.128906 199.441406 C 135.429688 199.722656 135.675781 200.046875 135.867188 200.410156 C 136.058594 200.773438 136.183594 201.160156 136.238281 201.570312 C 136.296875 201.976562 136.28125 202.382812 136.199219 202.785156 C 136.113281 203.1875 135.964844 203.566406 135.75 203.917969 C 135.535156 204.269531 135.265625 204.574219 134.945312 204.832031 C 134.625 205.089844 134.269531 205.285156 133.878906 205.421875 C 133.492188 205.558594 133.089844 205.625 132.675781 205.621094 Z M 132.675781 205.621094 " fill-opacity="1" fill-rule="nonzero"/><path fill="#aed8ff" d="M 148.621094 210.675781 C 146.136719 210.246094 143.691406 209.675781 141.273438 208.96875 C 140.816406 208.835938 140.40625 208.621094 140.035156 208.328125 C 139.667969 208.03125 139.367188 207.675781 139.140625 207.261719 C 138.914062 206.847656 138.773438 206.40625 138.722656 205.9375 C 138.671875 205.464844 138.710938 205.003906 138.84375 204.550781 C 138.976562 204.097656 139.191406 203.6875 139.488281 203.316406 C 139.785156 202.949219 140.140625 202.652344 140.554688 202.425781 C 140.96875 202.195312 141.414062 202.058594 141.882812 202.007812 C 142.351562 201.957031 142.816406 201.996094 143.269531 202.128906 C 145.195312 202.664062 147.191406 203.199219 149.296875 203.695312 C 149.699219 203.808594 150.074219 203.988281 150.414062 204.230469 C 150.753906 204.472656 151.042969 204.769531 151.28125 205.113281 C 151.515625 205.457031 151.6875 205.832031 151.792969 206.238281 C 151.894531 206.644531 151.929688 207.054688 151.886719 207.46875 C 151.847656 207.886719 151.738281 208.285156 151.554688 208.660156 C 151.375 209.039062 151.136719 209.375 150.835938 209.667969 C 150.539062 209.960938 150.199219 210.195312 149.816406 210.367188 C 149.4375 210.539062 149.039062 210.644531 148.621094 210.675781 Z M 148.621094 210.675781 " fill-opacity="1" fill-rule="nonzero"/><path fill="#aed8ff" d="M 167.34375 213.703125 C 166.488281 213.703125 161.101562 212.992188 159.710938 212.8125 C 159.238281 212.746094 158.796875 212.589844 158.386719 212.34375 C 157.976562 212.101562 157.625 211.789062 157.339844 211.40625 C 157.054688 211.023438 156.851562 210.601562 156.734375 210.136719 C 156.617188 209.675781 156.59375 209.207031 156.660156 208.734375 C 156.730469 208.265625 156.886719 207.824219 157.132812 207.414062 C 157.375 207.003906 157.6875 206.65625 158.074219 206.371094 C 158.457031 206.082031 158.878906 205.882812 159.339844 205.765625 C 159.804688 205.648438 160.273438 205.621094 160.746094 205.691406 C 163.027344 206.011719 165.347656 206.296875 167.878906 206.546875 C 168.351562 206.570312 168.800781 206.6875 169.230469 206.890625 C 169.65625 207.097656 170.027344 207.375 170.34375 207.726562 C 170.660156 208.078125 170.894531 208.480469 171.050781 208.925781 C 171.210938 209.371094 171.273438 209.832031 171.25 210.304688 C 171.222656 210.777344 171.109375 211.226562 170.902344 211.652344 C 170.699219 212.078125 170.417969 212.449219 170.066406 212.765625 C 169.710938 213.078125 169.3125 213.316406 168.867188 213.472656 C 168.417969 213.628906 167.960938 213.695312 167.488281 213.667969 Z M 167.34375 213.703125 " fill-opacity="1" fill-rule="nonzero"/><path fill="#aed8ff" d="M 132.675781 124.992188 C 132.183594 124.996094 131.707031 124.898438 131.25 124.707031 C 129.3125 123.871094 127.4375 122.921875 125.617188 121.855469 C 125.386719 121.753906 125.175781 121.628906 124.972656 121.480469 C 124.773438 121.335938 124.589844 121.167969 124.421875 120.980469 C 124.257812 120.796875 124.113281 120.59375 123.988281 120.378906 C 123.863281 120.160156 123.765625 119.933594 123.6875 119.699219 C 123.613281 119.460938 123.5625 119.21875 123.535156 118.96875 C 123.511719 118.722656 123.511719 118.472656 123.539062 118.226562 C 123.566406 117.980469 123.617188 117.738281 123.695312 117.5 C 123.773438 117.261719 123.875 117.039062 124 116.820312 C 124.125 116.605469 124.273438 116.40625 124.441406 116.222656 C 124.609375 116.035156 124.792969 115.871094 124.996094 115.726562 C 125.199219 115.578125 125.414062 115.457031 125.640625 115.355469 C 125.867188 115.253906 126.105469 115.179688 126.347656 115.125 C 126.59375 115.074219 126.839844 115.050781 127.089844 115.050781 C 127.339844 115.050781 127.585938 115.078125 127.828125 115.128906 C 128.074219 115.179688 128.308594 115.257812 128.539062 115.359375 C 128.765625 115.460938 128.980469 115.585938 129.183594 115.730469 C 130.644531 116.550781 132.285156 117.40625 134.066406 118.1875 C 134.4375 118.355469 134.765625 118.578125 135.058594 118.855469 C 135.347656 119.136719 135.585938 119.453125 135.769531 119.8125 C 135.953125 120.171875 136.070312 120.550781 136.125 120.953125 C 136.179688 121.351562 136.167969 121.75 136.085938 122.144531 C 136.003906 122.539062 135.863281 122.910156 135.65625 123.253906 C 135.449219 123.601562 135.191406 123.902344 134.878906 124.164062 C 134.570312 124.421875 134.226562 124.621094 133.847656 124.761719 C 133.472656 124.90625 133.082031 124.980469 132.675781 124.992188 Z M 132.675781 124.992188 " fill-opacity="1" fill-rule="nonzero"/><path fill="#aed8ff" d="M 148.621094 130.082031 C 146.210938 129.621094 143.832031 129.027344 141.488281 128.304688 C 141.03125 128.171875 140.621094 127.957031 140.253906 127.660156 C 139.882812 127.367188 139.585938 127.011719 139.359375 126.597656 C 139.128906 126.183594 138.992188 125.742188 138.941406 125.269531 C 138.886719 124.800781 138.929688 124.339844 139.0625 123.886719 C 139.195312 123.433594 139.40625 123.023438 139.703125 122.65625 C 140 122.285156 140.355469 121.988281 140.769531 121.761719 C 141.183594 121.535156 141.628906 121.394531 142.097656 121.34375 C 142.566406 121.292969 143.03125 121.332031 143.484375 121.464844 C 145.410156 122.035156 147.40625 122.570312 149.511719 123.03125 C 149.957031 123.117188 150.367188 123.28125 150.75 123.527344 C 151.132812 123.769531 151.457031 124.074219 151.722656 124.4375 C 151.988281 124.804688 152.175781 125.207031 152.289062 125.644531 C 152.402344 126.082031 152.429688 126.527344 152.371094 126.976562 C 152.316406 127.421875 152.179688 127.847656 151.960938 128.242188 C 151.742188 128.640625 151.460938 128.980469 151.109375 129.269531 C 150.761719 129.558594 150.375 129.773438 149.941406 129.914062 C 149.511719 130.054688 149.070312 130.109375 148.621094 130.082031 Z M 148.621094 130.082031 " fill-opacity="1" fill-rule="nonzero"/><path fill="#aed8ff" d="M 167.34375 133.109375 C 166.488281 133.109375 161.101562 132.398438 159.710938 132.183594 C 159.238281 132.117188 158.796875 131.960938 158.386719 131.714844 C 157.976562 131.472656 157.625 131.160156 157.339844 130.777344 C 157.054688 130.394531 156.851562 129.972656 156.734375 129.507812 C 156.617188 129.046875 156.59375 128.578125 156.660156 128.105469 C 156.730469 127.636719 156.886719 127.195312 157.132812 126.785156 C 157.375 126.375 157.6875 126.027344 158.074219 125.742188 C 158.457031 125.453125 158.878906 125.253906 159.339844 125.136719 C 159.804688 125.019531 160.273438 124.992188 160.746094 125.0625 C 163.027344 125.417969 165.347656 125.703125 167.878906 125.953125 C 168.351562 125.980469 168.800781 126.09375 169.230469 126.296875 C 169.65625 126.503906 170.027344 126.78125 170.34375 127.132812 C 170.660156 127.488281 170.894531 127.886719 171.050781 128.332031 C 171.210938 128.777344 171.273438 129.238281 171.25 129.710938 C 171.222656 130.183594 171.109375 130.632812 170.902344 131.058594 C 170.699219 131.484375 170.417969 131.855469 170.066406 132.171875 C 169.710938 132.484375 169.3125 132.722656 168.867188 132.878906 C 168.417969 133.035156 167.960938 133.101562 167.488281 133.074219 Z M 167.34375 133.109375 " fill-opacity="1" fill-rule="nonzero"/><path fill="#aed8ff" d="M 132.675781 246.539062 C 132.183594 246.542969 131.707031 246.449219 131.25 246.253906 C 129.316406 245.414062 127.441406 244.464844 125.617188 243.40625 C 125.207031 243.167969 124.859375 242.859375 124.570312 242.484375 C 124.285156 242.109375 124.078125 241.691406 123.960938 241.234375 C 123.839844 240.773438 123.8125 240.3125 123.875 239.84375 C 123.941406 239.375 124.09375 238.933594 124.332031 238.527344 C 124.570312 238.117188 124.878906 237.769531 125.253906 237.484375 C 125.632812 237.195312 126.050781 236.992188 126.507812 236.875 C 126.964844 236.753906 127.429688 236.726562 127.898438 236.789062 C 128.371094 236.855469 128.808594 237.003906 129.21875 237.246094 C 130.796875 238.167969 132.425781 239 134.105469 239.738281 C 134.472656 239.90625 134.804688 240.128906 135.09375 240.410156 C 135.386719 240.6875 135.625 241.011719 135.808594 241.371094 C 135.992188 241.730469 136.109375 242.113281 136.160156 242.511719 C 136.214844 242.914062 136.199219 243.3125 136.117188 243.710938 C 136.035156 244.105469 135.886719 244.476562 135.679688 244.820312 C 135.46875 245.167969 135.207031 245.46875 134.894531 245.726562 C 134.582031 245.984375 134.234375 246.183594 133.855469 246.320312 C 133.476562 246.460938 133.082031 246.535156 132.675781 246.539062 Z M 132.675781 246.539062 " fill-opacity="1" fill-rule="nonzero"/><path fill="#aed8ff" d="M 148.621094 251.703125 C 146.210938 251.242188 143.832031 250.648438 141.488281 249.921875 C 141.03125 249.792969 140.621094 249.578125 140.25 249.28125 C 139.882812 248.988281 139.582031 248.632812 139.355469 248.21875 C 139.128906 247.804688 138.988281 247.359375 138.9375 246.890625 C 138.882812 246.421875 138.925781 245.960938 139.058594 245.507812 C 139.191406 245.050781 139.40625 244.640625 139.699219 244.273438 C 139.996094 243.902344 140.351562 243.605469 140.769531 243.378906 C 141.183594 243.152344 141.625 243.011719 142.097656 242.960938 C 142.566406 242.910156 143.03125 242.953125 143.484375 243.085938 C 145.410156 243.65625 147.40625 244.191406 149.511719 244.652344 C 149.957031 244.738281 150.367188 244.902344 150.75 245.144531 C 151.132812 245.390625 151.457031 245.691406 151.722656 246.058594 C 151.988281 246.425781 152.175781 246.828125 152.289062 247.265625 C 152.402344 247.703125 152.429688 248.148438 152.371094 248.59375 C 152.316406 249.042969 152.179688 249.464844 151.960938 249.863281 C 151.742188 250.257812 151.460938 250.601562 151.109375 250.890625 C 150.761719 251.179688 150.375 251.394531 149.941406 251.535156 C 149.511719 251.675781 149.070312 251.730469 148.621094 251.703125 Z M 148.621094 251.703125 " fill-opacity="1" fill-rule="nonzero"/><path fill="#aed8ff" d="M 167.34375 254.660156 C 166.488281 254.660156 161.101562 253.949219 159.710938 253.734375 C 159.238281 253.664062 158.796875 253.507812 158.386719 253.265625 C 157.976562 253.019531 157.625 252.707031 157.339844 252.324219 C 157.054688 251.941406 156.851562 251.519531 156.734375 251.058594 C 156.617188 250.597656 156.59375 250.128906 156.660156 249.65625 C 156.730469 249.183594 156.886719 248.742188 157.132812 248.332031 C 157.375 247.921875 157.6875 247.574219 158.074219 247.289062 C 158.457031 247.003906 158.878906 246.800781 159.339844 246.683594 C 159.804688 246.566406 160.273438 246.542969 160.746094 246.609375 C 163.027344 246.96875 165.347656 247.253906 167.878906 247.5 C 168.351562 247.527344 168.800781 247.644531 169.230469 247.847656 C 169.65625 248.050781 170.027344 248.332031 170.34375 248.683594 C 170.660156 249.035156 170.894531 249.433594 171.050781 249.882812 C 171.210938 250.328125 171.273438 250.785156 171.25 251.257812 C 171.222656 251.730469 171.109375 252.179688 170.902344 252.605469 C 170.699219 253.03125 170.417969 253.402344 170.066406 253.71875 C 169.710938 254.035156 169.3125 254.269531 168.867188 254.429688 C 168.417969 254.585938 167.960938 254.648438 167.488281 254.625 Z M 167.34375 254.660156 " fill-opacity="1" fill-rule="nonzero"/><path fill="#aed8ff" d="M 132.675781 287.496094 C 132.179688 287.488281 131.703125 287.382812 131.25 287.175781 C 129.21875 286.285156 127.328125 285.324219 125.617188 284.363281 C 125.402344 284.25 125.203125 284.117188 125.015625 283.96875 C 124.828125 283.816406 124.660156 283.648438 124.507812 283.460938 C 124.355469 283.273438 124.222656 283.074219 124.113281 282.863281 C 124 282.652344 123.910156 282.429688 123.84375 282.199219 C 123.777344 281.96875 123.734375 281.734375 123.714844 281.492188 C 123.695312 281.253906 123.699219 281.015625 123.730469 280.777344 C 123.757812 280.539062 123.808594 280.304688 123.886719 280.078125 C 123.960938 279.847656 124.0625 279.632812 124.179688 279.421875 C 124.300781 279.214844 124.441406 279.023438 124.601562 278.84375 C 124.761719 278.664062 124.9375 278.5 125.128906 278.355469 C 125.320312 278.210938 125.527344 278.089844 125.742188 277.988281 C 125.960938 277.882812 126.1875 277.804688 126.421875 277.746094 C 126.652344 277.691406 126.890625 277.65625 127.132812 277.648438 C 127.371094 277.636719 127.609375 277.652344 127.847656 277.691406 C 128.085938 277.730469 128.316406 277.792969 128.539062 277.878906 C 128.765625 277.964844 128.980469 278.070312 129.183594 278.199219 C 130.765625 279.113281 132.394531 279.929688 134.066406 280.65625 C 134.445312 280.820312 134.785156 281.039062 135.089844 281.316406 C 135.390625 281.59375 135.636719 281.914062 135.828125 282.277344 C 136.019531 282.640625 136.144531 283.023438 136.203125 283.429688 C 136.257812 283.835938 136.246094 284.242188 136.164062 284.644531 C 136.082031 285.046875 135.9375 285.421875 135.726562 285.773438 C 135.511719 286.125 135.246094 286.429688 134.929688 286.691406 C 134.613281 286.949219 134.261719 287.148438 133.875 287.285156 C 133.488281 287.425781 133.089844 287.496094 132.675781 287.496094 Z M 132.675781 287.496094 " fill-opacity="1" fill-rule="nonzero"/><path fill="#aed8ff" d="M 148.621094 292.550781 C 146.140625 292.132812 143.691406 291.574219 141.273438 290.878906 C 140.816406 290.746094 140.40625 290.535156 140.035156 290.238281 C 139.667969 289.941406 139.367188 289.585938 139.140625 289.171875 C 138.914062 288.757812 138.773438 288.316406 138.722656 287.847656 C 138.671875 287.378906 138.710938 286.914062 138.84375 286.460938 C 138.976562 286.007812 139.191406 285.597656 139.488281 285.226562 C 139.785156 284.859375 140.140625 284.5625 140.554688 284.335938 C 140.96875 284.109375 141.414062 283.96875 141.882812 283.917969 C 142.351562 283.867188 142.816406 283.90625 143.269531 284.039062 C 145.195312 284.574219 147.191406 285.109375 149.296875 285.609375 C 149.691406 285.730469 150.050781 285.914062 150.378906 286.15625 C 150.707031 286.402344 150.988281 286.695312 151.214844 287.039062 C 151.441406 287.378906 151.605469 287.75 151.707031 288.148438 C 151.804688 288.546875 151.835938 288.949219 151.796875 289.355469 C 151.753906 289.765625 151.648438 290.152344 151.472656 290.527344 C 151.296875 290.898438 151.066406 291.226562 150.777344 291.519531 C 150.488281 291.808594 150.15625 292.042969 149.789062 292.222656 C 149.417969 292.398438 149.027344 292.507812 148.621094 292.550781 Z M 148.621094 292.550781 " fill-opacity="1" fill-rule="nonzero"/><path fill="#aed8ff" d="M 167.34375 295.617188 C 166.488281 295.617188 161.101562 294.902344 159.710938 294.6875 C 159.238281 294.621094 158.796875 294.464844 158.386719 294.222656 C 157.976562 293.976562 157.625 293.664062 157.339844 293.28125 C 157.054688 292.898438 156.851562 292.476562 156.734375 292.015625 C 156.617188 291.550781 156.59375 291.082031 156.660156 290.613281 C 156.730469 290.140625 156.886719 289.699219 157.132812 289.289062 C 157.375 288.878906 157.6875 288.53125 158.074219 288.246094 C 158.457031 287.960938 158.878906 287.757812 159.339844 287.640625 C 159.804688 287.523438 160.273438 287.5 160.746094 287.566406 C 163.027344 287.886719 165.347656 288.171875 167.878906 288.421875 C 168.351562 288.449219 168.800781 288.5625 169.226562 288.769531 C 169.652344 288.972656 170.023438 289.253906 170.339844 289.605469 C 170.652344 289.957031 170.890625 290.355469 171.046875 290.800781 C 171.203125 291.246094 171.269531 291.707031 171.242188 292.179688 C 171.214844 292.648438 171.101562 293.097656 170.898438 293.523438 C 170.691406 293.949219 170.414062 294.320312 170.0625 294.636719 C 169.710938 294.953125 169.308594 295.1875 168.863281 295.347656 C 168.417969 295.503906 167.957031 295.570312 167.488281 295.542969 Z M 167.34375 295.617188 " fill-opacity="1" fill-rule="nonzero"/></svg>