<svg xmlns="http://www.w3.org/2000/svg" xmlns:xlink="http://www.w3.org/1999/xlink" width="500" zoomAndPan="magnify" viewBox="0 0 375 74.999997" height="100" preserveAspectRatio="xMidYMid meet" version="1.0"><defs><g/><clipPath id="8ac023e695"><path d="M 70 46 L 108.335938 46 L 108.335938 65 L 70 65 Z M 70 46 " clip-rule="nonzero"/></clipPath><clipPath id="bd6fe2ee39"><path d="M 70 35 L 108.335938 35 L 108.335938 54 L 70 54 Z M 70 35 " clip-rule="nonzero"/></clipPath><clipPath id="2a065cccf4"><path d="M 70 24 L 108.335938 24 L 108.335938 42 L 70 42 Z M 70 24 " clip-rule="nonzero"/></clipPath><clipPath id="c975573830"><path d="M 70 13 L 108.335938 13 L 108.335938 31 L 70 31 Z M 70 13 " clip-rule="nonzero"/></clipPath><clipPath id="8d36acf625"><path d="M 70 7 L 108.335938 7 L 108.335938 20 L 70 20 Z M 70 7 " clip-rule="nonzero"/></clipPath><clipPath id="b692bd3e80"><path d="M 17.585938 46 L 56 46 L 56 65 L 17.585938 65 Z M 17.585938 46 " clip-rule="nonzero"/></clipPath><clipPath id="93cc63ea1b"><path d="M 17.585938 35 L 56 35 L 56 54 L 17.585938 54 Z M 17.585938 35 " clip-rule="nonzero"/></clipPath><clipPath id="a3c2aa83f2"><path d="M 17.585938 24 L 56 24 L 56 42 L 17.585938 42 Z M 17.585938 24 " clip-rule="nonzero"/></clipPath><clipPath id="0c49b30db8"><path d="M 17.585938 13 L 56 13 L 56 31 L 17.585938 31 Z M 17.585938 13 " clip-rule="nonzero"/></clipPath><clipPath id="d0aab55172"><path d="M 17.585938 7 L 56 7 L 56 20 L 17.585938 20 Z M 17.585938 7 " clip-rule="nonzero"/></clipPath><clipPath id="ea7d120b73"><path d="M 17.585938 19 L 35 19 L 35 27 L 17.585938 27 Z M 17.585938 19 " clip-rule="nonzero"/></clipPath><clipPath id="18a2f25263"><path d="M 17.585938 30 L 35 30 L 35 38 L 17.585938 38 Z M 17.585938 30 " clip-rule="nonzero"/></clipPath><clipPath id="0eca39bdf3"><path d="M 17.585938 41 L 35 41 L 35 49 L 17.585938 49 Z M 17.585938 41 " clip-rule="nonzero"/></clipPath><clipPath id="190cf6bfb5"><path d="M 17.585938 52 L 35 52 L 35 60 L 17.585938 60 Z M 17.585938 52 " clip-rule="nonzero"/></clipPath><clipPath id="0915438138"><path d="M 44 54 L 82 54 L 82 71.59375 L 44 71.59375 Z M 44 54 " clip-rule="nonzero"/></clipPath><clipPath id="43c55745ed"><path d="M 44 54 L 61 54 L 61 71.59375 L 44 71.59375 Z M 44 54 " clip-rule="nonzero"/></clipPath><clipPath id="14143b8640"><path d="M 44 3.34375 L 82 3.34375 L 82 17 L 44 17 Z M 44 3.34375 " clip-rule="nonzero"/></clipPath></defs><g clip-path="url(#8ac023e695)"><path fill="#619fff" d="M 108.335938 46.652344 L 108.335938 57.710938 C 108.335938 61.222656 99.90625 64.078125 89.507812 64.078125 C 79.109375 64.078125 70.683594 61.222656 70.683594 57.710938 L 70.683594 46.652344 Z M 108.335938 46.652344 " fill-opacity="1" fill-rule="nonzero"/></g><g clip-path="url(#bd6fe2ee39)"><path fill="#dbecff" d="M 108.335938 35.59375 L 108.335938 46.652344 C 108.335938 50.171875 99.90625 53.019531 89.507812 53.019531 C 79.109375 53.019531 70.683594 50.171875 70.683594 46.652344 L 70.683594 35.59375 Z M 108.335938 35.59375 " fill-opacity="1" fill-rule="nonzero"/></g><g clip-path="url(#2a065cccf4)"><path fill="#619fff" d="M 108.335938 24.535156 L 108.335938 35.59375 C 108.335938 39.113281 99.90625 41.960938 89.507812 41.960938 C 79.109375 41.960938 70.683594 39.113281 70.683594 35.59375 L 70.683594 24.535156 Z M 108.335938 24.535156 " fill-opacity="1" fill-rule="nonzero"/></g><g clip-path="url(#c975573830)"><path fill="#dbecff" d="M 108.335938 13.476562 L 108.335938 24.535156 C 108.335938 28.054688 99.90625 30.914062 89.507812 30.914062 C 79.109375 30.914062 70.683594 28.054688 70.683594 24.535156 L 70.683594 13.476562 Z M 108.335938 13.476562 " fill-opacity="1" fill-rule="nonzero"/></g><path fill="#6177eb" d="M 87.578125 46.652344 L 70.683594 46.652344 L 70.683594 57.710938 C 70.683594 61.011719 78.105469 63.722656 87.605469 64.050781 Z M 87.578125 46.652344 " fill-opacity="1" fill-rule="nonzero"/><path fill="#b3bfff" d="M 87.578125 35.59375 L 70.683594 35.59375 L 70.683594 46.652344 C 70.683594 49.953125 78.105469 52.664062 87.605469 52.992188 Z M 87.578125 35.59375 " fill-opacity="1" fill-rule="nonzero"/><path fill="#6177eb" d="M 87.578125 24.535156 L 70.683594 24.535156 L 70.683594 35.59375 C 70.683594 38.894531 78.105469 41.613281 87.605469 41.933594 Z M 87.578125 24.535156 " fill-opacity="1" fill-rule="nonzero"/><path fill="#b3bfff" d="M 87.578125 13.476562 L 70.683594 13.476562 L 70.683594 24.535156 C 70.683594 27.84375 78.105469 30.554688 87.605469 30.875 Z M 87.578125 13.476562 " fill-opacity="1" fill-rule="nonzero"/><g clip-path="url(#8d36acf625)"><path fill="#f9f6ff" d="M 108.296875 13.476562 C 108.296875 13.894531 108.175781 14.308594 107.933594 14.71875 C 107.691406 15.128906 107.335938 15.527344 106.863281 15.914062 C 106.390625 16.300781 105.808594 16.667969 105.121094 17.015625 C 104.4375 17.363281 103.65625 17.683594 102.78125 17.980469 C 101.90625 18.273438 100.957031 18.539062 99.929688 18.769531 C 98.902344 19.003906 97.816406 19.199219 96.675781 19.359375 C 95.53125 19.519531 94.355469 19.640625 93.140625 19.722656 C 91.929688 19.804688 90.707031 19.84375 89.46875 19.84375 C 88.234375 19.84375 87.007812 19.804688 85.796875 19.722656 C 84.585938 19.640625 83.40625 19.519531 82.265625 19.359375 C 81.125 19.199219 80.039062 19.003906 79.011719 18.769531 C 77.984375 18.539062 77.03125 18.273438 76.15625 17.980469 C 75.285156 17.683594 74.503906 17.363281 73.816406 17.015625 C 73.128906 16.667969 72.550781 16.300781 72.078125 15.914062 C 71.605469 15.527344 71.246094 15.128906 71.003906 14.71875 C 70.765625 14.308594 70.644531 13.894531 70.644531 13.476562 C 70.644531 13.058594 70.765625 12.644531 71.003906 12.238281 C 71.246094 11.828125 71.605469 11.429688 72.078125 11.042969 C 72.550781 10.65625 73.128906 10.289062 73.816406 9.941406 C 74.503906 9.59375 75.285156 9.273438 76.15625 8.976562 C 77.03125 8.679688 77.984375 8.417969 79.011719 8.183594 C 80.039062 7.953125 81.125 7.757812 82.265625 7.597656 C 83.40625 7.4375 84.585938 7.316406 85.796875 7.234375 C 87.007812 7.152344 88.234375 7.113281 89.46875 7.113281 C 90.707031 7.113281 91.929688 7.152344 93.140625 7.234375 C 94.355469 7.316406 95.53125 7.4375 96.675781 7.597656 C 97.816406 7.757812 98.902344 7.953125 99.929688 8.183594 C 100.957031 8.417969 101.90625 8.679688 102.78125 8.976562 C 103.65625 9.273438 104.4375 9.59375 105.121094 9.941406 C 105.808594 10.289062 106.390625 10.65625 106.863281 11.042969 C 107.335938 11.429688 107.691406 11.828125 107.933594 12.238281 C 108.175781 12.644531 108.296875 13.058594 108.296875 13.476562 Z M 108.296875 13.476562 " fill-opacity="1" fill-rule="nonzero"/></g><path fill="#ffffff" d="M 78.648438 14.726562 C 78.371094 14.648438 78.144531 14.492188 77.972656 14.261719 C 77.796875 14.03125 77.710938 13.769531 77.710938 13.484375 C 77.710938 13.195312 77.796875 12.9375 77.972656 12.707031 C 78.144531 12.476562 78.371094 12.320312 78.648438 12.238281 C 82.203125 11.382812 85.8125 10.953125 89.46875 10.953125 C 93.128906 10.953125 96.734375 11.382812 100.292969 12.238281 C 100.574219 12.3125 100.808594 12.464844 100.984375 12.699219 C 101.164062 12.929688 101.253906 13.191406 101.253906 13.484375 C 101.253906 13.773438 101.164062 14.035156 100.984375 14.269531 C 100.808594 14.5 100.574219 14.652344 100.292969 14.726562 C 96.734375 15.578125 93.128906 16.003906 89.46875 16.003906 C 85.8125 16.003906 82.203125 15.578125 78.648438 14.726562 Z M 78.648438 14.726562 " fill-opacity="1" fill-rule="nonzero"/><path fill="#5955a1" d="M 103.960938 22.035156 C 104.414062 21.839844 104.855469 21.621094 105.285156 21.375 C 105.394531 21.292969 105.515625 21.238281 105.648438 21.210938 C 105.78125 21.183594 105.917969 21.183594 106.050781 21.210938 C 106.183594 21.238281 106.304688 21.292969 106.417969 21.371094 C 106.527344 21.449219 106.617188 21.550781 106.6875 21.667969 C 106.753906 21.785156 106.796875 21.910156 106.8125 22.046875 C 106.824219 22.183594 106.8125 22.3125 106.769531 22.445312 C 106.730469 22.574219 106.664062 22.6875 106.570312 22.789062 C 106.480469 22.890625 106.375 22.972656 106.25 23.027344 C 105.757812 23.3125 105.246094 23.570312 104.722656 23.796875 C 104.484375 23.875 104.25 23.867188 104.023438 23.761719 C 103.792969 23.660156 103.628906 23.496094 103.527344 23.265625 C 103.429688 23.035156 103.421875 22.804688 103.503906 22.566406 C 103.585938 22.332031 103.738281 22.152344 103.960938 22.035156 Z M 103.960938 22.035156 " fill-opacity="1" fill-rule="nonzero"/><path fill="#5955a1" d="M 100.042969 25.25 C 99.773438 25.277344 99.535156 25.210938 99.324219 25.042969 C 99.117188 24.878906 98.996094 24.664062 98.964844 24.398438 C 98.933594 24.132812 99.003906 23.894531 99.167969 23.683594 C 99.335938 23.476562 99.550781 23.355469 99.820312 23.324219 C 100.390625 23.199219 100.9375 23.054688 101.460938 22.902344 C 101.714844 22.828125 101.960938 22.855469 102.195312 22.984375 C 102.425781 23.109375 102.582031 23.300781 102.65625 23.554688 C 102.730469 23.8125 102.703125 24.054688 102.574219 24.289062 C 102.449219 24.519531 102.257812 24.671875 102 24.75 C 101.359375 24.953125 100.703125 25.121094 100.042969 25.25 Z M 100.042969 25.25 " fill-opacity="1" fill-rule="nonzero"/><path fill="#5955a1" d="M 94.964844 26.066406 C 94.695312 26.078125 94.464844 25.996094 94.265625 25.816406 C 94.066406 25.640625 93.960938 25.417969 93.949219 25.152344 C 93.9375 24.886719 94.019531 24.65625 94.199219 24.457031 C 94.378906 24.261719 94.601562 24.15625 94.867188 24.140625 C 95.511719 24.074219 96.140625 24 96.796875 23.902344 C 96.925781 23.882812 97.050781 23.890625 97.175781 23.921875 C 97.300781 23.953125 97.414062 24.003906 97.519531 24.082031 C 97.621094 24.160156 97.707031 24.253906 97.773438 24.363281 C 97.839844 24.472656 97.878906 24.59375 97.898438 24.71875 C 97.933594 24.980469 97.875 25.21875 97.714844 25.433594 C 97.554688 25.644531 97.339844 25.769531 97.078125 25.804688 C 96.75 25.863281 95.195312 26.066406 94.964844 26.066406 Z M 94.964844 26.066406 " fill-opacity="1" fill-rule="nonzero"/><path fill="#5955a1" d="M 103.960938 33.085938 C 104.414062 32.890625 104.855469 32.667969 105.285156 32.421875 C 105.511719 32.300781 105.75 32.277344 106 32.351562 C 106.25 32.421875 106.4375 32.570312 106.566406 32.792969 C 106.695312 33.015625 106.730469 33.253906 106.667969 33.503906 C 106.605469 33.753906 106.46875 33.949219 106.25 34.085938 C 105.757812 34.371094 105.246094 34.621094 104.722656 34.84375 C 104.484375 34.925781 104.25 34.914062 104.023438 34.8125 C 103.792969 34.710938 103.628906 34.542969 103.527344 34.316406 C 103.429688 34.085938 103.421875 33.851562 103.503906 33.617188 C 103.585938 33.378906 103.738281 33.203125 103.960938 33.085938 Z M 103.960938 33.085938 " fill-opacity="1" fill-rule="nonzero"/><path fill="#5955a1" d="M 100.042969 36.296875 C 99.773438 36.328125 99.535156 36.261719 99.324219 36.09375 C 99.117188 35.925781 98.996094 35.710938 98.964844 35.445312 C 98.933594 35.179688 99.003906 34.941406 99.167969 34.734375 C 99.335938 34.523438 99.550781 34.40625 99.820312 34.375 C 100.390625 34.238281 100.9375 34.09375 101.460938 33.949219 C 101.714844 33.878906 101.960938 33.902344 102.195312 34.03125 C 102.425781 34.160156 102.582031 34.351562 102.65625 34.605469 C 102.730469 34.859375 102.703125 35.101562 102.574219 35.335938 C 102.449219 35.570312 102.257812 35.722656 102 35.796875 C 101.355469 36 100.703125 36.167969 100.042969 36.296875 Z M 100.042969 36.296875 " fill-opacity="1" fill-rule="nonzero"/><path fill="#5955a1" d="M 94.964844 37.125 C 94.695312 37.136719 94.464844 37.054688 94.265625 36.875 C 94.066406 36.699219 93.960938 36.476562 93.949219 36.210938 C 93.9375 35.945312 94.019531 35.714844 94.199219 35.515625 C 94.378906 35.320312 94.601562 35.214844 94.867188 35.199219 C 95.511719 35.128906 96.152344 35.054688 96.796875 34.96875 C 97.0625 34.933594 97.304688 34.992188 97.519531 35.152344 C 97.738281 35.3125 97.863281 35.527344 97.902344 35.792969 C 97.941406 36.058594 97.878906 36.296875 97.71875 36.511719 C 97.558594 36.726562 97.34375 36.855469 97.078125 36.894531 C 96.75 36.921875 95.195312 37.125 94.964844 37.125 Z M 94.964844 37.125 " fill-opacity="1" fill-rule="nonzero"/><path fill="#5955a1" d="M 103.960938 44.144531 C 104.414062 43.949219 104.855469 43.726562 105.285156 43.480469 C 105.394531 43.402344 105.515625 43.347656 105.648438 43.316406 C 105.78125 43.289062 105.917969 43.289062 106.050781 43.316406 C 106.183594 43.34375 106.304688 43.398438 106.417969 43.480469 C 106.527344 43.558594 106.617188 43.65625 106.6875 43.773438 C 106.753906 43.890625 106.796875 44.019531 106.8125 44.152344 C 106.824219 44.289062 106.8125 44.421875 106.769531 44.550781 C 106.730469 44.679688 106.664062 44.796875 106.570312 44.898438 C 106.480469 45 106.375 45.078125 106.25 45.132812 C 105.757812 45.421875 105.25 45.679688 104.722656 45.902344 C 104.484375 45.984375 104.25 45.972656 104.023438 45.871094 C 103.792969 45.769531 103.628906 45.601562 103.527344 45.375 C 103.429688 45.144531 103.421875 44.910156 103.503906 44.675781 C 103.585938 44.4375 103.738281 44.261719 103.960938 44.144531 Z M 103.960938 44.144531 " fill-opacity="1" fill-rule="nonzero"/><path fill="#5955a1" d="M 100.042969 47.355469 C 99.773438 47.386719 99.535156 47.320312 99.324219 47.152344 C 99.117188 46.984375 98.996094 46.769531 98.964844 46.503906 C 98.933594 46.238281 99.003906 46 99.167969 45.792969 C 99.335938 45.582031 99.550781 45.464844 99.820312 45.433594 C 100.390625 45.308594 100.9375 45.164062 101.460938 45.007812 C 101.714844 44.933594 101.960938 44.960938 102.195312 45.089844 C 102.425781 45.21875 102.582031 45.410156 102.65625 45.664062 C 102.730469 45.917969 102.703125 46.160156 102.574219 46.394531 C 102.449219 46.628906 102.257812 46.78125 102 46.855469 C 101.355469 47.058594 100.703125 47.226562 100.042969 47.355469 Z M 100.042969 47.355469 " fill-opacity="1" fill-rule="nonzero"/><path fill="#5955a1" d="M 94.964844 48.171875 C 94.695312 48.1875 94.464844 48.105469 94.265625 47.925781 C 94.066406 47.746094 93.960938 47.523438 93.949219 47.257812 C 93.9375 46.992188 94.019531 46.761719 94.199219 46.566406 C 94.378906 46.367188 94.601562 46.261719 94.867188 46.25 C 95.511719 46.183594 96.140625 46.105469 96.796875 46.007812 C 96.925781 45.992188 97.050781 45.996094 97.175781 46.027344 C 97.300781 46.058594 97.414062 46.113281 97.519531 46.1875 C 97.621094 46.265625 97.707031 46.359375 97.773438 46.46875 C 97.839844 46.582031 97.878906 46.699219 97.898438 46.828125 C 97.933594 47.089844 97.875 47.328125 97.714844 47.539062 C 97.554688 47.75 97.339844 47.875 97.078125 47.914062 C 96.75 47.972656 95.195312 48.171875 94.964844 48.171875 Z M 94.964844 48.171875 " fill-opacity="1" fill-rule="nonzero"/><path fill="#5955a1" d="M 104.347656 57.039062 C 104.117188 57.039062 103.914062 56.96875 103.734375 56.824219 C 103.554688 56.683594 103.441406 56.5 103.394531 56.273438 C 103.347656 56.050781 103.375 55.835938 103.484375 55.632812 C 103.589844 55.429688 103.75 55.28125 103.960938 55.191406 C 104.417969 55 104.855469 54.78125 105.285156 54.53125 C 105.511719 54.410156 105.75 54.386719 106 54.457031 C 106.25 54.53125 106.4375 54.675781 106.566406 54.898438 C 106.695312 55.125 106.730469 55.359375 106.667969 55.609375 C 106.605469 55.859375 106.46875 56.054688 106.25 56.191406 C 105.796875 56.453125 105.285156 56.710938 104.722656 56.960938 C 104.601562 57.011719 104.476562 57.035156 104.347656 57.039062 Z M 104.347656 57.039062 " fill-opacity="1" fill-rule="nonzero"/><path fill="#5955a1" d="M 100.042969 58.40625 C 99.773438 58.433594 99.535156 58.367188 99.328125 58.199219 C 99.117188 58.035156 98.996094 57.820312 98.964844 57.554688 C 98.9375 57.289062 99.003906 57.050781 99.171875 56.839844 C 99.335938 56.632812 99.554688 56.511719 99.820312 56.480469 C 100.390625 56.347656 100.9375 56.210938 101.460938 56.058594 C 101.714844 55.984375 101.960938 56.011719 102.195312 56.140625 C 102.425781 56.265625 102.582031 56.457031 102.65625 56.710938 C 102.730469 56.96875 102.703125 57.210938 102.574219 57.445312 C 102.449219 57.675781 102.257812 57.828125 102 57.90625 C 101.355469 58.109375 100.703125 58.273438 100.042969 58.40625 Z M 100.042969 58.40625 " fill-opacity="1" fill-rule="nonzero"/><path fill="#5955a1" d="M 94.964844 59.230469 C 94.695312 59.246094 94.464844 59.164062 94.265625 58.984375 C 94.066406 58.804688 93.960938 58.582031 93.949219 58.316406 C 93.9375 58.050781 94.019531 57.820312 94.199219 57.625 C 94.378906 57.425781 94.601562 57.320312 94.867188 57.308594 C 95.511719 57.246094 96.152344 57.167969 96.796875 57.078125 C 97.0625 57.039062 97.304688 57.101562 97.519531 57.261719 C 97.738281 57.421875 97.863281 57.632812 97.902344 57.898438 C 97.941406 58.164062 97.878906 58.40625 97.71875 58.621094 C 97.558594 58.835938 97.34375 58.960938 97.078125 59 C 96.679688 59.03125 95.183594 59.230469 94.964844 59.230469 Z M 94.964844 59.230469 " fill-opacity="1" fill-rule="nonzero"/><g clip-path="url(#b692bd3e80)"><path fill="#619fff" d="M 55.234375 46.652344 L 55.234375 57.710938 C 55.234375 61.222656 46.808594 64.078125 36.417969 64.078125 C 26.03125 64.078125 17.585938 61.222656 17.585938 57.710938 L 17.585938 46.652344 Z M 55.234375 46.652344 " fill-opacity="1" fill-rule="nonzero"/></g><g clip-path="url(#93cc63ea1b)"><path fill="#dbecff" d="M 55.234375 35.59375 L 55.234375 46.652344 C 55.234375 50.171875 46.808594 53.019531 36.417969 53.019531 C 26.03125 53.019531 17.585938 50.171875 17.585938 46.652344 L 17.585938 35.59375 Z M 55.234375 35.59375 " fill-opacity="1" fill-rule="nonzero"/></g><g clip-path="url(#a3c2aa83f2)"><path fill="#619fff" d="M 55.234375 24.535156 L 55.234375 35.59375 C 55.234375 39.113281 46.808594 41.960938 36.417969 41.960938 C 26.03125 41.960938 17.585938 39.113281 17.585938 35.59375 L 17.585938 24.535156 Z M 55.234375 24.535156 " fill-opacity="1" fill-rule="nonzero"/></g><g clip-path="url(#0c49b30db8)"><path fill="#dbecff" d="M 55.234375 13.476562 L 55.234375 24.535156 C 55.234375 28.054688 46.808594 30.914062 36.417969 30.914062 C 26.03125 30.914062 17.585938 28.054688 17.585938 24.535156 L 17.585938 13.476562 Z M 55.234375 13.476562 " fill-opacity="1" fill-rule="nonzero"/></g><path fill="#6177eb" d="M 38.660156 46.652344 L 38.660156 64.03125 C 48.003906 63.65625 55.234375 60.972656 55.234375 57.710938 L 55.234375 46.652344 Z M 38.660156 46.652344 " fill-opacity="1" fill-rule="nonzero"/><path fill="#b3bfff" d="M 38.660156 35.59375 L 38.660156 52.972656 C 48.003906 52.597656 55.234375 49.921875 55.234375 46.652344 L 55.234375 35.59375 Z M 38.660156 35.59375 " fill-opacity="1" fill-rule="nonzero"/><path fill="#6177eb" d="M 38.660156 24.535156 L 38.660156 41.914062 C 48.003906 41.539062 55.234375 38.863281 55.234375 35.59375 L 55.234375 24.535156 Z M 38.660156 24.535156 " fill-opacity="1" fill-rule="nonzero"/><path fill="#b3bfff" d="M 38.660156 13.476562 L 38.660156 30.863281 C 48.003906 30.488281 55.234375 27.804688 55.234375 24.535156 L 55.234375 13.476562 Z M 38.660156 13.476562 " fill-opacity="1" fill-rule="nonzero"/><g clip-path="url(#d0aab55172)"><path fill="#f9f6ff" d="M 55.273438 13.476562 C 55.273438 13.894531 55.152344 14.308594 54.914062 14.71875 C 54.671875 15.128906 54.3125 15.527344 53.839844 15.914062 C 53.367188 16.300781 52.789062 16.667969 52.101562 17.015625 C 51.414062 17.363281 50.632812 17.683594 49.761719 17.980469 C 48.886719 18.273438 47.933594 18.539062 46.90625 18.769531 C 45.878906 19.003906 44.796875 19.199219 43.652344 19.359375 C 42.511719 19.519531 41.332031 19.640625 40.121094 19.722656 C 38.910156 19.804688 37.683594 19.84375 36.449219 19.84375 C 35.210938 19.84375 33.988281 19.804688 32.777344 19.722656 C 31.5625 19.640625 30.386719 19.519531 29.246094 19.359375 C 28.101562 19.199219 27.015625 19.003906 25.988281 18.769531 C 24.960938 18.539062 24.011719 18.273438 23.136719 17.980469 C 22.261719 17.683594 21.480469 17.363281 20.796875 17.015625 C 20.109375 16.667969 19.527344 16.300781 19.054688 15.914062 C 18.582031 15.527344 18.226562 15.128906 17.984375 14.71875 C 17.742188 14.308594 17.621094 13.894531 17.621094 13.476562 C 17.621094 13.058594 17.742188 12.644531 17.984375 12.238281 C 18.226562 11.828125 18.582031 11.429688 19.054688 11.042969 C 19.527344 10.65625 20.109375 10.289062 20.796875 9.941406 C 21.480469 9.59375 22.261719 9.273438 23.136719 8.976562 C 24.011719 8.679688 24.960938 8.417969 25.988281 8.183594 C 27.015625 7.953125 28.101562 7.757812 29.246094 7.597656 C 30.386719 7.4375 31.5625 7.316406 32.777344 7.234375 C 33.988281 7.152344 35.210938 7.113281 36.449219 7.113281 C 37.683594 7.113281 38.910156 7.152344 40.121094 7.234375 C 41.332031 7.316406 42.511719 7.4375 43.652344 7.597656 C 44.796875 7.757812 45.878906 7.953125 46.90625 8.183594 C 47.933594 8.417969 48.886719 8.679688 49.761719 8.976562 C 50.632812 9.273438 51.414062 9.59375 52.101562 9.941406 C 52.789062 10.289062 53.367188 10.65625 53.839844 11.042969 C 54.3125 11.429688 54.671875 11.828125 54.914062 12.238281 C 55.152344 12.644531 55.273438 13.058594 55.273438 13.476562 Z M 55.273438 13.476562 " fill-opacity="1" fill-rule="nonzero"/></g><path fill="#ffffff" d="M 49.355469 13.476562 C 49.355469 13.628906 49.273438 13.777344 49.109375 13.921875 C 48.941406 14.070312 48.699219 14.210938 48.375 14.351562 C 48.050781 14.488281 47.652344 14.621094 47.179688 14.746094 C 46.710938 14.867188 46.175781 14.984375 45.574219 15.089844 C 44.976562 15.195312 44.324219 15.289062 43.621094 15.375 C 42.914062 15.457031 42.171875 15.527344 41.386719 15.582031 C 40.605469 15.640625 39.796875 15.683594 38.96875 15.714844 C 38.136719 15.742188 37.296875 15.757812 36.449219 15.757812 C 35.601562 15.757812 34.761719 15.742188 33.929688 15.714844 C 33.097656 15.683594 32.292969 15.640625 31.507812 15.582031 C 30.726562 15.527344 29.980469 15.457031 29.277344 15.375 C 28.574219 15.289062 27.921875 15.195312 27.320312 15.089844 C 26.722656 14.984375 26.1875 14.867188 25.714844 14.746094 C 25.246094 14.621094 24.847656 14.488281 24.523438 14.351562 C 24.199219 14.210938 23.953125 14.070312 23.789062 13.921875 C 23.625 13.777344 23.539062 13.628906 23.539062 13.476562 C 23.539062 13.328125 23.625 13.179688 23.789062 13.035156 C 23.953125 12.886719 24.199219 12.746094 24.523438 12.605469 C 24.847656 12.46875 25.246094 12.335938 25.714844 12.210938 C 26.1875 12.085938 26.722656 11.972656 27.320312 11.867188 C 27.921875 11.761719 28.574219 11.667969 29.277344 11.582031 C 29.980469 11.5 30.726562 11.429688 31.507812 11.371094 C 32.292969 11.316406 33.097656 11.273438 33.929688 11.242188 C 34.761719 11.214844 35.601562 11.199219 36.449219 11.199219 C 37.296875 11.199219 38.136719 11.214844 38.96875 11.242188 C 39.796875 11.273438 40.605469 11.316406 41.386719 11.371094 C 42.171875 11.429688 42.914062 11.5 43.621094 11.582031 C 44.324219 11.667969 44.976562 11.761719 45.574219 11.867188 C 46.175781 11.972656 46.710938 12.085938 47.179688 12.210938 C 47.652344 12.335938 48.050781 12.46875 48.375 12.605469 C 48.699219 12.746094 48.941406 12.886719 49.109375 13.035156 C 49.273438 13.179688 49.355469 13.328125 49.355469 13.476562 Z M 49.355469 13.476562 " fill-opacity="1" fill-rule="nonzero"/><g clip-path="url(#ea7d120b73)"><path fill="#5955a1" d="M 33.824219 26.363281 C 29.082031 26.160156 21.367188 25.113281 17.585938 22.335938 L 17.585938 19.371094 C 18.132812 21.554688 24.546875 24.054688 33.910156 24.441406 C 34.175781 24.453125 34.398438 24.554688 34.578125 24.753906 C 34.757812 24.949219 34.84375 25.179688 34.832031 25.445312 C 34.820312 25.710938 34.714844 25.933594 34.519531 26.113281 C 34.320312 26.292969 34.089844 26.375 33.824219 26.363281 Z M 33.824219 26.363281 " fill-opacity="1" fill-rule="nonzero"/></g><g clip-path="url(#18a2f25263)"><path fill="#5955a1" d="M 33.824219 37.335938 C 29.09375 37.132812 21.378906 36.113281 17.585938 33.316406 L 17.585938 30.34375 C 18.097656 32.527344 24.507812 35.007812 33.871094 35.414062 C 34.136719 35.417969 34.363281 35.519531 34.546875 35.710938 C 34.730469 35.902344 34.816406 36.132812 34.8125 36.398438 C 34.804688 36.664062 34.703125 36.886719 34.511719 37.070312 C 34.320312 37.253906 34.089844 37.34375 33.824219 37.335938 Z M 33.824219 37.335938 " fill-opacity="1" fill-rule="nonzero"/></g><g clip-path="url(#0eca39bdf3)"><path fill="#5955a1" d="M 33.824219 48.316406 C 29.09375 48.097656 21.347656 47.078125 17.585938 44.25 L 17.585938 41.363281 C 18.097656 43.539062 24.507812 46.027344 33.871094 46.433594 C 34.09375 46.484375 34.277344 46.597656 34.417969 46.78125 C 34.558594 46.960938 34.628906 47.164062 34.621094 47.394531 C 34.617188 47.625 34.539062 47.824219 34.386719 47.996094 C 34.238281 48.171875 34.050781 48.277344 33.824219 48.316406 Z M 33.824219 48.316406 " fill-opacity="1" fill-rule="nonzero"/></g><g clip-path="url(#190cf6bfb5)"><path fill="#5955a1" d="M 33.824219 59.289062 C 27.5 59.011719 20.835938 57.710938 17.585938 55.269531 L 17.585938 52.296875 C 18.097656 54.480469 24.507812 56.960938 33.871094 57.367188 C 34.136719 57.371094 34.363281 57.472656 34.546875 57.664062 C 34.730469 57.855469 34.816406 58.085938 34.8125 58.351562 C 34.804688 58.617188 34.703125 58.839844 34.511719 59.023438 C 34.320312 59.207031 34.089844 59.296875 33.824219 59.289062 Z M 33.824219 59.289062 " fill-opacity="1" fill-rule="nonzero"/></g><g clip-path="url(#0915438138)"><path fill="#5955a1" d="M 81.785156 54.105469 L 81.785156 65.164062 C 81.785156 68.675781 73.355469 71.53125 62.960938 71.53125 C 52.5625 71.53125 44.132812 68.644531 44.132812 65.164062 L 44.132812 54.105469 Z M 81.785156 54.105469 " fill-opacity="1" fill-rule="nonzero"/></g><path fill="#90a5d8" d="M 81.785156 54.105469 L 81.785156 56.75 C 81.785156 60.269531 73.355469 63.117188 62.960938 63.117188 C 52.5625 63.117188 44.132812 60.230469 44.132812 56.75 L 44.132812 54.105469 C 44.132812 57.625 52.5625 60.472656 62.960938 60.472656 C 73.355469 60.472656 81.785156 57.625 81.785156 54.105469 Z M 81.785156 54.105469 " fill-opacity="1" fill-rule="nonzero"/><g clip-path="url(#43c55745ed)"><path fill="#45467e" d="M 60.660156 60.425781 L 60.660156 71.484375 C 51.375 71.097656 44.132812 68.414062 44.132812 65.164062 L 44.132812 54.105469 C 44.132812 57.367188 51.34375 60.039062 60.660156 60.425781 Z M 60.660156 60.425781 " fill-opacity="1" fill-rule="nonzero"/></g><path fill="#7282bf" d="M 81.785156 43.046875 L 81.785156 54.105469 C 81.785156 57.625 73.355469 60.472656 62.960938 60.472656 C 52.5625 60.472656 44.132812 57.585938 44.132812 54.105469 L 44.132812 43.046875 Z M 81.785156 43.046875 " fill-opacity="1" fill-rule="nonzero"/><path fill="#90a5d8" d="M 81.785156 43.046875 L 81.785156 45.691406 C 81.785156 49.210938 73.355469 52.058594 62.960938 52.058594 C 52.5625 52.058594 44.132812 49.171875 44.132812 45.691406 L 44.132812 43.046875 C 44.132812 46.566406 52.5625 49.414062 62.960938 49.414062 C 73.355469 49.414062 81.785156 46.566406 81.785156 43.046875 Z M 81.785156 43.046875 " fill-opacity="1" fill-rule="nonzero"/><path fill="#5955a1" d="M 81.785156 31.988281 L 81.785156 43.046875 C 81.785156 46.566406 73.355469 49.414062 62.960938 49.414062 C 52.5625 49.414062 44.132812 46.527344 44.132812 43.046875 L 44.132812 31.988281 Z M 81.785156 31.988281 " fill-opacity="1" fill-rule="nonzero"/><path fill="#90a5d8" d="M 81.785156 31.988281 L 81.785156 34.632812 C 81.785156 38.152344 73.355469 41 62.960938 41 C 52.5625 41 44.132812 38.113281 44.132812 34.632812 L 44.132812 31.988281 C 44.132812 35.507812 52.5625 38.355469 62.960938 38.355469 C 73.355469 38.355469 81.785156 35.507812 81.785156 31.988281 Z M 81.785156 31.988281 " fill-opacity="1" fill-rule="nonzero"/><path fill="#45467e" d="M 60.660156 38.308594 L 60.660156 49.367188 C 51.375 48.980469 44.132812 46.296875 44.132812 43.046875 L 44.132812 31.988281 C 44.132812 35.25 51.34375 37.921875 60.660156 38.308594 Z M 60.660156 38.308594 " fill-opacity="1" fill-rule="nonzero"/><path fill="#7282bf" d="M 81.785156 20.929688 L 81.785156 31.988281 C 81.785156 35.507812 73.355469 38.355469 62.960938 38.355469 C 52.5625 38.355469 44.132812 35.46875 44.132812 31.988281 L 44.132812 20.929688 Z M 81.785156 20.929688 " fill-opacity="1" fill-rule="nonzero"/><path fill="#90a5d8" d="M 81.785156 20.929688 L 81.785156 23.574219 C 81.785156 27.09375 73.355469 29.941406 62.960938 29.941406 C 52.5625 29.941406 44.132812 27.054688 44.132812 23.574219 L 44.132812 20.929688 C 44.132812 24.449219 52.5625 27.296875 62.960938 27.296875 C 73.355469 27.296875 81.785156 24.449219 81.785156 20.929688 Z M 81.785156 20.929688 " fill-opacity="1" fill-rule="nonzero"/><path fill="#5955a1" d="M 81.785156 9.871094 L 81.785156 20.929688 C 81.785156 24.449219 73.355469 27.304688 62.960938 27.304688 C 52.5625 27.304688 44.132812 24.421875 44.132812 20.929688 L 44.132812 9.871094 Z M 81.785156 9.871094 " fill-opacity="1" fill-rule="nonzero"/><path fill="#90a5d8" d="M 81.785156 9.871094 L 81.785156 12.515625 C 81.785156 16.035156 73.355469 18.882812 62.960938 18.882812 C 52.5625 18.882812 44.132812 15.996094 44.132812 12.515625 L 44.132812 9.871094 C 44.132812 13.390625 52.5625 16.238281 62.960938 16.238281 C 73.355469 16.238281 81.785156 13.390625 81.785156 9.871094 Z M 81.785156 9.871094 " fill-opacity="1" fill-rule="nonzero"/><path fill="#45467e" d="M 60.660156 16.191406 L 60.660156 27.25 C 51.375 26.863281 44.132812 24.179688 44.132812 20.929688 L 44.132812 9.871094 C 44.132812 13.132812 51.34375 15.804688 60.660156 16.191406 Z M 60.660156 16.191406 " fill-opacity="1" fill-rule="nonzero"/><path fill="#5e69a6" d="M 60.660156 27.25 L 60.660156 38.308594 C 51.375 37.921875 44.132812 35.238281 44.132812 31.988281 L 44.132812 20.929688 C 44.132812 24.191406 51.34375 26.863281 60.660156 27.25 Z M 60.660156 27.25 " fill-opacity="1" fill-rule="nonzero"/><path fill="#5e69a6" d="M 60.660156 49.367188 L 60.660156 60.425781 C 51.375 60.039062 44.132812 57.355469 44.132812 54.105469 L 44.132812 43.046875 C 44.132812 46.308594 51.34375 48.980469 60.660156 49.367188 Z M 60.660156 49.367188 " fill-opacity="1" fill-rule="nonzero"/><g clip-path="url(#14143b8640)"><path fill="#7282bf" d="M 81.785156 9.871094 C 81.785156 10.289062 81.664062 10.703125 81.421875 11.113281 C 81.183594 11.523438 80.824219 11.921875 80.351562 12.308594 C 79.878906 12.695312 79.300781 13.0625 78.613281 13.410156 C 77.925781 13.757812 77.144531 14.078125 76.269531 14.375 C 75.398438 14.667969 74.445312 14.933594 73.417969 15.164062 C 72.390625 15.398438 71.304688 15.59375 70.164062 15.753906 C 69.023438 15.914062 67.84375 16.035156 66.632812 16.117188 C 65.417969 16.199219 64.195312 16.238281 62.960938 16.238281 C 61.722656 16.238281 60.5 16.199219 59.285156 16.117188 C 58.074219 16.035156 56.898438 15.914062 55.753906 15.753906 C 54.613281 15.59375 53.527344 15.398438 52.5 15.164062 C 51.472656 14.933594 50.519531 14.667969 49.648438 14.375 C 48.773438 14.078125 47.992188 13.757812 47.304688 13.410156 C 46.621094 13.0625 46.039062 12.695312 45.566406 12.308594 C 45.09375 11.921875 44.734375 11.523438 44.496094 11.113281 C 44.253906 10.703125 44.132812 10.289062 44.132812 9.871094 C 44.132812 9.453125 44.253906 9.039062 44.496094 8.628906 C 44.734375 8.21875 45.09375 7.824219 45.566406 7.4375 C 46.039062 7.050781 46.621094 6.683594 47.304688 6.335938 C 47.992188 5.988281 48.773438 5.667969 49.648438 5.371094 C 50.519531 5.074219 51.472656 4.8125 52.5 4.578125 C 53.527344 4.347656 54.613281 4.152344 55.753906 3.992188 C 56.898438 3.832031 58.074219 3.710938 59.285156 3.628906 C 60.5 3.546875 61.722656 3.507812 62.960938 3.507812 C 64.195312 3.507812 65.417969 3.546875 66.632812 3.628906 C 67.84375 3.710938 69.023438 3.832031 70.164062 3.992188 C 71.304688 4.152344 72.390625 4.347656 73.417969 4.578125 C 74.445312 4.8125 75.398438 5.074219 76.269531 5.371094 C 77.144531 5.667969 77.925781 5.988281 78.613281 6.335938 C 79.300781 6.683594 79.878906 7.050781 80.351562 7.4375 C 80.824219 7.824219 81.183594 8.21875 81.421875 8.628906 C 81.664062 9.039062 81.785156 9.453125 81.785156 9.871094 Z M 81.785156 9.871094 " fill-opacity="1" fill-rule="nonzero"/></g><path fill="#9aa5e2" d="M 50.613281 10.652344 C 50.445312 10.59375 50.308594 10.496094 50.207031 10.351562 C 50.105469 10.210938 50.054688 10.050781 50.054688 9.878906 C 50.054688 9.703125 50.105469 9.542969 50.207031 9.402344 C 50.308594 9.257812 50.445312 9.160156 50.613281 9.101562 C 57.273438 6.777344 68.625 6.765625 75.308594 9.101562 C 75.472656 9.160156 75.609375 9.257812 75.710938 9.402344 C 75.8125 9.542969 75.863281 9.703125 75.863281 9.878906 C 75.863281 10.050781 75.8125 10.210938 75.710938 10.351562 C 75.609375 10.496094 75.472656 10.59375 75.308594 10.652344 C 68.644531 12.976562 57.292969 12.988281 50.613281 10.652344 Z M 50.613281 10.652344 " fill-opacity="1" fill-rule="nonzero"/><path fill="#ffffff" d="M 81.785156 15.824219 L 81.785156 18.710938 C 77.527344 21.882812 68.386719 22.765625 62.960938 22.765625 C 62.691406 22.765625 62.464844 22.671875 62.277344 22.484375 C 62.089844 22.296875 61.992188 22.070312 61.992188 21.804688 C 61.992188 21.539062 62.089844 21.3125 62.277344 21.125 C 62.464844 20.9375 62.691406 20.84375 62.960938 20.84375 C 74.089844 20.890625 81.128906 18.046875 81.785156 15.824219 Z M 81.785156 15.824219 " fill-opacity="1" fill-rule="nonzero"/><path fill="#ffffff" d="M 81.785156 26.796875 L 81.785156 29.679688 C 77.585938 32.824219 68.472656 33.75 62.960938 33.75 C 62.691406 33.75 62.464844 33.65625 62.277344 33.46875 C 62.089844 33.28125 61.992188 33.054688 61.992188 32.789062 C 61.992188 32.523438 62.089844 32.296875 62.277344 32.105469 C 62.464844 31.917969 62.691406 31.824219 62.960938 31.824219 C 74.089844 31.875 81.128906 29.019531 81.785156 26.796875 Z M 81.785156 26.796875 " fill-opacity="1" fill-rule="nonzero"/><path fill="#ffffff" d="M 81.785156 37.777344 L 81.785156 40.664062 C 77.574219 43.863281 68.386719 44.769531 62.960938 44.769531 C 62.691406 44.769531 62.464844 44.675781 62.277344 44.488281 C 62.089844 44.300781 61.992188 44.074219 61.992188 43.808594 C 61.992188 43.542969 62.089844 43.316406 62.277344 43.128906 C 62.464844 42.941406 62.691406 42.847656 62.960938 42.847656 C 74.089844 42.847656 81.128906 40 81.785156 37.777344 Z M 81.785156 37.777344 " fill-opacity="1" fill-rule="nonzero"/><path fill="#ffffff" d="M 81.785156 48.75 L 81.785156 51.683594 C 77.546875 54.828125 68.375 55.789062 62.960938 55.789062 C 62.691406 55.789062 62.464844 55.695312 62.277344 55.507812 C 62.089844 55.320312 61.992188 55.09375 61.992188 54.828125 C 61.992188 54.5625 62.089844 54.335938 62.277344 54.148438 C 62.464844 53.960938 62.691406 53.867188 62.960938 53.867188 C 74.089844 53.867188 81.128906 50.980469 81.785156 48.75 Z M 81.785156 48.75 " fill-opacity="1" fill-rule="nonzero"/><path fill="#ffffff" d="M 81.785156 59.394531 L 81.785156 62.625 C 78.25 65.308594 70.429688 66.722656 62.960938 66.722656 C 62.691406 66.722656 62.464844 66.628906 62.277344 66.441406 C 62.089844 66.253906 61.992188 66.027344 61.992188 65.761719 C 61.992188 65.496094 62.089844 65.269531 62.277344 65.082031 C 62.464844 64.894531 62.691406 64.800781 62.960938 64.800781 C 74.621094 64.800781 81.785156 61.644531 81.785156 59.394531 Z M 81.785156 59.394531 " fill-opacity="1" fill-rule="nonzero"/><path fill="#aed8ff" d="M 48.082031 31.324219 C 47.949219 31.324219 47.820312 31.296875 47.695312 31.25 C 47.171875 31.023438 46.664062 30.765625 46.171875 30.480469 C 45.953125 30.339844 45.8125 30.148438 45.75 29.898438 C 45.6875 29.648438 45.722656 29.410156 45.851562 29.1875 C 45.980469 28.964844 46.171875 28.816406 46.417969 28.746094 C 46.667969 28.671875 46.90625 28.695312 47.136719 28.816406 C 47.5625 29.066406 48.003906 29.289062 48.457031 29.488281 C 48.664062 29.582031 48.816406 29.726562 48.917969 29.929688 C 49.019531 30.128906 49.050781 30.335938 49.003906 30.558594 C 48.960938 30.777344 48.851562 30.957031 48.679688 31.101562 C 48.503906 31.246094 48.308594 31.320312 48.082031 31.324219 Z M 48.082031 31.324219 " fill-opacity="1" fill-rule="nonzero"/><path fill="#aed8ff" d="M 52.398438 32.710938 C 51.746094 32.585938 51.101562 32.425781 50.464844 32.230469 C 50.210938 32.15625 50.019531 32 49.890625 31.769531 C 49.761719 31.535156 49.738281 31.292969 49.8125 31.039062 C 49.886719 30.78125 50.039062 30.589844 50.273438 30.464844 C 50.507812 30.335938 50.75 30.308594 51.007812 30.382812 C 51.527344 30.539062 52.070312 30.679688 52.640625 30.804688 C 52.886719 30.855469 53.089844 30.980469 53.238281 31.1875 C 53.386719 31.390625 53.445312 31.621094 53.414062 31.871094 C 53.382812 32.121094 53.269531 32.328125 53.070312 32.492188 C 52.875 32.652344 52.652344 32.726562 52.398438 32.710938 Z M 52.398438 32.710938 " fill-opacity="1" fill-rule="nonzero"/><path fill="#aed8ff" d="M 57.464844 33.519531 C 57.234375 33.519531 55.777344 33.324219 55.398438 33.269531 C 55.132812 33.230469 54.917969 33.101562 54.757812 32.886719 C 54.597656 32.671875 54.535156 32.433594 54.574219 32.167969 C 54.613281 31.902344 54.742188 31.6875 54.957031 31.527344 C 55.171875 31.367188 55.414062 31.304688 55.679688 31.34375 C 56.296875 31.429688 56.925781 31.519531 57.609375 31.574219 C 57.878906 31.589844 58.101562 31.695312 58.277344 31.894531 C 58.457031 32.09375 58.539062 32.324219 58.523438 32.589844 C 58.507812 32.855469 58.402344 33.078125 58.203125 33.253906 C 58.003906 33.433594 57.769531 33.511719 57.503906 33.5 Z M 57.464844 33.519531 " fill-opacity="1" fill-rule="nonzero"/><path fill="#aed8ff" d="M 48.082031 42.382812 C 47.945312 42.382812 47.820312 42.351562 47.695312 42.296875 C 47.171875 42.070312 46.664062 41.816406 46.171875 41.527344 C 45.941406 41.394531 45.792969 41.199219 45.726562 40.945312 C 45.660156 40.691406 45.691406 40.449219 45.824219 40.21875 C 45.957031 39.992188 46.152344 39.839844 46.410156 39.773438 C 46.671875 39.707031 46.914062 39.738281 47.144531 39.875 C 47.574219 40.121094 48.015625 40.34375 48.46875 40.539062 C 48.679688 40.628906 48.839844 40.773438 48.945312 40.976562 C 49.050781 41.179688 49.082031 41.394531 49.035156 41.617188 C 48.988281 41.84375 48.875 42.027344 48.695312 42.171875 C 48.515625 42.316406 48.3125 42.386719 48.082031 42.382812 Z M 48.082031 42.382812 " fill-opacity="1" fill-rule="nonzero"/><path fill="#aed8ff" d="M 52.398438 43.75 C 51.726562 43.632812 51.0625 43.480469 50.410156 43.289062 C 50.152344 43.214844 49.960938 43.058594 49.832031 42.828125 C 49.703125 42.59375 49.675781 42.351562 49.75 42.09375 C 49.824219 41.839844 49.980469 41.648438 50.214844 41.519531 C 50.449219 41.394531 50.691406 41.367188 50.949219 41.441406 C 51.46875 41.585938 52.011719 41.730469 52.582031 41.863281 C 52.804688 41.925781 52.984375 42.054688 53.117188 42.246094 C 53.25 42.441406 53.304688 42.652344 53.28125 42.882812 C 53.257812 43.117188 53.164062 43.3125 52.996094 43.476562 C 52.832031 43.640625 52.628906 43.730469 52.398438 43.75 Z M 52.398438 43.75 " fill-opacity="1" fill-rule="nonzero"/><path fill="#aed8ff" d="M 57.464844 44.566406 C 57.234375 44.566406 55.777344 44.375 55.398438 44.328125 C 55.132812 44.289062 54.917969 44.160156 54.757812 43.945312 C 54.597656 43.730469 54.535156 43.492188 54.574219 43.226562 C 54.613281 42.960938 54.742188 42.746094 54.957031 42.585938 C 55.171875 42.425781 55.414062 42.363281 55.679688 42.402344 C 56.296875 42.488281 56.925781 42.566406 57.609375 42.632812 C 57.878906 42.648438 58.101562 42.753906 58.277344 42.953125 C 58.457031 43.152344 58.539062 43.382812 58.523438 43.648438 C 58.507812 43.914062 58.402344 44.136719 58.203125 44.3125 C 58.003906 44.492188 57.769531 44.570312 57.503906 44.558594 Z M 57.464844 44.566406 " fill-opacity="1" fill-rule="nonzero"/><path fill="#aed8ff" d="M 48.082031 20.613281 C 47.949219 20.613281 47.820312 20.589844 47.695312 20.535156 C 47.171875 20.3125 46.664062 20.054688 46.171875 19.765625 C 46.046875 19.710938 45.9375 19.632812 45.847656 19.53125 C 45.757812 19.429688 45.691406 19.3125 45.648438 19.183594 C 45.605469 19.054688 45.59375 18.921875 45.609375 18.785156 C 45.625 18.652344 45.664062 18.523438 45.734375 18.40625 C 45.800781 18.289062 45.890625 18.191406 46.003906 18.113281 C 46.113281 18.03125 46.234375 17.976562 46.367188 17.949219 C 46.503906 17.921875 46.636719 17.921875 46.769531 17.949219 C 46.902344 17.980469 47.027344 18.03125 47.136719 18.113281 C 47.53125 18.335938 47.976562 18.566406 48.457031 18.777344 C 48.664062 18.871094 48.816406 19.015625 48.917969 19.214844 C 49.019531 19.414062 49.050781 19.625 49.003906 19.84375 C 48.960938 20.0625 48.851562 20.246094 48.679688 20.390625 C 48.503906 20.535156 48.308594 20.609375 48.082031 20.613281 Z M 48.082031 20.613281 " fill-opacity="1" fill-rule="nonzero"/><path fill="#aed8ff" d="M 52.398438 21.988281 C 51.746094 21.863281 51.101562 21.703125 50.464844 21.507812 C 50.210938 21.433594 50.019531 21.28125 49.890625 21.046875 C 49.761719 20.8125 49.734375 20.570312 49.808594 20.316406 C 49.886719 20.058594 50.039062 19.867188 50.273438 19.742188 C 50.507812 19.613281 50.75 19.585938 51.007812 19.660156 C 51.527344 19.816406 52.070312 19.960938 52.640625 20.085938 C 52.886719 20.132812 53.089844 20.257812 53.238281 20.464844 C 53.386719 20.667969 53.445312 20.898438 53.414062 21.148438 C 53.382812 21.402344 53.269531 21.605469 53.070312 21.769531 C 52.875 21.929688 52.652344 22.003906 52.398438 21.988281 Z M 52.398438 21.988281 " fill-opacity="1" fill-rule="nonzero"/><path fill="#aed8ff" d="M 57.464844 22.804688 C 57.234375 22.804688 55.777344 22.613281 55.398438 22.554688 C 55.132812 22.515625 54.917969 22.390625 54.757812 22.175781 C 54.597656 21.960938 54.535156 21.71875 54.574219 21.453125 C 54.613281 21.1875 54.742188 20.976562 54.957031 20.816406 C 55.171875 20.65625 55.414062 20.59375 55.679688 20.632812 C 56.296875 20.730469 56.925781 20.804688 57.609375 20.871094 C 57.878906 20.886719 58.101562 20.992188 58.277344 21.191406 C 58.457031 21.390625 58.539062 21.621094 58.523438 21.886719 C 58.507812 22.152344 58.402344 22.375 58.203125 22.550781 C 58.003906 22.730469 57.769531 22.8125 57.503906 22.796875 Z M 57.464844 22.804688 " fill-opacity="1" fill-rule="nonzero"/><path fill="#aed8ff" d="M 48.082031 53.433594 C 47.949219 53.433594 47.820312 53.410156 47.695312 53.355469 C 47.171875 53.128906 46.664062 52.871094 46.171875 52.585938 C 45.941406 52.453125 45.789062 52.257812 45.722656 52 C 45.652344 51.742188 45.6875 51.5 45.824219 51.269531 C 45.957031 51.039062 46.152344 50.890625 46.410156 50.824219 C 46.671875 50.753906 46.914062 50.789062 47.144531 50.921875 C 47.574219 51.171875 48.015625 51.398438 48.46875 51.597656 C 48.671875 51.691406 48.828125 51.835938 48.929688 52.039062 C 49.03125 52.238281 49.058594 52.449219 49.011719 52.667969 C 48.964844 52.890625 48.855469 53.070312 48.683594 53.214844 C 48.507812 53.355469 48.308594 53.429688 48.082031 53.433594 Z M 48.082031 53.433594 " fill-opacity="1" fill-rule="nonzero"/><path fill="#aed8ff" d="M 52.398438 54.828125 C 51.746094 54.703125 51.101562 54.542969 50.464844 54.347656 C 50.210938 54.273438 50.019531 54.117188 49.890625 53.886719 C 49.761719 53.652344 49.734375 53.410156 49.808594 53.152344 C 49.882812 52.898438 50.039062 52.707031 50.273438 52.578125 C 50.507812 52.453125 50.75 52.425781 51.007812 52.5 C 51.527344 52.652344 52.070312 52.796875 52.640625 52.921875 C 52.886719 52.972656 53.089844 53.097656 53.238281 53.304688 C 53.386719 53.507812 53.445312 53.738281 53.414062 53.988281 C 53.382812 54.238281 53.269531 54.445312 53.070312 54.609375 C 52.875 54.769531 52.652344 54.84375 52.398438 54.828125 Z M 52.398438 54.828125 " fill-opacity="1" fill-rule="nonzero"/><path fill="#aed8ff" d="M 57.464844 55.625 C 57.234375 55.625 55.777344 55.433594 55.398438 55.375 C 55.132812 55.335938 54.917969 55.210938 54.757812 54.996094 C 54.597656 54.78125 54.535156 54.539062 54.574219 54.273438 C 54.613281 54.007812 54.742188 53.796875 54.957031 53.636719 C 55.171875 53.476562 55.414062 53.414062 55.679688 53.453125 C 56.296875 53.546875 56.925781 53.625 57.609375 53.691406 C 57.878906 53.707031 58.101562 53.8125 58.277344 54.011719 C 58.457031 54.210938 58.539062 54.441406 58.523438 54.707031 C 58.507812 54.972656 58.402344 55.195312 58.203125 55.371094 C 58.003906 55.550781 57.769531 55.628906 57.503906 55.617188 Z M 57.464844 55.625 " fill-opacity="1" fill-rule="nonzero"/><path fill="#aed8ff" d="M 48.082031 64.492188 C 47.945312 64.488281 47.820312 64.460938 47.695312 64.40625 C 47.144531 64.164062 46.632812 63.90625 46.171875 63.644531 C 46.054688 63.585938 45.953125 63.503906 45.871094 63.402344 C 45.789062 63.300781 45.726562 63.1875 45.691406 63.0625 C 45.652344 62.933594 45.644531 62.808594 45.660156 62.675781 C 45.675781 62.546875 45.714844 62.425781 45.78125 62.3125 C 45.847656 62.199219 45.933594 62.101562 46.039062 62.023438 C 46.144531 61.945312 46.261719 61.890625 46.386719 61.859375 C 46.515625 61.828125 46.644531 61.824219 46.773438 61.84375 C 46.90625 61.867188 47.023438 61.910156 47.136719 61.980469 C 47.5625 62.226562 48.003906 62.449219 48.457031 62.644531 C 48.667969 62.734375 48.828125 62.878906 48.933594 63.082031 C 49.042969 63.285156 49.070312 63.496094 49.027344 63.722656 C 48.980469 63.945312 48.871094 64.128906 48.691406 64.273438 C 48.515625 64.417969 48.3125 64.492188 48.082031 64.492188 Z M 48.082031 64.492188 " fill-opacity="1" fill-rule="nonzero"/><path fill="#aed8ff" d="M 52.398438 65.855469 C 51.726562 65.742188 51.0625 65.59375 50.410156 65.40625 C 50.152344 65.332031 49.960938 65.175781 49.832031 64.945312 C 49.703125 64.710938 49.675781 64.46875 49.75 64.210938 C 49.824219 63.957031 49.980469 63.765625 50.214844 63.636719 C 50.449219 63.511719 50.691406 63.484375 50.949219 63.558594 C 51.46875 63.703125 52.011719 63.847656 52.582031 63.980469 C 52.800781 64.050781 52.972656 64.179688 53.101562 64.367188 C 53.226562 64.558594 53.277344 64.765625 53.257812 64.992188 C 53.234375 65.222656 53.144531 65.414062 52.980469 65.578125 C 52.820312 65.738281 52.625 65.832031 52.398438 65.855469 Z M 52.398438 65.855469 " fill-opacity="1" fill-rule="nonzero"/><path fill="#aed8ff" d="M 57.464844 66.683594 C 57.234375 66.683594 55.777344 66.492188 55.398438 66.433594 C 55.132812 66.394531 54.917969 66.269531 54.757812 66.054688 C 54.597656 65.839844 54.535156 65.597656 54.574219 65.332031 C 54.613281 65.066406 54.742188 64.855469 54.957031 64.695312 C 55.171875 64.535156 55.414062 64.472656 55.679688 64.511719 C 56.296875 64.597656 56.925781 64.675781 57.609375 64.742188 C 57.878906 64.757812 58.097656 64.863281 58.277344 65.0625 C 58.453125 65.257812 58.535156 65.492188 58.519531 65.757812 C 58.507812 66.019531 58.398438 66.242188 58.203125 66.417969 C 58.003906 66.597656 57.769531 66.679688 57.503906 66.664062 Z M 57.464844 66.683594 " fill-opacity="1" fill-rule="nonzero"/><g fill="#216be9" fill-opacity="1"><g transform="translate(117.420357, 50.967642)"><g><path d="M 16.449219 0.585938 C 23.003906 0.585938 27.636719 -4.175781 27.636719 -10.980469 C 27.636719 -17.703125 23.003906 -22.503906 16.449219 -22.503906 C 13.734375 -22.503906 11.355469 -21.667969 9.519531 -20.207031 L 9.519531 -30.894531 L 3.171875 -30.894531 L 3.171875 0 L 7.890625 0 L 8.601562 -2.503906 C 10.5625 -0.542969 13.277344 0.585938 16.449219 0.585938 Z M 9.269531 -10.980469 C 9.269531 -14.527344 11.773438 -17.074219 15.320312 -17.074219 C 18.914062 -17.074219 21.375 -14.527344 21.375 -10.980469 C 21.375 -7.390625 18.914062 -4.882812 15.320312 -4.882812 C 11.773438 -4.882812 9.269531 -7.390625 9.269531 -10.980469 Z M 9.269531 -10.980469 "/></g></g></g><g fill="#216be9" fill-opacity="1"><g transform="translate(146.264697, 50.967642)"><g><path d="M 3.171875 0 L 9.519531 0 L 9.519531 -30.894531 L 3.171875 -30.894531 Z M 3.171875 0 "/></g></g></g><g fill="#216be9" fill-opacity="1"><g transform="translate(158.537053, 50.967642)"><g><path d="M 13.945312 0.585938 C 21.207031 0.585938 26.21875 -4.132812 26.21875 -10.980469 C 26.21875 -17.785156 21.207031 -22.503906 13.945312 -22.503906 C 6.636719 -22.503906 1.628906 -17.785156 1.628906 -10.980469 C 1.628906 -4.132812 6.636719 0.585938 13.945312 0.585938 Z M 7.890625 -10.980469 C 7.890625 -14.570312 10.394531 -17.074219 13.945312 -17.074219 C 17.492188 -17.074219 19.957031 -14.570312 19.957031 -10.980469 C 19.957031 -7.390625 17.492188 -4.882812 13.945312 -4.882812 C 10.394531 -4.882812 7.890625 -7.390625 7.890625 -10.980469 Z M 7.890625 -10.980469 "/></g></g></g><g fill="#216be9" fill-opacity="1"><g transform="translate(185.962124, 50.967642)"><g><path d="M 13.859375 9.269531 C 20.875 9.269531 25.34375 5.34375 25.34375 -1.210938 L 25.34375 -21.917969 L 20.625 -21.917969 L 19.957031 -19.496094 C 18.035156 -21.417969 15.363281 -22.503906 12.234375 -22.503906 C 6.054688 -22.503906 1.628906 -17.953125 1.628906 -11.566406 C 1.628906 -5.136719 6.054688 -0.585938 12.234375 -0.585938 C 14.863281 -0.585938 17.199219 -1.378906 18.996094 -2.753906 L 18.996094 -1.210938 C 18.996094 2.339844 17.199219 4.132812 13.734375 4.132812 C 11.105469 4.132812 9.351562 3.046875 8.894531 1.128906 L 2.714844 1.128906 C 3.257812 6.179688 7.515625 9.269531 13.859375 9.269531 Z M 7.890625 -11.566406 C 7.890625 -14.90625 10.230469 -17.242188 13.570312 -17.242188 C 16.910156 -17.242188 19.289062 -14.90625 19.289062 -11.566406 C 19.289062 -8.183594 16.910156 -5.84375 13.570312 -5.84375 C 10.230469 -5.84375 7.890625 -8.183594 7.890625 -11.566406 Z M 7.890625 -11.566406 "/></g></g></g><g fill="#216be9" fill-opacity="1"><g transform="translate(215.180702, 51.02365)"><g><path d="M 1.417969 0 L 5.675781 0 L 9.390625 -4.925781 L 12.0625 -8.558594 L 14.695312 -4.925781 L 18.367188 0 L 22.625 0 L 14.316406 -11.019531 L 22.207031 -21.664062 L 18.035156 -21.664062 L 14.652344 -17.074219 L 12.023438 -13.484375 L 9.433594 -17.074219 L 6.054688 -21.664062 L 1.835938 -21.664062 L 9.726562 -11.019531 Z M 1.417969 0 "/></g></g></g><g fill="#216be9" fill-opacity="1"><g transform="translate(238.843942, 51.02365)"><g><path d="M 15.695312 0.542969 C 22.082031 0.542969 26.714844 -4.257812 26.714844 -10.851562 C 26.714844 -17.40625 22.082031 -22.207031 15.695312 -22.207031 C 12.148438 -22.207031 9.140625 -20.746094 7.179688 -18.324219 L 6.761719 -21.664062 L 3.882812 -21.664062 L 3.882812 8.347656 L 7.386719 8.347656 L 7.386719 -3.089844 C 9.351562 -0.835938 12.273438 0.542969 15.695312 0.542969 Z M 7.261719 -10.851562 C 7.261719 -15.527344 10.5625 -18.867188 15.238281 -18.867188 C 19.953125 -18.867188 23.210938 -15.527344 23.210938 -10.851562 C 23.210938 -6.136719 19.953125 -2.839844 15.238281 -2.839844 C 10.5625 -2.839844 7.261719 -6.136719 7.261719 -10.851562 Z M 7.261719 -10.851562 "/></g></g></g><g fill="#216be9" fill-opacity="1"><g transform="translate(267.306633, 51.02365)"><g><path d="M 3.882812 0 L 7.386719 0 L 7.386719 -10.058594 C 7.386719 -16.238281 10.476562 -18.410156 14.402344 -18.410156 L 16.53125 -18.410156 L 16.53125 -21.664062 L 14.570312 -21.664062 C 10.894531 -21.664062 8.722656 -20.496094 7.179688 -17.90625 L 6.761719 -21.664062 L 3.882812 -21.664062 Z M 3.882812 0 "/></g></g></g><g fill="#216be9" fill-opacity="1"><g transform="translate(285.085311, 51.02365)"><g><path d="M 13.273438 0.542969 C 18.160156 0.542969 22.164062 -2.085938 23.917969 -6.304688 L 19.953125 -6.304688 C 18.617188 -4.007812 16.15625 -2.753906 13.316406 -2.753906 C 9.183594 -2.753906 6.261719 -5.34375 5.71875 -9.433594 L 24.460938 -9.433594 C 24.710938 -16.988281 20.246094 -22.207031 13.316406 -22.207031 C 6.761719 -22.207031 2.171875 -17.53125 2.171875 -10.851562 C 2.171875 -4.132812 6.722656 0.542969 13.273438 0.542969 Z M 5.761719 -12.523438 C 6.386719 -16.363281 9.308594 -18.910156 13.316406 -18.910156 C 17.28125 -18.910156 20.203125 -16.488281 20.957031 -12.523438 Z M 5.761719 -12.523438 "/></g></g></g><g fill="#216be9" fill-opacity="1"><g transform="translate(311.210878, 51.02365)"><g><path d="M 11.730469 0.542969 C 17.074219 0.542969 20.539062 -1.921875 20.539062 -5.675781 C 20.539062 -9.058594 17.699219 -11.355469 12.230469 -12.441406 C 7.722656 -13.316406 6.179688 -14.191406 6.179688 -16.03125 C 6.179688 -17.949219 8.015625 -19.117188 11.144531 -19.117188 C 14.441406 -19.117188 16.40625 -17.824219 16.65625 -15.445312 L 20.121094 -15.445312 C 19.828125 -19.703125 16.445312 -22.207031 11.105469 -22.207031 C 5.886719 -22.207031 2.714844 -19.910156 2.714844 -16.03125 C 2.714844 -12.605469 5.34375 -10.519531 10.9375 -9.601562 C 15.152344 -8.890625 17.074219 -7.722656 17.074219 -5.761719 C 17.074219 -3.796875 15.070312 -2.589844 11.773438 -2.589844 C 8.054688 -2.589844 5.84375 -4.175781 5.71875 -6.804688 L 2.253906 -6.804688 C 2.335938 -2.378906 6.054688 0.542969 11.730469 0.542969 Z M 11.730469 0.542969 "/></g></g></g><g fill="#216be9" fill-opacity="1"><g transform="translate(333.580346, 51.02365)"><g><path d="M 11.730469 0.542969 C 17.074219 0.542969 20.539062 -1.921875 20.539062 -5.675781 C 20.539062 -9.058594 17.699219 -11.355469 12.230469 -12.441406 C 7.722656 -13.316406 6.179688 -14.191406 6.179688 -16.03125 C 6.179688 -17.949219 8.015625 -19.117188 11.144531 -19.117188 C 14.441406 -19.117188 16.40625 -17.824219 16.65625 -15.445312 L 20.121094 -15.445312 C 19.828125 -19.703125 16.445312 -22.207031 11.105469 -22.207031 C 5.886719 -22.207031 2.714844 -19.910156 2.714844 -16.03125 C 2.714844 -12.605469 5.34375 -10.519531 10.9375 -9.601562 C 15.152344 -8.890625 17.074219 -7.722656 17.074219 -5.761719 C 17.074219 -3.796875 15.070312 -2.589844 11.773438 -2.589844 C 8.054688 -2.589844 5.84375 -4.175781 5.71875 -6.804688 L 2.253906 -6.804688 C 2.335938 -2.378906 6.054688 0.542969 11.730469 0.542969 Z M 11.730469 0.542969 "/></g></g></g></svg>