<svg xmlns="http://www.w3.org/2000/svg" xmlns:xlink="http://www.w3.org/1999/xlink" width="500" zoomAndPan="magnify" viewBox="0 0 375 74.999997" height="100" preserveAspectRatio="xMidYMid meet" version="1.0"><defs><g/></defs><g fill="#ffffff" fill-opacity="1"><g transform="translate(43.177242, 42.111817)"><g><path d="M 19.875 0.707031 C 27.796875 0.707031 33.398438 -5.042969 33.398438 -13.269531 C 33.398438 -21.390625 27.796875 -27.191406 19.875 -27.191406 C 16.597656 -27.191406 13.722656 -26.183594 11.503906 -24.417969 L 11.503906 -37.332031 L 3.835938 -37.332031 L 3.835938 0 L 9.535156 0 L 10.390625 -3.027344 C 12.761719 -0.65625 16.042969 0.707031 19.875 0.707031 Z M 11.199219 -13.269531 C 11.199219 -17.554688 14.226562 -20.632812 18.515625 -20.632812 C 22.851562 -20.632812 25.828125 -17.554688 25.828125 -13.269531 C 25.828125 -8.929688 22.851562 -5.902344 18.515625 -5.902344 C 14.226562 -5.902344 11.199219 -8.929688 11.199219 -13.269531 Z M 11.199219 -13.269531 "/></g></g></g><g fill="#ffffff" fill-opacity="1"><g transform="translate(78.031634, 42.111817)"><g><path d="M 3.835938 0 L 11.503906 0 L 11.503906 -37.332031 L 3.835938 -37.332031 Z M 3.835938 0 "/></g></g></g><g fill="#ffffff" fill-opacity="1"><g transform="translate(92.861078, 42.111817)"><g><path d="M 16.851562 0.707031 C 25.628906 0.707031 31.683594 -4.996094 31.683594 -13.269531 C 31.683594 -21.492188 25.628906 -27.191406 16.851562 -27.191406 C 8.019531 -27.191406 1.96875 -21.492188 1.96875 -13.269531 C 1.96875 -4.996094 8.019531 0.707031 16.851562 0.707031 Z M 9.535156 -13.269531 C 9.535156 -17.605469 12.5625 -20.632812 16.851562 -20.632812 C 21.136719 -20.632812 24.113281 -17.605469 24.113281 -13.269531 C 24.113281 -8.929688 21.136719 -5.902344 16.851562 -5.902344 C 12.5625 -5.902344 9.535156 -8.929688 9.535156 -13.269531 Z M 9.535156 -13.269531 "/></g></g></g><g fill="#ffffff" fill-opacity="1"><g transform="translate(126.00048, 42.111817)"><g><path d="M 16.75 11.199219 C 25.222656 11.199219 30.621094 6.457031 30.621094 -1.464844 L 30.621094 -26.484375 L 24.921875 -26.484375 L 24.113281 -23.558594 C 21.792969 -25.878906 18.566406 -27.191406 14.78125 -27.191406 C 7.316406 -27.191406 1.96875 -21.691406 1.96875 -13.972656 C 1.96875 -6.207031 7.316406 -0.707031 14.78125 -0.707031 C 17.960938 -0.707031 20.785156 -1.664062 22.953125 -3.328125 L 22.953125 -1.464844 C 22.953125 2.824219 20.785156 4.996094 16.597656 4.996094 C 13.417969 4.996094 11.300781 3.683594 10.746094 1.363281 L 3.277344 1.363281 C 3.933594 7.464844 9.082031 11.199219 16.75 11.199219 Z M 9.535156 -13.972656 C 9.535156 -18.011719 12.359375 -20.835938 16.394531 -20.835938 C 20.433594 -20.835938 23.308594 -18.011719 23.308594 -13.972656 C 23.308594 -9.886719 20.433594 -7.0625 16.394531 -7.0625 C 12.359375 -7.0625 9.535156 -9.886719 9.535156 -13.972656 Z M 9.535156 -13.972656 "/></g></g></g><g fill="#ffffff" fill-opacity="1"><g transform="translate(161.307095, 42.179491)"><g><path d="M 1.714844 0 L 6.859375 0 L 11.347656 -5.953125 L 14.578125 -10.339844 L 17.753906 -5.953125 L 22.195312 0 L 27.339844 0 L 17.300781 -13.316406 L 26.835938 -26.179688 L 21.789062 -26.179688 L 17.703125 -20.628906 L 14.527344 -16.292969 L 11.398438 -20.628906 L 7.3125 -26.179688 L 2.21875 -26.179688 L 11.753906 -13.316406 Z M 1.714844 0 "/></g></g></g><g fill="#ffffff" fill-opacity="1"><g transform="translate(189.900844, 42.179491)"><g><path d="M 18.964844 0.65625 C 26.683594 0.65625 32.28125 -5.144531 32.28125 -13.113281 C 32.28125 -21.035156 26.683594 -26.835938 18.964844 -26.835938 C 14.679688 -26.835938 11.046875 -25.070312 8.675781 -22.144531 L 8.171875 -26.179688 L 4.691406 -26.179688 L 4.691406 10.089844 L 8.929688 10.089844 L 8.929688 -3.734375 C 11.300781 -1.007812 14.828125 0.65625 18.964844 0.65625 Z M 8.777344 -13.113281 C 8.777344 -18.765625 12.761719 -22.800781 18.410156 -22.800781 C 24.109375 -22.800781 28.046875 -18.765625 28.046875 -13.113281 C 28.046875 -7.414062 24.109375 -3.429688 18.410156 -3.429688 C 12.761719 -3.429688 8.777344 -7.414062 8.777344 -13.113281 Z M 8.777344 -13.113281 "/></g></g></g><g fill="#ffffff" fill-opacity="1"><g transform="translate(224.294065, 42.179491)"><g><path d="M 4.691406 0 L 8.929688 0 L 8.929688 -12.15625 C 8.929688 -19.621094 12.660156 -22.246094 17.402344 -22.246094 L 19.976562 -22.246094 L 19.976562 -26.179688 L 17.605469 -26.179688 C 13.164062 -26.179688 10.542969 -24.765625 8.675781 -21.640625 L 8.171875 -26.179688 L 4.691406 -26.179688 Z M 4.691406 0 "/></g></g></g><g fill="#ffffff" fill-opacity="1"><g transform="translate(245.777136, 42.179491)"><g><path d="M 16.039062 0.65625 C 21.941406 0.65625 26.785156 -2.523438 28.902344 -7.617188 L 24.109375 -7.617188 C 22.496094 -4.84375 19.519531 -3.328125 16.089844 -3.328125 C 11.097656 -3.328125 7.566406 -6.457031 6.910156 -11.398438 L 29.558594 -11.398438 C 29.859375 -20.53125 24.464844 -26.835938 16.089844 -26.835938 C 8.171875 -26.835938 2.621094 -21.183594 2.621094 -13.113281 C 2.621094 -4.992188 8.121094 0.65625 16.039062 0.65625 Z M 6.960938 -15.132812 C 7.71875 -19.773438 11.25 -22.851562 16.089844 -22.851562 C 20.882812 -22.851562 24.414062 -19.925781 25.320312 -15.132812 Z M 6.960938 -15.132812 "/></g></g></g><g fill="#ffffff" fill-opacity="1"><g transform="translate(277.346265, 42.179491)"><g><path d="M 14.175781 0.65625 C 20.628906 0.65625 24.816406 -2.320312 24.816406 -6.859375 C 24.816406 -10.945312 21.386719 -13.71875 14.78125 -15.03125 C 9.332031 -16.089844 7.464844 -17.148438 7.464844 -19.371094 C 7.464844 -21.691406 9.683594 -23.101562 13.46875 -23.101562 C 17.453125 -23.101562 19.824219 -21.539062 20.125 -18.664062 L 24.3125 -18.664062 C 23.960938 -23.808594 19.875 -26.835938 13.417969 -26.835938 C 7.113281 -26.835938 3.277344 -24.058594 3.277344 -19.371094 C 3.277344 -15.234375 6.457031 -12.710938 13.214844 -11.601562 C 18.308594 -10.742188 20.628906 -9.332031 20.628906 -6.960938 C 20.628906 -4.589844 18.210938 -3.128906 14.222656 -3.128906 C 9.734375 -3.128906 7.0625 -5.042969 6.910156 -8.222656 L 2.722656 -8.222656 C 2.824219 -2.875 7.3125 0.65625 14.175781 0.65625 Z M 14.175781 0.65625 "/></g></g></g><g fill="#ffffff" fill-opacity="1"><g transform="translate(304.376671, 42.179491)"><g><path d="M 14.175781 0.65625 C 20.628906 0.65625 24.816406 -2.320312 24.816406 -6.859375 C 24.816406 -10.945312 21.386719 -13.71875 14.78125 -15.03125 C 9.332031 -16.089844 7.464844 -17.148438 7.464844 -19.371094 C 7.464844 -21.691406 9.683594 -23.101562 13.46875 -23.101562 C 17.453125 -23.101562 19.824219 -21.539062 20.125 -18.664062 L 24.3125 -18.664062 C 23.960938 -23.808594 19.875 -26.835938 13.417969 -26.835938 C 7.113281 -26.835938 3.277344 -24.058594 3.277344 -19.371094 C 3.277344 -15.234375 6.457031 -12.710938 13.214844 -11.601562 C 18.308594 -10.742188 20.628906 -9.332031 20.628906 -6.960938 C 20.628906 -4.589844 18.210938 -3.128906 14.222656 -3.128906 C 9.734375 -3.128906 7.0625 -5.042969 6.910156 -8.222656 L 2.722656 -8.222656 C 2.824219 -2.875 7.3125 0.65625 14.175781 0.65625 Z M 14.175781 0.65625 "/></g></g></g><g fill="#ffffff" fill-opacity="1"><g transform="translate(93.814836, 67.80487)"><g><path d="M 0.175781 0 L 1.15625 0 L 1.820312 -1.65625 L 5.371094 -1.65625 L 6.058594 0 L 7.027344 0 L 4.027344 -7.285156 L 3.175781 -7.285156 Z M 2.175781 -2.507812 L 3.601562 -6.007812 L 5.027344 -2.507812 Z M 2.175781 -2.507812 "/></g></g></g><g fill="#ffffff" fill-opacity="1"><g transform="translate(109.346364, 67.80487)"><g><path d="M 4.289062 0.136719 C 6.058594 0.136719 7.496094 -0.9375 7.933594 -2.5625 L 6.964844 -2.5625 C 6.589844 -1.46875 5.558594 -0.78125 4.320312 -0.78125 C 2.695312 -0.78125 1.539062 -1.957031 1.539062 -3.644531 C 1.539062 -5.328125 2.695312 -6.507812 4.320312 -6.507812 C 5.527344 -6.507812 6.515625 -5.859375 6.890625 -4.808594 L 7.871094 -4.808594 C 7.390625 -6.414062 6.007812 -7.421875 4.289062 -7.421875 C 2.144531 -7.421875 0.605469 -5.839844 0.605469 -3.644531 C 0.605469 -1.445312 2.144531 0.136719 4.289062 0.136719 Z M 4.289062 0.136719 "/></g></g></g><g fill="#ffffff" fill-opacity="1"><g transform="translate(126.168718, 67.80487)"><g><path d="M 2.820312 0 L 3.738281 0 L 3.738281 -6.414062 L 6.195312 -6.414062 L 6.195312 -7.285156 L 0.355469 -7.285156 L 0.355469 -6.414062 L 2.820312 -6.414062 Z M 2.820312 0 "/></g></g></g><g fill="#ffffff" fill-opacity="1"><g transform="translate(141.054836, 67.80487)"><g><path d="M 3.789062 0.125 C 5.546875 0.125 6.609375 -1.03125 6.609375 -2.96875 L 6.609375 -7.285156 L 5.695312 -7.285156 L 5.695312 -3.027344 C 5.695312 -1.539062 5.039062 -0.769531 3.789062 -0.769531 C 2.550781 -0.769531 1.882812 -1.539062 1.882812 -3.027344 L 1.882812 -7.285156 L 0.980469 -7.285156 L 0.980469 -2.96875 C 0.980469 -1.03125 2.03125 0.125 3.789062 0.125 Z M 3.789062 0.125 "/></g></g></g><g fill="#ffffff" fill-opacity="1"><g transform="translate(156.971527, 67.80487)"><g><path d="M 3.488281 0.136719 C 5.078125 0.136719 6.109375 -0.644531 6.109375 -1.914062 C 6.109375 -2.988281 5.390625 -3.632812 3.527344 -4.089844 C 2.113281 -4.433594 1.644531 -4.808594 1.644531 -5.414062 C 1.644531 -6.109375 2.269531 -6.546875 3.308594 -6.546875 C 4.382812 -6.546875 5.046875 -6.007812 5.070312 -5.132812 L 5.976562 -5.132812 C 5.964844 -6.546875 4.945312 -7.421875 3.308594 -7.421875 C 1.71875 -7.421875 0.707031 -6.640625 0.707031 -5.414062 C 0.707031 -4.289062 1.507812 -3.664062 3.300781 -3.238281 C 4.613281 -2.925781 5.164062 -2.5625 5.164062 -1.882812 C 5.164062 -1.164062 4.519531 -0.738281 3.488281 -0.738281 C 2.351562 -0.738281 1.5625 -1.300781 1.539062 -2.238281 L 0.625 -2.238281 C 0.636719 -0.8125 1.75 0.136719 3.488281 0.136719 Z M 3.488281 0.136719 "/></g></g></g><g fill="#ffffff" fill-opacity="1"><g transform="translate(172.034604, 67.80487)"><g/></g></g><g fill="#ffffff" fill-opacity="1"><g transform="translate(182.944135, 67.80487)"><g><path d="M 1.0625 0 L 3.582031 0 C 5.820312 0 7.316406 -1.488281 7.316406 -3.644531 C 7.316406 -5.796875 5.820312 -7.285156 3.582031 -7.285156 L 1.0625 -7.285156 Z M 1.976562 -0.875 L 1.976562 -6.414062 L 3.539062 -6.414062 C 5.234375 -6.414062 6.382812 -5.296875 6.382812 -3.644531 C 6.382812 -1.988281 5.246094 -0.875 3.582031 -0.875 Z M 1.976562 -0.875 "/></g></g></g><g fill="#ffffff" fill-opacity="1"><g transform="translate(199.193943, 67.80487)"><g><path d="M 1.0625 0 L 5.601562 0 L 5.601562 -0.855469 L 1.976562 -0.855469 L 1.976562 -3.289062 L 5.226562 -3.289062 L 5.226562 -4.132812 L 1.976562 -4.132812 L 1.976562 -6.433594 L 5.484375 -6.433594 L 5.484375 -7.285156 L 1.0625 -7.285156 Z M 1.0625 0 "/></g></g></g><g fill="#ffffff" fill-opacity="1"><g transform="translate(213.798994, 67.80487)"><g><path d="M 3.082031 0 L 3.933594 0 L 6.828125 -7.285156 L 5.859375 -7.285156 L 4.644531 -4.214844 L 3.507812 -1.320312 L 2.363281 -4.214844 L 1.15625 -7.285156 L 0.175781 -7.285156 Z M 3.082031 0 "/></g></g></g><g fill="#ffffff" fill-opacity="1"><g transform="translate(229.13273, 67.80487)"><g/></g></g><g fill="#ffffff" fill-opacity="1"><g transform="translate(240.042268, 67.80487)"><g><path d="M 2.5625 0 L 3.414062 0 L 5.601562 -5.902344 L 6.808594 -2.65625 L 7.796875 0 L 8.652344 0 L 11.023438 -7.285156 L 10.066406 -7.285156 L 8.191406 -1.457031 L 6.039062 -7.285156 L 5.171875 -7.285156 L 3.019531 -1.46875 L 2.164062 -4.144531 L 1.15625 -7.285156 L 0.199219 -7.285156 Z M 2.5625 0 "/></g></g></g><g fill="#ffffff" fill-opacity="1"><g transform="translate(259.592027, 67.80487)"><g><path d="M 1.0625 0 L 5.601562 0 L 5.601562 -0.855469 L 1.976562 -0.855469 L 1.976562 -3.289062 L 5.226562 -3.289062 L 5.226562 -4.132812 L 1.976562 -4.132812 L 1.976562 -6.433594 L 5.484375 -6.433594 L 5.484375 -7.285156 L 1.0625 -7.285156 Z M 1.0625 0 "/></g></g></g><g fill="#ffffff" fill-opacity="1"><g transform="translate(274.197078, 67.80487)"><g><path d="M 1.0625 0 L 4.019531 0 C 5.484375 0 6.402344 -0.78125 6.402344 -2.039062 C 6.402344 -2.863281 5.996094 -3.476562 5.246094 -3.777344 C 5.839844 -4.082031 6.195312 -4.644531 6.195312 -5.351562 C 6.195312 -6.527344 5.277344 -7.285156 3.882812 -7.285156 L 1.0625 -7.285156 Z M 1.976562 -0.855469 L 1.976562 -3.300781 L 3.988281 -3.300781 C 4.933594 -3.300781 5.464844 -2.851562 5.464844 -2.082031 C 5.464844 -1.300781 4.933594 -0.855469 3.996094 -0.855469 Z M 1.976562 -4.132812 L 1.976562 -6.433594 L 3.863281 -6.433594 C 4.746094 -6.433594 5.257812 -6.015625 5.257812 -5.277344 C 5.257812 -4.550781 4.757812 -4.132812 3.863281 -4.132812 Z M 1.976562 -4.132812 "/></g></g></g></svg>